<?xml version="1.0" standalone="no"?>
<!DOCTYPE svg PUBLIC "-//W3C//DTD SVG 20010904//EN"
 "http://www.w3.org/TR/2001/REC-SVG-20010904/DTD/svg10.dtd">
<svg version="1.0" xmlns="http://www.w3.org/2000/svg"
 width="500.000000pt" height="500.000000pt" viewBox="0 0 500.000000 500.000000"
 preserveAspectRatio="xMidYMid meet">
<metadata>
Created by potrace 1.11, written by Peter Selinger 2001-2013
</metadata>
<g transform="translate(0.000000,500.000000) scale(0.100000,-0.100000)"
fill="#000000" stroke="none">
<path d="M4500 4040 c-35 -18 -198 -185 -536 -546 -66 -71 -163 -176 -214
-234 -97 -109 -219 -244 -278 -308 -87 -94 -310 -317 -432 -432 -716 -676
-1477 -1170 -2185 -1417 -38 -13 -77 -26 -85 -28 -8 -2 -36 -10 -61 -19 -49
-17 -233 -61 -288 -70 -39 -5 -56 -19 -46 -36 10 -16 81 -5 260 40 452 115
961 357 1480 703 151 100 344 238 421 300 10 8 57 46 104 83 363 289 748 654
1115 1059 252 277 669 707 633 651 -12 -19 -89 -133 -169 -253 -746 -1111
-1140 -1868 -1166 -2238 -6 -89 5 -144 40 -195 36 -54 80 -74 167 -76 99 -2
165 14 165 41 0 22 0 22 -105 11 -101 -10 -165 44 -175 146 -11 124 75 380
237 703 81 159 88 173 132 250 13 22 38 67 56 100 166 300 590 964 915 1430
100 144 138 218 139 274 1 74 -52 100 -124 61z"/>
</g>
</svg>
