<?xml version="1.0" standalone="no"?>
<!DOCTYPE svg PUBLIC "-//W3C//DTD SVG 20010904//EN"
 "http://www.w3.org/TR/2001/REC-SVG-20010904/DTD/svg10.dtd">
<svg version="1.0" xmlns="http://www.w3.org/2000/svg"
 width="500.000000pt" height="500.000000pt" viewBox="0 0 500.000000 500.000000"
 preserveAspectRatio="xMidYMid meet">
<metadata>
Created by potrace 1.11, written by Peter Selinger 2001-2013
</metadata>
<g transform="translate(0.000000,500.000000) scale(0.100000,-0.100000)"
fill="#000000" stroke="none">
<path d="M2447 4254 c-1 -1 -45 -4 -97 -7 -381 -24 -781 -210 -1070 -496 -352
-349 -533 -795 -525 -1291 7 -461 192 -893 521 -1217 216 -213 474 -364 757
-443 83 -23 86 -23 157 -35 25 -4 54 -10 65 -13 52 -13 423 -10 510 4 194 32
382 94 544 181 73 39 187 108 201 123 3 3 23 18 45 35 85 63 222 195 296 285
157 190 284 446 344 689 43 173 53 270 50 461 -3 158 -5 177 -31 310 -78 398
-298 763 -620 1028 -248 204 -619 355 -929 378 -66 5 -215 10 -218 8z m191
-168 c421 -28 852 -266 1125 -622 48 -63 147 -221 147 -235 0 -4 -25 1 -56 12
l-56 20 -85 -31 c-47 -16 -87 -30 -89 -30 -2 0 -4 -11 -4 -24 l0 -23 -76 25
-76 24 -26 -25 c-22 -23 -24 -29 -14 -51 10 -23 7 -22 -61 17 -40 22 -73 41
-75 43 -2 1 3 17 11 36 11 26 25 38 60 52 l46 17 -19 22 -20 21 -45 -22 c-32
-15 -50 -33 -66 -64 l-22 -43 54 -47 53 -48 -58 0 c-54 0 -61 -3 -129 -55
l-72 -54 -27 26 c-16 15 -28 29 -28 33 0 3 17 4 38 2 33 -3 40 0 51 24 7 17 8
29 2 33 -5 3 -57 19 -116 35 l-106 29 -72 -17 -72 -17 -59 -97 c-40 -66 -60
-110 -62 -138 l-4 -41 49 5 c45 4 49 3 55 -21 6 -24 7 -25 47 -13 34 10 42 18
45 39 1 15 -6 37 -16 49 -17 22 -17 23 13 68 16 25 32 47 34 49 1 2 12 -4 24
-15 l21 -19 -28 -21 c-25 -21 -26 -24 -14 -53 7 -17 14 -31 15 -31 1 0 22 7
46 15 34 12 44 13 51 3 13 -21 10 -24 -48 -44 -39 -13 -59 -26 -65 -41 -6 -17
-17 -23 -41 -24 -18 -1 -46 -2 -63 -4 -19 -1 -34 4 -45 17 -17 22 -55 15 -46
-8 3 -8 9 -21 12 -29 7 -16 -62 -85 -85 -85 -8 0 -29 -12 -48 -26 l-34 -26 19
-22 c15 -15 18 -27 12 -43 -8 -19 -15 -21 -64 -19 l-54 3 19 -50 c11 -28 24
-59 30 -69 12 -22 11 -23 97 57 32 30 64 50 78 51 13 1 32 8 42 17 16 14 20
13 56 -11 39 -27 45 -35 64 -82 l9 -25 18 37 18 37 -37 41 c-53 59 -33 71 25
14 35 -34 50 -58 54 -85 5 -26 16 -45 33 -57 56 -39 55 -39 47 13 l-7 48 39
-46 c21 -25 41 -46 45 -46 4 -1 19 16 33 36 l25 38 0 -41 c0 -23 -6 -47 -14
-53 -18 -15 -161 -10 -178 7 -16 16 -26 15 -55 -7 -13 -11 -30 -18 -36 -16 -7
2 -31 9 -55 15 -34 9 -42 15 -37 29 3 10 -2 25 -14 35 -16 15 -30 16 -89 11
-59 -6 -74 -12 -104 -39 -19 -18 -47 -42 -63 -54 -15 -12 -54 -45 -85 -72
l-57 -49 4 -83 c2 -46 5 -92 8 -103 3 -11 30 -39 60 -62 l54 -43 90 0 c73 0
98 -4 128 -21 55 -30 60 -37 39 -52 -17 -13 -17 -16 15 -53 19 -21 38 -42 43
-45 23 -17 11 -112 -17 -130 -6 -4 0 -42 16 -100 15 -52 33 -119 40 -149 l14
-55 55 -3 c50 -3 56 -1 83 30 126 140 155 177 155 197 0 22 34 64 59 72 17 6
26 90 13 116 -10 19 11 51 116 178 37 45 89 111 95 120 4 7 -12 9 -49 5 -83
-9 -118 18 -183 143 -55 104 -62 147 -22 144 14 -1 39 -36 87 -122 37 -66 71
-125 76 -132 23 -29 208 72 208 113 0 22 -61 53 -86 44 -19 -7 -27 -3 -48 25
-14 18 -26 36 -26 39 0 6 66 -1 130 -14 25 -5 63 -12 86 -14 22 -3 57 -8 76
-11 35 -7 36 -8 31 -46 -5 -34 -3 -41 14 -45 14 -4 26 -26 42 -75 20 -63 25
-69 44 -63 57 17 72 29 77 64 4 28 15 41 58 70 33 22 59 48 67 68 15 35 34 43
36 15 1 -10 3 -25 3 -33 1 -8 10 -33 20 -55 21 -47 14 -93 -36 -235 -113 -319
-333 -601 -624 -800 -156 -106 -416 -210 -601 -240 -300 -49 -572 -21 -853 88
-89 34 -110 55 -103 99 4 26 0 42 -16 64 l-22 30 37 72 c43 86 89 157 159 253
49 66 52 74 51 125 -2 42 3 61 21 86 l23 32 -28 19 c-80 55 -157 94 -189 97
-34 2 -37 5 -49 46 -13 43 -15 45 -51 44 -54 -1 -71 10 -75 47 -3 32 -3 32
-63 35 -33 2 -78 8 -101 14 -33 9 -48 8 -78 -5 -33 -14 -89 -21 -138 -17 -12
1 -18 9 -18 24 0 31 -12 46 -40 50 -22 3 -24 8 -22 40 3 28 -1 36 -17 42 -12
4 -30 0 -43 -9 -31 -22 -48 -20 -81 9 l-27 24 27 46 28 45 76 0 c71 0 78 -2
93 -25 20 -30 73 -37 61 -7 -20 52 -17 67 21 92 53 35 63 47 58 68 -7 25 28
62 58 62 21 0 25 5 26 31 0 17 2 32 4 33 2 2 58 33 125 70 l123 67 -60 81
c-33 45 -61 85 -62 89 -4 9 -40 16 -130 24 l-67 5 -11 -41 c-6 -23 -9 -48 -6
-56 3 -8 -1 -29 -10 -46 -31 -60 -34 -61 -66 -17 -21 29 -41 43 -71 51 -23 6
-50 18 -60 27 -17 15 -15 18 29 61 46 43 48 44 105 42 43 -2 59 1 60 11 3 44
8 60 31 90 14 18 35 34 47 35 26 2 26 2 1 -47 -23 -46 -25 -56 -7 -57 6 0 39
-4 73 -7 l60 -6 55 49 54 50 -41 43 c-55 58 -104 113 -120 137 -12 17 -8 23
39 66 88 80 207 198 207 205 0 4 -35 2 -77 -5 -70 -10 -107 -25 -351 -149
-150 -75 -277 -136 -282 -134 -4 2 0 19 10 38 11 19 22 42 26 50 12 25 86 131
132 190 71 91 191 208 288 280 84 64 296 190 319 190 5 0 23 7 38 15 92 48
295 97 462 111 44 4 81 7 82 8 3 2 84 -2 191 -8z m-1461 -2014 c35 -3 45 -10
62 -38 17 -29 26 -34 58 -35 21 -1 43 -1 49 0 19 2 23 -61 6 -91 -15 -26 -14
-29 57 -136 60 -92 79 -112 114 -128 23 -10 43 -19 45 -20 3 -2 5 -15 21 -119
17 -116 49 -225 91 -312 21 -46 36 -83 31 -83 -9 0 -171 110 -215 146 -113 93
-249 246 -328 369 -90 139 -185 359 -216 502 l-9 41 96 -46 c53 -25 115 -47
138 -50z"/>
</g>
</svg>
