<?xml version="1.0" encoding="UTF-8" standalone="no"?>
<svg width="16px" height="16px" viewBox="0 0 16 16" version="1.1" xmlns="http://www.w3.org/2000/svg" xmlns:xlink="http://www.w3.org/1999/xlink">
    <!-- Generator: Sketch 3.7.2 (28276) - http://www.bohemiancoding.com/sketch -->
    <title>National Maritime Museum</title>
    <desc>Created with Sketch.</desc>
    <defs></defs>
    <g id="Page-1" stroke="none" stroke-width="1" fill="none" fill-rule="evenodd">
        <g id="National-Maritime-Museum" fill="#000000">
            <g transform="translate(0.000000, 5.500000)">
                <path d="M7.586,0.1475 L7.586,0.2045 L7.744,0.232 L7.7785,0.9245 L7.216,0.1475 L6.8795,0.1475 L6.8795,0.2045 L7.0315,0.232 L7.0315,1.099 L6.8795,1.1265 L6.8795,1.1835 L7.2895,1.1835 L7.2895,1.1265 L7.128,1.099 L7.0915,0.232 L7.7925,1.195 L7.8385,1.195 L7.8385,0.232 L7.979,0.2045 L7.979,0.1475 L7.586,0.1475" id="Fill-1"></path>
                <path d="M8.661,0.1335 L8.237,1.0995 L8.0965,1.1265 L8.0965,1.1835 L8.474,1.1835 L8.474,1.1265 L8.3335,1.0995 L8.4515,0.7975 L8.8285,0.7975 L8.9515,1.0995 L8.8035,1.1265 L8.8035,1.1835 L9.2405,1.1835 L9.2405,1.1265 L9.1135,1.0995 L8.701,0.1335 L8.661,0.1335 Z M8.636,0.3315 L8.7995,0.7315 L8.477,0.7315 L8.636,0.3315 Z" id="Fill-3"></path>
                <polygon id="Fill-5" points="9.3565 0.1475 9.333 0.5035 9.375 0.514 9.5035 0.226 9.715 0.203 9.715 1.0995 9.5445 1.127 9.5445 1.184 10.038 1.184 10.038 1.127 9.869 1.0995 9.869 0.203 10.0805 0.226 10.21 0.514 10.252 0.5035 10.227 0.1475"></polygon>
                <polygon id="Fill-7" points="10.496 0.1475 10.496 0.2045 10.6525 0.232 10.6525 1.099 10.496 1.1265 10.496 1.1835 10.965 1.1835 10.965 1.1265 10.809 1.099 10.809 0.232 10.965 0.2045 10.965 0.1475"></polygon>
                <path d="M11.2095,0.6685 C11.2095,0.4 11.418,0.1315 11.71,0.1315 C12.0015,0.1315 12.211,0.4005 12.211,0.6685 C12.211,0.9385 12.0075,1.1975 11.71,1.1975 C11.4135,1.1975 11.2095,0.939 11.2095,0.6685 M12.042,0.6685 C12.042,0.3275 11.9065,0.202 11.71,0.202 C11.514,0.202 11.379,0.327 11.379,0.6685 C11.379,0.999 11.521,1.1285 11.71,1.1285 C11.893,1.1285 12.042,0.999 12.042,0.6685" id="Fill-9"></path>
                <path d="M13.1605,0.1475 L13.1605,0.2045 L13.318,0.232 L13.3525,0.9245 L12.79,0.1475 L12.4525,0.1475 L12.4525,0.2045 L12.606,0.232 L12.606,1.099 L12.4525,1.1265 L12.4525,1.1835 L12.8625,1.1835 L12.8625,1.1265 L12.701,1.099 L12.6655,0.232 L13.3655,1.195 L13.412,1.195 L13.412,0.232 L13.553,0.2045 L13.553,0.1475 L13.1605,0.1475" id="Fill-11"></path>
                <path d="M14.2355,0.1335 L13.811,1.0995 L13.671,1.1265 L13.671,1.1835 L14.049,1.1835 L14.049,1.1265 L13.908,1.0995 L14.026,0.7975 L14.4025,0.7975 L14.5265,1.0995 L14.3775,1.1265 L14.3775,1.1835 L14.815,1.1835 L14.815,1.1265 L14.688,1.0995 L14.2755,0.1335 L14.2355,0.1335 Z M14.2105,0.3315 L14.374,0.7315 L14.0515,0.7315 L14.2105,0.3315 Z" id="Fill-13"></path>
                <polygon id="Fill-15" points="15.0245 0.1475 15.0245 0.2045 15.1765 0.232 15.1765 1.099 15.0245 1.1265 15.0245 1.1835 15.8265 1.1835 15.8835 0.813 15.8425 0.8015 15.683 1.099 15.3305 1.1265 15.3305 0.2315 15.4865 0.204 15.4865 0.147 15.0245 0.147"></polygon>
                <path d="M7.8305,1.9425 L7.536,2.7195 L7.224,1.9425 L6.8795,1.9425 L6.8795,1.9995 L7.0315,2.027 L7.0315,2.894 L6.8795,2.9215 L6.8795,2.978 L7.2605,2.978 L7.2605,2.9215 L7.1295,2.894 L7.091,2.0245 L7.476,2.943 L7.517,2.943 L7.8805,2.0245 L7.8805,2.894 L7.7515,2.9215 L7.7515,2.978 L8.181,2.978 L8.181,2.9215 L8.0365,2.894 L8.0365,2.027 L8.181,1.9995 L8.181,1.9425 L7.8305,1.9425" id="Fill-17"></path>
                <path d="M8.6265,2.894 L8.7665,2.921 L8.7665,2.978 L8.3895,2.978 L8.3895,2.921 L8.5295,2.894 L8.954,1.928 L8.994,1.928 L9.4065,2.894 L9.5335,2.921 L9.5335,2.978 L9.096,2.978 L9.096,2.921 L9.245,2.894 L9.121,2.5925 L8.7435,2.5925 L8.6265,2.894 L8.6265,2.894 Z M8.929,2.1265 L8.7705,2.5255 L9.092,2.5255 L8.929,2.1265 Z" id="Fill-19"></path>
                <path d="M10.4615,2.933 C10.313,2.5335 10.3,2.514 10.173,2.514 L10.0495,2.514 L10.0495,2.894 L10.2025,2.921 L10.2025,2.978 L9.7445,2.978 L9.7445,2.921 L9.8965,2.894 L9.8965,2.0265 L9.7445,1.9995 L9.7445,1.942 L10.2415,1.942 C10.4305,1.942 10.5975,2.038 10.5975,2.223 C10.5975,2.395 10.4705,2.465 10.2955,2.485 L10.2955,2.489 C10.393,2.5005 10.449,2.534 10.513,2.661 L10.631,2.894 L10.746,2.9215 L10.746,2.9785 L10.544,2.9785 C10.495,2.978 10.4735,2.9625 10.4615,2.933 L10.4615,2.933 Z M10.0495,2.444 L10.1945,2.444 C10.389,2.444 10.4365,2.391 10.4365,2.2245 C10.4365,2.058 10.3835,2.0135 10.227,2.0135 L10.0495,2.0135 L10.0495,2.444 Z" id="Fill-21"></path>
                <polygon id="Fill-23" points="10.946 2.9215 11.1015 2.894 11.1015 2.0265 10.946 1.9995 10.946 1.942 11.414 1.942 11.414 1.9995 11.258 2.0265 11.258 2.894 11.414 2.9215 11.414 2.978 10.946 2.978"></polygon>
                <polygon id="Fill-25" points="11.869 2.9215 12.0395 2.894 12.0395 1.997 11.827 2.0205 11.701 2.308 11.6575 2.298 11.68 1.9415 12.5515 1.9415 12.577 2.298 12.5345 2.308 12.405 2.0205 12.1935 1.997 12.1935 2.894 12.363 2.9215 12.363 2.978 11.869 2.978"></polygon>
                <polygon id="Fill-27" points="12.8215 2.9215 12.9775 2.894 12.9775 2.0265 12.8215 1.9995 12.8215 1.942 13.2895 1.942 13.2895 1.9995 13.134 2.0265 13.134 2.894 13.2895 2.9215 13.2895 2.978 12.8215 2.978"></polygon>
                <polygon id="Fill-29" points="13.536 2.9215 13.687 2.894 13.687 2.0265 13.536 1.9995 13.536 1.942 13.88 1.942 14.1925 2.7195 14.487 1.942 14.8375 1.942 14.8375 1.9995 14.693 2.0265 14.693 2.894 14.8375 2.9215 14.8375 2.978 14.4075 2.978 14.4075 2.9215 14.537 2.894 14.537 2.0245 14.173 2.943 14.133 2.943 13.7475 2.0245 13.7855 2.894 13.917 2.9215 13.917 2.978 13.5355 2.978 13.5355 2.9215"></polygon>
                <polygon id="Fill-31" points="15.083 1.9425 15.083 1.9995 15.233 2.029 15.233 2.894 15.083 2.9215 15.083 2.978 15.949 2.978 16 2.637 15.961 2.627 15.809 2.899 15.385 2.9235 15.385 2.475 15.588 2.4885 15.651 2.6295 15.691 2.6295 15.691 2.2575 15.651 2.2575 15.588 2.4105 15.385 2.4225 15.385 1.9935 15.755 2.0205 15.896 2.2455 15.9285 2.2335 15.8895 1.942 15.083 1.942"></polygon>
                <path d="M7.8305,3.737 L7.536,4.514 L7.224,3.737 L6.8795,3.737 L6.8795,3.7935 L7.0315,3.821 L7.0315,4.6885 L6.8795,4.716 L6.8795,4.7725 L7.2605,4.7725 L7.2605,4.716 L7.1295,4.6885 L7.091,3.82 L7.476,4.7375 L7.517,4.7375 L7.8805,3.82 L7.8805,4.6885 L7.7515,4.716 L7.7515,4.7725 L8.181,4.7725 L8.181,4.716 L8.0365,4.6885 L8.0365,3.821 L8.181,3.7935 L8.181,3.737 L7.8305,3.737" id="Fill-33"></path>
                <path d="M8.5545,4.434 L8.5545,3.8205 L8.4125,3.7935 L8.4125,3.737 L8.8475,3.737 L8.8475,3.7935 L8.71,3.821 L8.71,4.4125 C8.71,4.6245 8.794,4.7025 8.9965,4.7025 C9.1735,4.7025 9.2645,4.614 9.2645,4.432 L9.2645,3.821 L9.1335,3.7935 L9.1335,3.737 L9.4915,3.737 L9.4915,3.7935 L9.3645,3.821 L9.3395,4.454 C9.3315,4.677 9.1885,4.785 8.9595,4.785 C8.7205,4.7845 8.5545,4.667 8.5545,4.434" id="Fill-35"></path>
                <path d="M9.8375,4.677 L9.803,4.772 L9.7575,4.772 L9.7205,4.4005 L9.763,4.3905 C9.875,4.63 9.969,4.72 10.121,4.72 C10.246,4.72 10.332,4.6545 10.332,4.5385 C10.332,4.4215 10.2755,4.3765 10.056,4.2985 C9.8625,4.2285 9.7425,4.149 9.7425,3.9855 C9.7425,3.839 9.865,3.7205 10.046,3.7205 C10.1425,3.7205 10.235,3.762 10.2805,3.8055 L10.312,3.737 L10.354,3.737 L10.3865,4.0485 L10.3485,4.056 C10.252,3.866 10.1675,3.7905 10.045,3.7905 C9.936,3.7905 9.8595,3.8545 9.8595,3.9425 C9.8595,4.0465 9.9105,4.078 10.1145,4.1525 C10.309,4.2235 10.463,4.3055 10.463,4.497 C10.463,4.6675 10.326,4.7865 10.124,4.7865 C9.9865,4.786 9.886,4.726 9.8375,4.677" id="Fill-37"></path>
                <path d="M10.7055,3.737 L10.7055,3.7935 L10.8565,3.823 L10.8565,4.6885 L10.7055,4.716 L10.7055,4.7725 L11.5725,4.7725 L11.623,4.4315 L11.585,4.4215 L11.433,4.694 L11.0085,4.7175 L11.0085,4.2695 L11.211,4.283 L11.274,4.424 L11.3155,4.424 L11.3155,4.0515 L11.274,4.0515 L11.211,4.205 L11.0085,4.2165 L11.0085,3.788 L11.3785,3.8155 L11.5195,4.0405 L11.5515,4.0295 L11.5125,3.737 L10.7055,3.737" id="Fill-39"></path>
                <path d="M11.9735,4.434 L11.9735,3.8205 L11.831,3.7935 L11.831,3.737 L12.2665,3.737 L12.2665,3.7935 L12.129,3.821 L12.129,4.4125 C12.129,4.6245 12.2125,4.7025 12.415,4.7025 C12.592,4.7025 12.683,4.614 12.683,4.432 L12.683,3.821 L12.552,3.7935 L12.552,3.737 L12.9105,3.737 L12.9105,3.7935 L12.7835,3.821 L12.7585,4.454 C12.7505,4.677 12.6075,4.785 12.3785,4.785 C12.1395,4.7845 11.9735,4.667 11.9735,4.434" id="Fill-41"></path>
                <path d="M14.0935,3.737 L13.798,4.514 L13.4855,3.737 L13.1415,3.737 L13.1415,3.7935 L13.294,3.821 L13.294,4.6885 L13.1415,4.716 L13.1415,4.7725 L13.523,4.7725 L13.523,4.716 L13.3915,4.6885 L13.3535,3.82 L13.739,4.7375 L13.779,4.7375 L14.1435,3.82 L14.1435,4.6885 L14.0145,4.716 L14.0145,4.7725 L14.443,4.7725 L14.443,4.716 L14.2985,4.6885 L14.2985,3.821 L14.443,3.7935 L14.443,3.737 L14.0935,3.737" id="Fill-43"></path>
                <path d="M2.3615,0.8415 C2.4255,0.8415 2.4785,0.7895 2.4785,0.725 C2.4785,0.6605 2.4255,0.6085 2.3615,0.6085 C2.297,0.6085 2.2445,0.6605 2.2445,0.725 C2.2445,0.7895 2.2965,0.8415 2.3615,0.8415 M1.2845,0.6745 C1.3385,0.6745 1.383,0.6305 1.383,0.576 C1.383,0.5215 1.339,0.478 1.2845,0.478 C1.23,0.478 1.186,0.522 1.186,0.576 C1.186,0.6305 1.2295,0.6745 1.2845,0.6745 M1.357,0.198 C1.4015,0.198 1.4375,0.1615 1.4375,0.117 C1.4375,0.0725 1.4015,0.036 1.357,0.036 C1.312,0.036 1.276,0.072 1.276,0.117 C1.276,0.162 1.312,0.198 1.357,0.198 M4.392,2.6125 C4.392,2.5665 4.4215,2.4755 4.4435,2.4085 C4.463,2.3495 4.472,2.321 4.472,2.304 C4.472,2.279 4.452,2.258 4.427,2.258 C4.389,2.258 4.358,2.303 4.312,2.376 C4.3005,2.3945 4.289,2.4135 4.277,2.4295 C4.26,2.4535 4.2525,2.4605 4.244,2.4605 C4.244,2.4605 4.235,2.4605 4.235,2.4505 C4.235,2.435 4.2645,2.3875 4.2705,2.3645 C4.279,2.3345 4.2715,2.3045 4.211,2.3045 C4.1375,2.3045 4.0765,2.338 4.0015,2.4045 C3.9685,2.433 3.9145,2.4935 3.8185,2.4935 C3.7225,2.4935 3.632,2.534 3.533,2.6205 C3.226,2.888 2.9355,3.098 2.693,3.2275 C2.456,3.3535 2.4285,3.422 2.4285,3.463 C2.4285,3.5195 2.461,3.554 2.516,3.554 C2.5965,3.554 2.721,3.508 2.8415,3.462 C2.9395,3.4255 3.041,3.3875 3.0905,3.3875 C3.1015,3.3875 3.1025,3.3965 3.1025,3.398 C3.1025,3.413 3.0775,3.441 3.0575,3.4635 C3.0245,3.501 2.9905,3.5395 2.9905,3.585 C2.9905,3.624 3.019,3.663 3.083,3.663 C3.132,3.663 3.177,3.638 3.213,3.617 C3.2315,3.607 3.255,3.5935 3.28,3.579 L3.3155,3.559 C3.3605,3.533 3.4105,3.51 3.5155,3.51 C3.867,3.51 4.0275,3.3485 4.0275,3.1985 C4.0275,3.0575 3.8805,3.0105 3.75,2.9685 C3.6565,2.9385 3.568,2.91 3.568,2.8565 C3.568,2.8205 3.632,2.7835 3.754,2.7835 C3.9,2.7835 3.9985,2.8165 4.093,2.848 C4.174,2.8755 4.2495,2.9 4.344,2.9 C4.4045,2.9 4.4455,2.866 4.4455,2.8155 C4.4455,2.7785 4.432,2.7455 4.4185,2.715 C4.4055,2.684 4.392,2.651 4.392,2.6125 M4.363,4.02 C4.363,3.991 4.339,3.9665 4.31,3.9665 C4.2835,3.9665 4.272,3.9865 4.2655,3.9975 C4.256,4.014 4.244,4.0345 4.1715,4.0345 C4.1055,4.0345 4.057,4.0185 4.01,4.0035 C3.9685,3.99 3.93,3.977 3.8825,3.977 C3.7995,3.977 3.746,4.0015 3.714,4.02 C3.723,3.999 3.7265,3.9765 3.7155,3.958 C3.709,3.9475 3.696,3.9355 3.67,3.9355 C3.656,3.9355 3.6395,3.939 3.619,3.946 C3.5845,3.9565 3.5505,3.9695 3.521,3.981 C3.4725,3.999 3.428,4.0155 3.404,4.0155 C3.3995,4.0155 3.394,4.0145 3.39,4.013 C3.4,4.0015 3.421,3.9825 3.433,3.9745 C3.46,3.9525 3.4745,3.941 3.4745,3.9215 C3.4745,3.9005 3.458,3.885 3.4365,3.885 C3.42,3.885 3.4015,3.8945 3.3745,3.9075 C3.3165,3.9365 3.219,3.9845 3.0615,3.9845 C2.811,3.9845 2.6415,4.0335 2.492,4.077 C2.365,4.113 2.2445,4.1475 2.092,4.1475 C1.9255,4.1475 1.802,4.1105 1.7205,4.087 C1.7105,4.0835 1.701,4.08 1.692,4.077 C1.671,4.0695 1.6545,4.064 1.64,4.064 C1.6095,4.064 1.596,4.0835 1.596,4.1005 C1.596,4.1285 1.623,4.146 1.6545,4.166 L1.659,4.1695 C1.763,4.237 1.9825,4.292 2.148,4.292 C2.3605,4.292 2.4975,4.2655 2.6295,4.2405 C2.76,4.216 2.8825,4.192 3.0725,4.192 C3.2525,4.192 3.3565,4.163 3.4555,4.116 C3.4625,4.156 3.5205,4.156 3.577,4.156 C3.655,4.156 3.697,4.141 3.731,4.129 L3.743,4.124 C3.7525,4.122 3.7625,4.1175 3.7735,4.1135 C3.804,4.1005 3.8385,4.0865 3.885,4.0865 C3.908,4.0865 3.9315,4.092 3.961,4.0985 C4.008,4.109 4.073,4.124 4.176,4.124 C4.3495,4.1245 4.363,4.0445 4.363,4.02 M1.7835,3.8625 C1.7835,3.9495 1.9545,3.9985 2.062,3.9985 C2.2405,3.9985 2.4465,3.948 2.4465,3.8745 C2.4465,3.8435 2.4155,3.8365 2.3615,3.828 C2.3495,3.8255 2.324,3.819 2.3095,3.8105 C2.271,3.7845 2.2055,3.771 2.0955,3.771 C1.9585,3.7715 1.7835,3.7755 1.7835,3.8625 M6.21,4.3125 C6.21,4.386 5.9975,4.435 5.872,4.4395 C5.8085,4.4425 5.8155,4.4395 5.8805,4.418 C5.94,4.3985 6.0105,4.369 6.0105,4.307 C6.0105,4.2145 5.592,4.119 4.969,4.0895 C4.97,4.093 4.9715,4.0955 4.9725,4.098 C4.993,4.142 5.004,4.186 5.004,4.2215 C5.004,4.234 4.999,4.2455 4.99,4.253 L4.99,4.261 C5.0455,4.2745 5.0895,4.293 5.0895,4.3145 C5.0895,4.3415 5.0435,4.3695 4.9325,4.395 C4.847,4.415 4.7115,4.436 4.5515,4.4575 C4.686,4.4545 4.8805,4.438 4.9575,4.4265 C5.1555,4.3965 5.219,4.3595 5.219,4.3205 C5.219,4.288 5.18,4.258 5.109,4.2385 C5.048,4.222 5.048,4.2185 5.101,4.22 C5.207,4.224 5.3695,4.272 5.3695,4.333 C5.3695,4.464 4.8555,4.5255 3.107,4.5255 C1.3585,4.5255 0.845,4.464 0.845,4.333 C0.845,4.272 1.0075,4.224 1.113,4.22 C1.1655,4.2185 1.1655,4.222 1.1055,4.2385 C1.0345,4.258 0.9955,4.288 0.9955,4.3205 C0.9955,4.3595 1.059,4.3965 1.257,4.4265 C1.334,4.438 1.5285,4.455 1.663,4.4575 C1.503,4.436 1.3675,4.415 1.282,4.395 C1.1705,4.3695 1.125,4.3415 1.125,4.3145 C1.125,4.2985 1.151,4.2835 1.1875,4.272 C1.1825,4.264 1.1795,4.2555 1.1795,4.246 C1.1795,4.1865 1.2,4.1385 1.2245,4.09 C0.61,4.121 0.1985,4.215 0.1985,4.3065 C0.1985,4.3685 0.27,4.398 0.3295,4.4175 C0.394,4.439 0.402,4.442 0.338,4.439 C0.213,4.435 0,4.386 0,4.3125 C0,4.2 0.464,4.06 1.2525,4.0365 C1.2985,3.9435 1.3605,3.8185 1.3605,3.662 C1.3605,3.484 1.3415,3.4255 1.3205,3.358 C1.3095,3.323 1.2975,3.286 1.288,3.232 C1.28,3.1865 1.2745,3.139 1.2685,3.0935 C1.2575,3.0025 1.247,2.9165 1.2195,2.85 C1.213,2.8345 1.2075,2.8195 1.202,2.806 C1.1805,2.7525 1.1605,2.7005 1.1365,2.6845 C1.134,2.682 1.1315,2.6805 1.1295,2.6775 C1.0995,2.6555 1.082,2.622 1.082,2.5855 C1.082,2.5205 1.1345,2.468 1.1995,2.468 C1.242,2.468 1.2815,2.492 1.3025,2.53 C1.3035,2.5325 1.305,2.535 1.3065,2.5375 C1.3175,2.563 1.37,2.6285 1.4295,2.6285 C1.442,2.628 1.469,2.609 1.498,2.577 C1.4985,2.5745 1.5,2.573 1.5015,2.571 C1.549,2.516 1.601,2.425 1.601,2.313 C1.601,2.247 1.6005,2.218 1.5835,2.1665 C1.573,2.135 1.5745,2.108 1.5765,2.082 C1.578,2.057 1.58,2.03 1.572,1.9905 C1.546,1.8605 1.499,1.772 1.4445,1.7475 C1.4365,1.744 1.4305,1.7385 1.426,1.732 C1.4055,1.7125 1.395,1.687 1.395,1.6595 C1.395,1.6065 1.435,1.563 1.486,1.557 C1.4855,1.5555 1.485,1.5545 1.484,1.5525 C1.4775,1.5395 1.47,1.5235 1.4635,1.4965 C1.455,1.4595 1.455,1.4385 1.4545,1.4235 C1.4545,1.4145 1.4545,1.4105 1.453,1.4045 C1.4515,1.3975 1.449,1.392 1.446,1.3835 C1.441,1.371 1.435,1.356 1.4295,1.331 C1.423,1.3025 1.423,1.2815 1.423,1.2655 C1.423,1.2535 1.423,1.2455 1.421,1.237 C1.4155,1.219 1.414,1.216 1.3955,1.2095 C1.351,1.1915 1.3225,1.15 1.3225,1.103 C1.3225,1.04 1.374,0.9885 1.437,0.9885 C1.5,0.9885 1.5515,1.04 1.5515,1.103 C1.5515,1.1325 1.556,1.164 1.5645,1.196 C1.567,1.204 1.5705,1.2105 1.577,1.221 C1.5865,1.2355 1.597,1.2535 1.606,1.2825 C1.614,1.3075 1.6155,1.324 1.6165,1.3375 C1.617,1.3455 1.618,1.351 1.6195,1.357 C1.621,1.362 1.623,1.366 1.628,1.3735 C1.636,1.387 1.6475,1.405 1.659,1.4425 C1.6665,1.467 1.6695,1.4835 1.672,1.498 C1.674,1.5085 1.6755,1.5175 1.679,1.5295 C1.682,1.54 1.685,1.5505 1.688,1.561 C1.6925,1.5765 1.6975,1.5925 1.7015,1.6085 C1.702,1.6105 1.712,1.6495 1.712,1.689 C1.712,1.777 1.872,2.0145 1.9885,2.188 C2.0605,2.2945 2.1255,2.3765 2.1875,2.4375 C2.2545,2.5025 2.2965,2.5285 2.3715,2.5655 C2.455,2.607 2.4955,2.632 2.5235,2.6805 C2.531,2.694 2.547,2.7075 2.567,2.724 C2.576,2.732 2.5855,2.739 2.5955,2.749 C2.6675,2.813 2.6935,2.8665 2.704,2.9165 C2.716,2.9095 2.7295,2.9065 2.743,2.9065 C2.7565,2.9065 2.771,2.91 2.783,2.9165 C2.7295,2.9535 2.6775,2.987 2.6275,3.017 C2.626,3.0055 2.625,2.991 2.624,2.975 C2.6205,2.924 2.6115,2.8805 2.5375,2.814 C2.528,2.8055 2.519,2.798 2.511,2.7915 C2.4865,2.771 2.4635,2.7515 2.448,2.7245 C2.4335,2.6995 2.414,2.684 2.3335,2.644 C2.253,2.604 2.2015,2.5725 2.127,2.5 C2.0595,2.434 1.9925,2.3505 1.9165,2.2375 C1.858,2.151 1.8055,2.0715 1.7615,2.001 C1.737,1.9595 1.7105,1.9335 1.69,1.941 C1.6695,1.9485 1.666,1.9785 1.666,2.0385 C1.6665,2.057 1.6655,2.0725 1.6645,2.0865 C1.663,2.11 1.663,2.123 1.6675,2.138 C1.6885,2.2015 1.6895,2.2415 1.6895,2.312 C1.6895,2.4435 1.6285,2.5645 1.5585,2.639 C1.512,2.6935 1.487,2.78 1.487,2.889 C1.487,3.1415 1.674,3.263 1.8875,3.3005 C1.699,3.3325 1.538,3.328 1.431,3.293 C1.509,3.357 1.6585,3.3895 1.791,3.3895 L1.795,3.39 C2.125,3.3895 2.607,3.299 3.415,2.606 C3.637,2.4155 3.7995,2.258 3.9065,2.1535 C3.931,2.1305 3.952,2.11 3.97,2.0925 C4.1185,1.9505 4.1935,1.8455 4.2425,1.601 C4.2585,1.524 4.322,1.4705 4.3975,1.4705 C4.4495,1.4705 4.4925,1.5165 4.4925,1.5725 C4.4925,1.63 4.459,1.6665 4.418,1.7055 C4.378,1.744 4.3545,1.8095 4.3545,1.88 C4.3545,2.0435 4.4425,2.1565 4.584,2.183 C4.605,2.1865 4.6275,2.1885 4.651,2.1885 C4.804,2.1885 4.8845,2.086 4.939,1.9665 C4.889,2.039 4.806,2.0955 4.6705,2.0955 C4.625,2.0955 4.5905,2.085 4.5645,2.071 C4.7175,1.9875 4.8465,1.859 4.896,1.737 C4.9445,1.62 5.015,1.5105 5.09,1.4365 C5.124,1.4035 5.1345,1.377 5.1465,1.3515 C5.1585,1.326 5.169,1.3 5.1975,1.275 C5.22,1.2545 5.2595,1.211 5.2915,1.163 C5.3075,1.1395 5.319,1.1155 5.3295,1.0945 C5.341,1.0715 5.351,1.0515 5.364,1.0355 C5.3645,1.035 5.365,1.034 5.3655,1.0335 C5.3675,1.032 5.369,1.0305 5.371,1.029 C5.372,1.028 5.3735,1.0275 5.3735,1.027 C5.3815,1.021 5.389,1.017 5.3955,1.016 C5.403,1.0115 5.4135,1.007 5.427,1.007 C5.472,1.007 5.5095,1.044 5.5095,1.0895 C5.5095,1.1095 5.502,1.159 5.4325,1.1875 C5.403,1.1995 5.388,1.219 5.355,1.275 C5.347,1.288 5.339,1.3015 5.3295,1.3155 C5.318,1.333 5.3055,1.351 5.2945,1.372 C5.29,1.38 5.2865,1.3905 5.283,1.4025 C5.2785,1.416 5.274,1.43 5.2675,1.443 C5.2525,1.4725 5.236,1.491 5.2225,1.506 C5.2155,1.514 5.21,1.5205 5.206,1.527 C5.198,1.5395 5.196,1.5655 5.1955,1.582 C5.1915,1.6345 5.169,1.686 5.129,1.7725 C4.88,2.312 4.759,2.782 4.759,3.21 C4.759,3.554 4.8805,3.882 4.947,4.036 C5.741,4.0585 6.21,4.2 6.21,4.3125 M4.601,4.6265 C4.4255,4.6305 3.9345,4.6545 3.0985,4.6545 C2.2625,4.6545 1.77,4.6305 1.595,4.6265 C1.5385,4.625 1.5335,4.6365 1.5905,4.648 C1.7915,4.6865 2.438,4.7195 3.0985,4.7195 C3.759,4.7195 4.405,4.687 4.606,4.648 C4.6625,4.636 4.6575,4.625 4.601,4.6265 M4.2475,0.739 C4.3075,0.739 4.356,0.69 4.356,0.6305 C4.356,0.571 4.307,0.522 4.2475,0.522 C4.188,0.522 4.1395,0.5705 4.1395,0.6305 C4.1395,0.69 4.1875,0.739 4.2475,0.739 M3.912,1.1275 C3.9615,1.1275 4.001,1.088 4.001,1.039 C4.001,0.99 3.9615,0.95 3.912,0.95 C3.8635,0.95 3.824,0.99 3.824,1.039 C3.824,1.088 3.8635,1.1275 3.912,1.1275 M4.01,0.263 C4.0835,0.263 4.1415,0.204 4.1415,0.1315 C4.1415,0.059 4.0835,0 4.01,0 C3.9375,0 3.8795,0.059 3.8795,0.1315 C3.879,0.204 3.9375,0.263 4.01,0.263 M3.185,2.469 C3.244,2.4165 3.2735,2.3595 3.283,2.2795 C3.289,2.229 3.304,2.1865 3.3305,2.145 C3.377,2.0725 3.387,1.995 3.392,1.812 L3.3925,1.7825 C3.3975,1.589 3.3995,1.5625 3.438,1.507 C3.475,1.4545 3.4825,1.4165 3.469,1.339 C3.4655,1.315 3.4625,1.2875 3.4715,1.263 C3.4885,1.2145 3.5,1.195 3.518,1.2025 C3.54,1.212 3.5585,1.2305 3.545,1.284 C3.5225,1.369 3.5125,1.546 3.552,1.658 C3.5625,1.686 3.571,1.7105 3.571,1.738 C3.571,1.761 3.558,1.784 3.547,1.799 C3.505,1.856 3.4655,1.9955 3.4655,2.085 C3.4655,2.109 3.471,2.128 3.4765,2.147 C3.482,2.166 3.487,2.185 3.487,2.2135 C3.487,2.2755 3.4745,2.325 3.458,2.3695 C3.5015,2.3245 3.5565,2.262 3.5735,2.24 C3.574,2.231 3.5745,2.2225 3.5745,2.213 C3.5745,2.172 3.5665,2.1445 3.56,2.122 C3.556,2.1065 3.5525,2.096 3.5525,2.0845 C3.5525,2.009 3.5895,1.8885 3.6175,1.85 C3.645,1.8125 3.659,1.7745 3.659,1.737 C3.659,1.6945 3.646,1.6585 3.634,1.626 C3.6025,1.537 3.6095,1.379 3.6295,1.3045 C3.6505,1.222 3.6245,1.156 3.5565,1.123 C3.5405,1.1155 3.5405,1.115 3.5365,1.1025 C3.5325,1.088 3.5345,1.08 3.537,1.0645 C3.5395,1.0505 3.543,1.0335 3.541,1.0105 C3.5385,0.9775 3.523,0.9575 3.5135,0.945 C3.5135,0.944 3.5125,0.943 3.512,0.9425 C3.5145,0.935 3.519,0.924 3.519,0.909 C3.519,0.897 3.5165,0.8875 3.5145,0.88 C3.513,0.8725 3.513,0.8725 3.5135,0.8705 C3.514,0.8675 3.5195,0.859 3.5235,0.853 C3.5375,0.83 3.557,0.7985 3.557,0.759 C3.557,0.712 3.5185,0.673 3.471,0.673 C3.4235,0.673 3.386,0.712 3.386,0.759 C3.386,0.8365 3.3765,0.864 3.371,0.8805 C3.3675,0.891 3.3645,0.901 3.3645,0.914 C3.3645,0.9325 3.371,0.9455 3.375,0.9535 C3.37,0.9655 3.3615,0.985 3.3615,1.019 C3.3615,1.0505 3.372,1.0765 3.382,1.0995 C3.392,1.1225 3.4005,1.142 3.4005,1.168 C3.4005,1.1935 3.3955,1.211 3.3885,1.233 C3.3725,1.2765 3.3775,1.32 3.3825,1.3525 C3.393,1.414 3.3865,1.4275 3.366,1.4565 C3.3105,1.5355 3.3095,1.5875 3.304,1.7795 L3.3035,1.809 C3.299,1.9865 3.2895,2.046 3.2565,2.097 C3.223,2.1495 3.2035,2.204 3.1955,2.268 C3.1885,2.327 3.169,2.3645 3.126,2.4025 C3.031,2.4865 3.0065,2.554 2.9215,2.8175 C2.9615,2.7875 3.0025,2.7565 3.0445,2.7235 C3.098,2.567 3.1225,2.524 3.185,2.469 M2.748,1.6645 C2.803,1.6645 2.848,1.6195 2.848,1.564 C2.848,1.5085 2.803,1.464 2.748,1.464 C2.693,1.464 2.648,1.509 2.648,1.564 C2.648,1.619 2.693,1.6645 2.748,1.6645 M3.367,0.4455 C3.367,0.3855 3.416,0.3365 3.4765,0.3365 C3.5365,0.3365 3.586,0.3855 3.586,0.4455 C3.586,0.506 3.5365,0.5545 3.4765,0.5545 C3.4165,0.5545 3.367,0.5065 3.367,0.4455" id="Fill-45"></path>
            </g>
        </g>
    </g>
</svg>