<?xml version="1.0" encoding="UTF-8" standalone="no"?>
<svg width="16px" height="16px" viewBox="0 0 16 16" version="1.1" xmlns="http://www.w3.org/2000/svg" xmlns:xlink="http://www.w3.org/1999/xlink">
    <!-- Generator: Sketch 3.7.2 (28276) - http://www.bohemiancoding.com/sketch -->
    <title>Royal Greenwich Festivals</title>
    <desc>Created with Sketch.</desc>
    <defs>
        <polygon id="path-1" points="1.75565625 0.264375 0.48065625 0.264375 0.48065625 1.72959375 1.75565625 1.72959375 1.75565625 0.264375"></polygon>
        <polygon id="path-3" points="0.2143125 0.9375 0.9375 0.9375 0.9375 0.08409375 0.2143125 0.08409375 0.2143125 0.9375"></polygon>
        <polygon id="path-5" points="0.9375 1.67746875 0.9375 0.25621875 0.2143125 0.25621875 0.2143125 1.67746875 0.9375 1.67746875"></polygon>
        <polygon id="path-7" points="0.9375 2.75690625 0.9375 0.30440625 0.2145 0.30440625 0.2145 2.75690625 0.9375 2.75690625"></polygon>
    </defs>
    <g id="Page-1" stroke="none" stroke-width="1" fill="none" fill-rule="evenodd">
        <g id="Royal-Greenwich-Festivals">
            <g transform="translate(1.000000, 4.500000)">
                <path d="M5.934375,1.20868125 C5.934375,1.20211875 5.9353125,1.19743125 5.93625,1.19555625 C5.938125,1.19555625 5.9409375,1.19461875 5.945625,1.19461875 L6.2896875,1.19461875 C6.4153125,1.19461875 6.4734375,1.25086875 6.4734375,1.37180625 C6.4734375,1.48430625 6.40125,1.55180625 6.2803125,1.55180625 L5.934375,1.55180625 L5.934375,1.20868125 Z M5.8115625,2.38618125 C5.8846875,2.38618125 5.934375,2.33836875 5.934375,2.26899375 L5.934375,1.78243125 L6.2015625,1.78243125 C6.33,1.78243125 6.3703125,1.85649375 6.49875,2.20430625 L6.5409375,2.31305625 C6.55875,2.35899375 6.6,2.38618125 6.6496875,2.38618125 C6.665625,2.38618125 6.6834375,2.38336875 6.6975,2.37961875 C6.7528125,2.36555625 6.7884375,2.32243125 6.7884375,2.26899375 C6.7884375,2.25493125 6.785625,2.24086875 6.7790625,2.22305625 L6.7378125,2.12368125 C6.6384375,1.87430625 6.5859375,1.75711875 6.5203125,1.69149375 C6.65625,1.63055625 6.7275,1.51149375 6.7275,1.34836875 C6.7275,1.10743125 6.5671875,0.96305625 6.3,0.96305625 L5.9034375,0.96305625 C5.758125,0.96305625 5.685,1.03993125 5.685,1.19180625 L5.685,2.26805625 C5.685,2.33836875 5.735625,2.38618125 5.8115625,2.38618125 L5.8115625,2.38618125 Z" id="Fill-1" fill="#000000"></path>
                <g id="Group-5" transform="translate(6.562500, 0.673369)">
                    <mask id="mask-2" fill="white">
                        <use xlink:href="#path-1"></use>
                    </mask>
                    <g id="Clip-4"></g>
                    <path d="M1.12003125,0.50053125 C1.34878125,0.50053125 1.49690625,0.69178125 1.49690625,0.98615625 C1.49690625,1.30209375 1.35628125,1.49053125 1.12003125,1.49053125 C0.88565625,1.49053125 0.74034375,1.30115625 0.74034375,0.99646875 C0.74034375,0.69084375 0.88565625,0.50053125 1.12003125,0.50053125 M1.12003125,1.72959375 C1.50628125,1.72959375 1.75565625,1.44178125 1.75565625,0.99740625 C1.75565625,0.55209375 1.50628125,0.26428125 1.12003125,0.26428125 C0.73190625,0.26428125 0.48065625,0.55115625 0.48065625,0.99459375 C0.48065625,1.44178125 0.73284375,1.72959375 1.12003125,1.72959375" id="Fill-3" fill="#000000" mask="url(#mask-2)"></path>
                </g>
                <path d="M8.941125,1.80099375 L8.941125,2.27068125 C8.941125,2.34005625 8.9926875,2.38599375 9.068625,2.38599375 C9.14175,2.38599375 9.1933125,2.33911875 9.1933125,2.27068125 L9.1933125,1.80099375 L9.6320625,1.14193125 C9.646125,1.12411875 9.653625,1.10068125 9.653625,1.07818125 C9.653625,1.03411875 9.6264375,0.99286875 9.58425,0.97036875 C9.5608125,0.95724375 9.5383125,0.95068125 9.514875,0.95068125 C9.4745625,0.95068125 9.4389375,0.97130625 9.417375,1.00693125 L9.068625,1.55161875 L8.7189375,1.00693125 C8.6955,0.97130625 8.659875,0.95068125 8.6195625,0.95068125 C8.59425,0.95068125 8.5726875,0.96005625 8.553,0.96849375 L8.551125,0.96943125 C8.506125,0.99474375 8.479875,1.03505625 8.479875,1.07818125 C8.479875,1.09786875 8.4855,1.11568125 8.498625,1.13818125 L8.941125,1.80099375 Z" id="Fill-6" fill="#000000"></path>
                <path d="M10.2643125,1.32549375 C10.2680625,1.31611875 10.2718125,1.30674375 10.274625,1.29736875 C10.278375,1.30580625 10.2811875,1.31424375 10.2849375,1.32361875 L10.4499375,1.75486875 L10.0965,1.75486875 L10.2643125,1.32549375 Z M9.6436875,2.26580625 C9.6436875,2.31736875 9.682125,2.36611875 9.7355625,2.37924375 C9.7515,2.38299375 9.7655625,2.38580625 9.7815,2.38580625 C9.8330625,2.38580625 9.8743125,2.35674375 9.8911875,2.30893125 L10.0111875,1.98830625 L10.5343125,1.98830625 L10.657125,2.30986875 C10.6749375,2.35768125 10.717125,2.38768125 10.7705625,2.38768125 C10.7836875,2.38768125 10.7986875,2.38486875 10.810875,2.38111875 C10.8680625,2.36611875 10.9074375,2.32111875 10.9074375,2.26861875 C10.9074375,2.25174375 10.9036875,2.23674375 10.897125,2.22361875 L10.435875,1.06111875 C10.4086875,0.99080625 10.3515,0.95236875 10.27275,0.95236875 C10.195875,0.95236875 10.1405625,0.98893125 10.1143125,1.06018125 L9.6511875,2.22268125 C9.6465,2.23861875 9.6436875,2.25174375 9.6436875,2.26580625 L9.6436875,2.26580625 Z" id="Fill-8" fill="#000000"></path>
                <path d="M11.416125,2.3754 L12.0676875,2.3754 C12.1333125,2.3754 12.1820625,2.3229 12.1820625,2.2525875 C12.1820625,2.182275 12.13425,2.1325875 12.0676875,2.1325875 L11.46675,2.1325875 C11.4508125,2.1325875 11.4508125,2.1307125 11.4508125,2.118525 L11.4508125,1.0694625 C11.4508125,1.0000875 11.401125,0.9532125 11.32425,0.9532125 C11.2483125,0.9532125 11.1976875,1.0000875 11.1976875,1.0713375 L11.1976875,2.1494625 C11.19675,2.2994625 11.2708125,2.3754 11.416125,2.3754" id="Fill-10" fill="#000000"></path>
                <path d="M1.00059375,3.5557125 L0.72778125,3.5557125 C0.66121875,3.5557125 0.61434375,3.6044625 0.61434375,3.674775 C0.61434375,3.7450875 0.66028125,3.7919625 0.72778125,3.7919625 L0.94809375,3.787275 C0.94809375,3.7882125 0.94903125,3.791025 0.94903125,3.794775 L0.94903125,3.8313375 C0.94903125,4.01415 0.79621875,4.1107125 0.64434375,4.1107125 C0.40809375,4.1107125 0.26090625,3.9213375 0.26090625,3.6175875 C0.26090625,3.3129 0.40528125,3.123525 0.63778125,3.123525 C0.77278125,3.123525 0.86090625,3.1788375 0.91528125,3.2979 C0.93590625,3.344775 0.97528125,3.371025 1.02590625,3.371025 C1.04934375,3.371025 1.07090625,3.3644625 1.08403125,3.359775 C1.13465625,3.341025 1.16653125,3.2979 1.16653125,3.24915 C1.16653125,3.228525 1.16278125,3.21165 1.15340625,3.194775 C1.09903125,3.078525 0.96028125,2.8854 0.63496875,2.8854 C0.25528125,2.8854 0.00028125,3.1788375 0.00028125,3.61665 C0.00028125,4.0619625 0.25153125,4.3488375 0.64059375,4.3488375 C0.75403125,4.3488375 0.86653125,4.312275 0.95090625,4.2475875 C0.95559375,4.3075875 1.00246875,4.346025 1.06903125,4.346025 C1.13934375,4.346025 1.18528125,4.3000875 1.18528125,4.2269625 L1.18528125,3.7488375 C1.18528125,3.6204 1.12340625,3.5557125 1.00059375,3.5557125" id="Fill-12" fill="#000000"></path>
                <path d="M2.11640625,3.49955625 L1.77234375,3.49955625 L1.77234375,3.15643125 C1.77234375,3.14893125 1.77234375,3.14518125 1.77328125,3.14424375 C1.77421875,3.14330625 1.77796875,3.14236875 1.78265625,3.14236875 L2.12671875,3.14236875 C2.25328125,3.14236875 2.31046875,3.19674375 2.31046875,3.31955625 C2.31046875,3.43205625 2.23828125,3.49955625 2.11640625,3.49955625 L2.11640625,3.49955625 Z M2.57390625,4.07143125 C2.47546875,3.82111875 2.42296875,3.70393125 2.35734375,3.63924375 C2.49234375,3.57736875 2.56359375,3.45924375 2.56359375,3.29611875 C2.56359375,3.05424375 2.40421875,2.91080625 2.13703125,2.91080625 L1.73953125,2.91080625 C1.59515625,2.91080625 1.52109375,2.98768125 1.52109375,3.13955625 L1.52109375,4.21580625 C1.52109375,4.28705625 1.57265625,4.33393125 1.64859375,4.33393125 C1.72171875,4.33393125 1.77234375,4.28611875 1.77234375,4.21674375 L1.77234375,3.73018125 L2.03859375,3.73018125 C2.16703125,3.73018125 2.20734375,3.80424375 2.33578125,4.15205625 L2.37796875,4.26080625 C2.39578125,4.30674375 2.43609375,4.33393125 2.48671875,4.33393125 C2.50359375,4.33393125 2.52140625,4.33111875 2.53453125,4.32736875 C2.58890625,4.31424375 2.62546875,4.27018125 2.62546875,4.21674375 C2.62546875,4.20268125 2.62265625,4.18861875 2.61609375,4.17080625 L2.57390625,4.07143125 Z" id="Fill-14" fill="#000000"></path>
                <path d="M3.7955625,4.0844625 L3.1880625,4.0844625 C3.1749375,4.0844625 3.172125,4.0825875 3.17025,4.0769625 L3.17025,3.7038375 L3.7036875,3.7038375 C3.7674375,3.7038375 3.81525,3.65415 3.81525,3.58665 C3.81525,3.517275 3.7693125,3.468525 3.7036875,3.468525 L3.17025,3.468525 L3.17025,3.1629 C3.17025,3.15915 3.17025,3.1554 3.1711875,3.1525875 L3.1711875,3.149775 C3.1730625,3.149775 3.1768125,3.1488375 3.183375,3.1488375 L3.779625,3.1488375 C3.8461875,3.1488375 3.8930625,3.1000875 3.8930625,3.0288375 C3.8930625,2.9594625 3.847125,2.909775 3.779625,2.909775 L3.1393125,2.909775 C2.994,2.909775 2.9199375,2.9875875 2.9199375,3.1394625 L2.9199375,4.09665 C2.9199375,4.24665 2.994,4.323525 3.1393125,4.323525 L3.7955625,4.323525 C3.8611875,4.323525 3.909,4.2729 3.909,4.203525 C3.909,4.1332125 3.862125,4.0844625 3.7955625,4.0844625" id="Fill-16" fill="#000000"></path>
                <path d="M5.0998125,4.0844625 L4.4923125,4.0844625 C4.4810625,4.0844625 4.4773125,4.0825875 4.4745,4.076025 L4.4745,3.7038375 L5.0079375,3.7038375 C5.0716875,3.7038375 5.1195,3.65415 5.1195,3.58665 C5.1195,3.517275 5.0735625,3.468525 5.0079375,3.468525 L4.4745,3.468525 L4.4745,3.1629 C4.4745,3.157275 4.4754375,3.153525 4.4754375,3.1525875 L4.476375,3.149775 C4.47825,3.149775 4.4810625,3.1488375 4.487625,3.1488375 L5.083875,3.1488375 C5.1504375,3.1488375 5.1973125,3.1000875 5.1973125,3.0288375 C5.1973125,2.9594625 5.151375,2.909775 5.083875,2.909775 L4.442625,2.909775 C4.29825,2.909775 4.2241875,2.9875875 4.2241875,3.1394625 L4.2241875,4.09665 C4.2241875,4.24665 4.29825,4.323525 4.442625,4.323525 L5.0998125,4.323525 C5.1645,4.323525 5.2123125,4.2729 5.2123125,4.203525 C5.2123125,4.1332125 5.166375,4.0844625 5.0998125,4.0844625" id="Fill-18" fill="#000000"></path>
                <path d="M6.52940625,2.90049375 C6.45346875,2.90049375 6.40284375,2.94643125 6.40284375,3.01580625 L6.40284375,3.52955625 C6.40284375,3.67205625 6.40940625,3.80893125 6.41409375,3.90268125 C6.37284375,3.82768125 6.33159375,3.75455625 6.29690625,3.69736875 L5.86846875,3.00361875 C5.83565625,2.95111875 5.79534375,2.90049375 5.69315625,2.90049375 C5.60221875,2.90049375 5.54034375,2.96049375 5.54034375,3.04861875 L5.54034375,4.21955625 C5.54034375,4.28705625 5.59284375,4.33486875 5.66690625,4.33486875 C5.74096875,4.33486875 5.79253125,4.28705625 5.79253125,4.21955625 L5.79253125,3.69830625 C5.79253125,3.54924375 5.78690625,3.41518125 5.78315625,3.32518125 C5.81690625,3.38893125 5.84878125,3.44518125 5.87596875,3.48830625 L6.32596875,4.21580625 C6.36815625,4.28236875 6.40753125,4.33486875 6.50690625,4.33486875 C6.59596875,4.33486875 6.65409375,4.27393125 6.65409375,4.18205625 L6.65409375,3.01580625 C6.65596875,2.94643125 6.60440625,2.90049375 6.52940625,2.90049375" id="Fill-20" fill="#000000"></path>
                <path d="M7.425,4.33355625 C7.505625,4.33355625 7.5609375,4.29230625 7.580625,4.21824375 L7.783125,3.45043125 C7.7896875,3.42605625 7.7953125,3.39886875 7.801875,3.36886875 C7.8084375,3.40074375 7.8140625,3.42886875 7.820625,3.45418125 L8.01375,4.21543125 C8.0325,4.29043125 8.08875,4.33355625 8.169375,4.33355625 C8.2490625,4.33355625 8.30625,4.29136875 8.326875,4.21918125 L8.660625,3.04261875 C8.6625,3.03418125 8.664375,3.02386875 8.664375,3.01168125 C8.664375,2.95636875 8.6240625,2.91418125 8.559375,2.90386875 C8.54625,2.90011875 8.5340625,2.90011875 8.5265625,2.90011875 C8.465625,2.90011875 8.4234375,2.93105625 8.4065625,2.98824375 L8.191875,3.79449375 C8.1871875,3.81511875 8.180625,3.84230625 8.1740625,3.87418125 C8.1684375,3.84136875 8.161875,3.81418125 8.15625,3.79261875 L7.9546875,3.01074375 C7.936875,2.94136875 7.8815625,2.90011875 7.80375,2.90011875 C7.76625,2.90011875 7.6753125,2.91136875 7.6490625,3.00886875 L7.4475,3.79074375 C7.4409375,3.81324375 7.43625,3.83949375 7.4296875,3.86949375 C7.4221875,3.83668125 7.4175,3.81043125 7.4109375,3.78886875 L7.2,2.98918125 C7.1859375,2.93386875 7.141875,2.90011875 7.081875,2.90011875 C7.0715625,2.90011875 7.06125,2.90011875 7.051875,2.90293125 C6.9825,2.91418125 6.9421875,2.95543125 6.9421875,3.01355625 C6.9421875,3.02386875 6.945,3.03699375 6.946875,3.05011875 L7.2675,4.21636875 C7.288125,4.29136875 7.34625,4.33355625 7.425,4.33355625" id="Fill-22" fill="#000000"></path>
                <path d="M9.08353125,2.90049375 C9.00946875,2.90049375 8.95790625,2.94830625 8.95790625,3.01580625 L8.95790625,4.21861875 C8.95790625,4.28611875 9.00946875,4.33393125 9.08353125,4.33393125 C9.15946875,4.33393125 9.21196875,4.28705625 9.21196875,4.21861875 L9.21196875,3.01580625 C9.21196875,2.94643125 9.16040625,2.90049375 9.08353125,2.90049375" id="Fill-24" fill="#000000"></path>
                <path d="M10.1856563,3.12380625 C10.3675313,3.12380625 10.4331563,3.22318125 10.4734688,3.32068125 C10.4950313,3.36474375 10.5362813,3.39005625 10.5869063,3.39005625 C10.6065938,3.39005625 10.6253438,3.38630625 10.6412813,3.38068125 C10.6825313,3.36661875 10.7247188,3.32724375 10.7247188,3.27005625 C10.7247188,3.25130625 10.7209688,3.23349375 10.7153438,3.21849375 C10.6525313,3.06661875 10.5090938,2.88474375 10.1790938,2.88474375 C9.80128125,2.88474375 9.54815625,3.17911875 9.54815625,3.61599375 C9.54815625,4.06130625 9.79940625,4.35005625 10.1903438,4.35005625 C10.5465938,4.35099375 10.6853438,4.10724375 10.7378438,3.96099375 C10.7425313,3.94693125 10.7453437,3.93286875 10.7453437,3.91786875 C10.7453437,3.85974375 10.6975313,3.81755625 10.6534688,3.80724375 C10.6375313,3.80255625 10.6225313,3.79974375 10.6075313,3.79974375 C10.5512813,3.79974375 10.5062813,3.83161875 10.4875312,3.88411875 C10.4387813,4.03411875 10.3365938,4.11005625 10.1856563,4.11005625 C9.95690625,4.11005625 9.80878125,3.91786875 9.80878125,3.61786875 C9.80878125,3.31318125 9.95315625,3.12380625 10.1856563,3.12380625" id="Fill-26" fill="#000000"></path>
                <path d="M11.285625,4.21843125 L11.285625,3.70186875 L11.9175,3.70186875 L11.9175,4.21843125 C11.9175,4.28593125 11.9709375,4.33374375 12.0478125,4.33374375 C12.1209375,4.33374375 12.1715625,4.28686875 12.1715625,4.21843125 L12.1715625,3.01561875 C12.1715625,2.94811875 12.1209375,2.90030625 12.0478125,2.90030625 C11.97,2.90030625 11.9175,2.94624375 11.9175,3.01561875 L11.9175,3.46374375 L11.285625,3.46374375 L11.285625,3.01561875 C11.285625,2.94811875 11.233125,2.90030625 11.158125,2.90030625 C11.0821875,2.90030625 11.0325,2.94624375 11.0325,3.01561875 L11.0325,4.21843125 C11.0325,4.28593125 11.0840625,4.33374375 11.158125,4.33374375 C11.233125,4.33374375 11.285625,4.28593125 11.285625,4.21843125" id="Fill-28" fill="#000000"></path>
                <path d="M2.3765625,4.85874375 L1.7025,4.85874375 C1.55625,4.85874375 1.4840625,4.93280625 1.4840625,5.08561875 L1.4840625,6.16280625 C1.4840625,6.23218125 1.535625,6.28093125 1.6096875,6.28093125 C1.68375,6.28093125 1.73625,6.23311875 1.73625,6.16468125 L1.73625,5.66218125 L2.2809375,5.66218125 C2.345625,5.66218125 2.3925,5.61249375 2.3925,5.54499375 C2.3925,5.47468125 2.3475,5.42686875 2.2809375,5.42686875 L1.73625,5.42686875 L1.73625,5.10530625 C1.73625,5.09968125 1.7371875,5.09780625 1.7371875,5.09686875 C1.7371875,5.09686875 1.7390625,5.09593125 1.74375,5.09593125 L2.3765625,5.09593125 C2.4440625,5.09593125 2.4909375,5.04718125 2.4909375,4.97686875 C2.4909375,4.90655625 2.4440625,4.85874375 2.3765625,4.85874375" id="Fill-30" fill="#000000"></path>
                <path d="M3.653625,6.03211875 L3.046125,6.03211875 C3.033,6.03211875 3.0301875,6.03024375 3.0283125,6.02461875 L3.0283125,5.65149375 L3.56175,5.65149375 C3.6255,5.65149375 3.67425,5.60086875 3.67425,5.53430625 C3.67425,5.46493125 3.6283125,5.41618125 3.56175,5.41618125 L3.02925,5.41618125 L3.02925,5.11055625 C3.02925,5.10586875 3.02925,5.10211875 3.0301875,5.09836875 L3.0301875,5.09743125 C3.033,5.09649375 3.03675,5.09649375 3.0414375,5.09649375 L3.638625,5.09649375 C3.7051875,5.09649375 3.7520625,5.04774375 3.7520625,4.97743125 C3.7520625,4.90711875 3.7051875,4.85836875 3.638625,4.85836875 L2.997375,4.85836875 C2.8520625,4.85836875 2.7789375,4.93524375 2.7789375,5.08711875 L2.7789375,6.04430625 C2.7789375,6.19430625 2.8520625,6.27118125 2.997375,6.27118125 L3.653625,6.27118125 C3.71925,6.27118125 3.7670625,6.22055625 3.7670625,6.15118125 C3.7670625,6.08180625 3.721125,6.03211875 3.653625,6.03211875" id="Fill-32" fill="#000000"></path>
                <path d="M4.67840625,5.43305625 L4.55278125,5.40680625 C4.37184375,5.37118125 4.34090625,5.32149375 4.34090625,5.22961875 C4.34090625,5.12743125 4.43278125,5.06461875 4.58184375,5.06461875 C4.71684375,5.06461875 4.79371875,5.11618125 4.82653125,5.22680625 L4.82653125,5.22774375 C4.84528125,5.27555625 4.88934375,5.30555625 4.94371875,5.30555625 C4.95684375,5.30555625 4.96996875,5.30368125 4.98121875,5.30086875 C5.03934375,5.28961875 5.08059375,5.24368125 5.08059375,5.18836875 C5.08059375,5.17430625 5.07778125,5.16118125 5.07309375,5.15086875 C5.03653125,5.03180625 4.92403125,4.83305625 4.58184375,4.83305625 C4.21528125,4.83305625 4.08496875,5.04680625 4.08496875,5.22961875 C4.08496875,5.46493125 4.20309375,5.58586875 4.49090625,5.64493125 L4.62778125,5.67305625 C4.83215625,5.71524375 4.86778125,5.77055625 4.86778125,5.86993125 C4.86778125,5.98993125 4.76465625,6.06399375 4.59965625,6.06399375 C4.38309375,6.06399375 4.33809375,5.96461875 4.30903125,5.85493125 C4.29403125,5.80430625 4.24715625,5.77149375 4.19090625,5.77149375 C4.17871875,5.77149375 4.16934375,5.77336875 4.15059375,5.77618125 C4.08965625,5.79118125 4.05121875,5.83618125 4.05121875,5.89243125 C4.05121875,5.90274375 4.05309375,5.91211875 4.05684375,5.92618125 L4.05684375,5.92711875 C4.08871875,6.03868125 4.16559375,6.29836875 4.60715625,6.29836875 C4.92121875,6.29836875 5.12371875,6.12961875 5.12371875,5.86899375 C5.12371875,5.58493125 4.94653125,5.48930625 4.67840625,5.43305625" id="Fill-34" fill="#000000"></path>
                <path d="M6.30965625,4.85874375 L5.37496875,4.85874375 C5.31215625,4.85874375 5.26434375,4.91030625 5.26434375,4.97968125 C5.26434375,5.04811875 5.31121875,5.09780625 5.37590625,5.09780625 L5.71621875,5.09780625 L5.71621875,6.16655625 C5.71621875,6.23405625 5.76871875,6.28093125 5.84278125,6.28093125 C5.91778125,6.28093125 5.96934375,6.23405625 5.96934375,6.16655625 L5.96934375,5.09780625 L6.30965625,5.09780625 C6.37153125,5.09780625 6.41934375,5.04718125 6.41934375,4.97968125 C6.41934375,4.91030625 6.37246875,4.85874375 6.30965625,4.85874375" id="Fill-36" fill="#000000"></path>
                <path d="M6.81459375,4.84861875 C6.74053125,4.84861875 6.68896875,4.89549375 6.68896875,4.96393125 L6.68896875,6.16580625 C6.68896875,6.23330625 6.74053125,6.28111875 6.81459375,6.28111875 C6.89053125,6.28111875 6.94303125,6.23424375 6.94303125,6.16580625 L6.94303125,4.96393125 C6.94303125,4.89455625 6.89146875,4.84861875 6.81459375,4.84861875" id="Fill-38" fill="#000000"></path>
                <path d="M8.353125,4.85218125 L8.35125,4.85218125 C8.34,4.85030625 8.326875,4.84843125 8.315625,4.84843125 C8.259375,4.84843125 8.21625,4.87749375 8.1984375,4.92811875 L7.869375,5.85624375 C7.86375,5.87311875 7.858125,5.89186875 7.8525,5.91155625 C7.8459375,5.89093125 7.8403125,5.87218125 7.8346875,5.85718125 L7.50375,4.92624375 C7.486875,4.87655625 7.4428125,4.84655625 7.3884375,4.84655625 C7.374375,4.84655625 7.359375,4.84843125 7.3471875,4.85311875 C7.29,4.86624375 7.24875,4.91405625 7.24875,4.96936875 C7.24875,4.98249375 7.2525,4.99936875 7.2571875,5.01155625 L7.693125,6.17405625 C7.719375,6.24436875 7.7746875,6.28093125 7.8515625,6.28093125 C7.9265625,6.28093125 7.9809375,6.24436875 8.0071875,6.17593125 L8.445,5.00968125 C8.450625,4.99561875 8.4525,4.98155625 8.4525,4.96749375 C8.4534375,4.91405625 8.415,4.86999375 8.353125,4.85218125" id="Fill-40" fill="#000000"></path>
                <path d="M8.91253125,5.65018125 L9.08128125,5.22080625 C9.08409375,5.21143125 9.08784375,5.20205625 9.09159375,5.19268125 C9.09440625,5.20111875 9.09721875,5.20955625 9.10096875,5.21893125 L9.26596875,5.65018125 L8.91253125,5.65018125 Z M9.25190625,4.95643125 C9.22471875,4.88705625 9.16753125,4.84861875 9.08971875,4.84861875 C9.01190625,4.84861875 8.95659375,4.88518125 8.93034375,4.95549375 L8.46815625,6.11799375 C8.46253125,6.13299375 8.46065625,6.14611875 8.46065625,6.16111875 C8.46065625,6.21361875 8.49909375,6.26143125 8.55253125,6.27455625 C8.56659375,6.27924375 8.58159375,6.28205625 8.59753125,6.28205625 C8.65003125,6.28205625 8.69128125,6.25299375 8.70815625,6.20424375 L8.82721875,5.88361875 L9.35128125,5.88361875 L9.47409375,6.20518125 C9.49190625,6.25299375 9.53503125,6.28299375 9.58659375,6.28299375 C9.60065625,6.28299375 9.61471875,6.28018125 9.62784375,6.27643125 C9.68503125,6.26236875 9.72346875,6.21643125 9.72346875,6.16393125 C9.72346875,6.14705625 9.72065625,6.13205625 9.71409375,6.11893125 L9.25190625,4.95643125 Z" id="Fill-42" fill="#000000"></path>
                <path d="M10.8435,6.0277125 L10.2425625,6.0277125 C10.226625,6.0277125 10.226625,6.0249 10.226625,6.01365 L10.226625,4.965525 C10.226625,4.8952125 10.176,4.8483375 10.1000625,4.8483375 C10.0250625,4.8483375 9.9735,4.8952125 9.9735,4.9664625 L9.9735,6.04365 C9.9735,6.195525 10.046625,6.270525 10.1919375,6.270525 L10.8435,6.270525 C10.909125,6.270525 10.957875,6.218025 10.957875,6.1477125 C10.957875,6.0774 10.9100625,6.0277125 10.8435,6.0277125" id="Fill-44" fill="#000000"></path>
                <path d="M11.7698437,5.43305625 L11.6442188,5.40680625 C11.4632812,5.37118125 11.4314063,5.32149375 11.4314063,5.22961875 C11.4314063,5.12743125 11.5242187,5.06461875 11.6732813,5.06461875 C11.8082813,5.06461875 11.8860938,5.11618125 11.9170313,5.22680625 L11.9179688,5.22774375 C11.9357812,5.27555625 11.9798438,5.30555625 12.0351562,5.30555625 C12.0482813,5.30555625 12.0614063,5.30368125 12.0726563,5.30086875 C12.1307813,5.28961875 12.1720312,5.24368125 12.1720312,5.18836875 C12.1720312,5.17430625 12.1692188,5.16118125 12.1645312,5.15086875 C12.1279688,5.03180625 12.0164062,4.83305625 11.6732813,4.83305625 C11.3067187,4.83305625 11.1764063,5.04680625 11.1764063,5.22961875 C11.1764063,5.46493125 11.2945313,5.58586875 11.5823438,5.64493125 L11.7192187,5.67305625 C11.9235938,5.71524375 11.9592187,5.77055625 11.9592187,5.86993125 C11.9592187,5.98993125 11.8560938,6.06399375 11.6910938,6.06399375 C11.4745313,6.06399375 11.4295313,5.96461875 11.4004687,5.85493125 C11.3854688,5.80430625 11.3395313,5.77149375 11.2823438,5.77149375 C11.2710938,5.77149375 11.2607813,5.77336875 11.2410938,5.77618125 C11.1810938,5.79118125 11.1426562,5.83618125 11.1426562,5.89243125 C11.1426562,5.90274375 11.1445312,5.91211875 11.1482813,5.92618125 L11.1482813,5.92711875 C11.1810938,6.03774375 11.2579688,6.29743125 11.6995313,6.29743125 C12.0135938,6.29743125 12.2160938,6.12961875 12.2160938,5.86805625 C12.2151562,5.58493125 12.0370313,5.48930625 11.7698437,5.43305625" id="Fill-46" fill="#000000"></path>
                <g id="Group-50" transform="translate(13.125000, 5.360869)">
                    <mask id="mask-4" fill="white">
                        <use xlink:href="#path-3"></use>
                    </mask>
                    <g id="Clip-49"></g>
                    <path d="M0.7880625,0.08409375 L0.363375,0.08409375 C0.280875,0.08409375 0.2143125,0.14971875 0.2143125,0.23221875 L0.2143125,0.73846875 C0.2143125,0.81815625 0.280875,0.88471875 0.363375,0.88471875 L0.7880625,0.88471875 C0.869625,0.88471875 0.937125,0.81815625 0.937125,0.73846875 L0.937125,0.23221875 C0.937125,0.14878125 0.869625,0.08409375 0.7880625,0.08409375" id="Fill-48" fill="#000000" mask="url(#mask-4)"></path>
                </g>
                <g id="Group-53" transform="translate(13.125000, 3.485869)">
                    <mask id="mask-6" fill="white">
                        <use xlink:href="#path-5"></use>
                    </mask>
                    <g id="Clip-52"></g>
                    <path d="M0.7880625,0.25621875 L0.363375,0.25621875 C0.280875,0.25621875 0.2143125,0.32090625 0.2143125,0.40059375 L0.2143125,0.95934375 C0.2143125,0.96121875 0.2161875,0.96215625 0.2161875,0.96403125 C0.2161875,0.96778125 0.2143125,0.97059375 0.2143125,0.97340625 L0.2143125,1.52934375 C0.2143125,1.61184375 0.280875,1.67746875 0.363375,1.67746875 L0.7880625,1.67746875 C0.869625,1.67746875 0.937125,1.61184375 0.937125,1.52934375 L0.937125,0.97340625 C0.937125,0.97153125 0.9361875,0.96871875 0.9361875,0.96684375 C0.9361875,0.96403125 0.937125,0.96215625 0.937125,0.95934375 L0.937125,0.40059375 C0.937125,0.32090625 0.869625,0.25621875 0.7880625,0.25621875" id="Fill-51" fill="#000000" mask="url(#mask-6)"></path>
                </g>
                <g id="Group-56" transform="translate(13.125000, 0.673369)">
                    <mask id="mask-8" fill="white">
                        <use xlink:href="#path-7"></use>
                    </mask>
                    <g id="Clip-55"></g>
                    <path d="M0.9335625,0.65878125 L0.9335625,0.45253125 C0.9335625,0.36909375 0.8660625,0.30440625 0.7854375,0.30440625 L0.362625,0.30440625 C0.280125,0.30440625 0.2145,0.36909375 0.2145,0.45253125 L0.2145,0.67846875 L0.2145,0.88659375 L0.2145,1.55784375 L0.2145,1.69659375 L0.2145,2.61065625 C0.2145,2.69034375 0.2810625,2.75690625 0.3635625,2.75690625 L0.78825,2.75690625 C0.8698125,2.75690625 0.9373125,2.69034375 0.9373125,2.61065625 L0.9373125,1.69659375 L0.9373125,1.55784375 L0.9373125,0.67846875 C0.9373125,0.67096875 0.9345,0.66534375 0.9335625,0.65878125" id="Fill-54" fill="#000000" mask="url(#mask-8)"></path>
                </g>
            </g>
        </g>
    </g>
</svg>