<?xml version="1.0" standalone="no"?>
<!DOCTYPE svg PUBLIC "-//W3C//DTD SVG 1.1//EN" "http://www.w3.org/Graphics/SVG/1.1/DTD/svg11.dtd" >
<svg>
<metadata>
Created by FontForge 20090622 at Thu Jun  9 16:50:23 2016
 By deploy user
Copyright (C) 2002, 2007 Hoefler &#38; Frere-Jones. http://www.typography.com
</metadata>
<defs>
<font id="ChronicleDisplay-XLight" horiz-adv-x="469" >
  <font-face 
    font-family="Chronicle Display XLight"
    font-weight="275"
    font-stretch="normal"
    units-per-em="1000"
    panose-1="0 0 0 0 0 0 0 0 0 0"
    ascent="800"
    descent="-200"
    x-height="453"
    cap-height="697"
    bbox="-61 -253 1070 1108"
    underline-thickness="50"
    underline-position="-50"
    unicode-range="U+0020-U+FB04"
  />
<missing-glyph horiz-adv-x="500" 
d="M0 -200v1000h500v-1000h-500zM71 750l179 -390l179 390h-358zM50 -76l172 376l-172 376v-752zM450 676l-172 -376l172 -376v752zM250 240l-179 -390h358z" />
    <glyph glyph-name="f_f" unicode="ff" horiz-adv-x="565" 
d="M275 722q97 0 132 -59l13 14q46 46 104 46q48 0 78 -20.5t30 -49.5q0 -21 -13 -34t-30 -13q-19 0 -32.5 13t-13.5 31q0 33 27 50q-19 14 -50 14q-35 0 -55 -20q-33 -33 -33 -135v-106h137v-11h-137v-397q0 -25 19 -32.5t79 -7.5v-5h-240v5q41 1 57.5 8.5t16.5 31.5v397
h-198v-397q0 -25 16.5 -32.5t63.5 -7.5v-5h-229v5q46 1 63.5 8.5t17.5 31.5v397h-90v9l90 4v54q0 107 58 165q48 48 119 48zM364 498q0 48 5 76q-17 2 -28.5 14t-11.5 33q0 16 9.5 30t23.5 19q-8 17 -30.5 30t-57.5 13q-48 0 -76 -32q-32 -36 -32 -130v-98h198v45z" />
    <glyph glyph-name="fi" unicode="fi" horiz-adv-x="526" 
d="M17 0v5q46 1 63.5 8.5t17.5 31.5v397h-90v9l90 4v58q0 103 58 161q49 49 123 49q75 0 114.5 -33t39.5 -70q0 -25 -12 -39.5t-32 -14.5q-19 0 -33 12t-14 36q0 16 9.5 31t24.5 19q-7 20 -31.5 35t-65.5 15q-47 0 -78 -31q-35 -33 -35 -133v-97h152l119 6v-414
q0 -24 15.5 -31t60.5 -9v-5h-220v5q43 1 59.5 8.5t16.5 31.5v397h-203v-397q0 -25 17 -32.5t66 -7.5v-5h-232z" />
    <glyph glyph-name="fl" unicode="fl" horiz-adv-x="522" 
d="M369 442h-203v-397q0 -25 17 -32.5t66 -7.5v-5h-232v5q46 1 63.5 8.5t17.5 31.5v397h-90v9l90 4v53q0 110 57 167q49 48 117 48q47 0 81 -16l84 15v-677q0 -24 16.5 -31.5t61.5 -8.5v-5h-222v5q42 1 59 8.5t17 31.5v397zM369 581q-22 -1 -35.5 12t-13.5 34q0 36 31 50
q-20 37 -81 37q-41 0 -70 -27q-34 -34 -34 -134v-100h203v128z" />
    <glyph glyph-name="f_f_i" unicode="ffi" horiz-adv-x="792" 
d="M275 722q100 0 134 -62l13 14q49 49 123 49q75 0 114.5 -33t39.5 -70q0 -25 -12 -39.5t-32 -14.5q-19 0 -33 12t-14 36q0 16 9.5 31t24.5 19q-7 20 -31.5 35t-65.5 15q-47 0 -78 -31q-35 -33 -35 -133v-97h152l119 6v-414q0 -24 15.5 -31t60.5 -9v-5h-220v5
q43 1 59.5 8.5t16.5 31.5v397h-203v-397q0 -25 17 -32.5t66 -7.5v-5h-225v5q41 1 57.5 8.5t16.5 31.5v397h-198v-397q0 -25 16.5 -32.5t63.5 -7.5v-5h-229v5q46 1 63.5 8.5t17.5 31.5v397h-90v9l90 4v54q0 107 58 165q48 48 119 48zM364 453v60q0 37 5 61q-17 2 -28.5 14
t-11.5 33q0 16 9.5 30t23.5 19q-8 17 -30.5 30t-57.5 13q-48 0 -76 -32q-32 -36 -32 -130v-98h198z" />
    <glyph glyph-name="f_f_l" unicode="ffl" horiz-adv-x="788" 
d="M538 723q47 0 81 -16l84 15v-677q0 -24 16.5 -31.5t61.5 -8.5v-5h-222v5q42 1 59 8.5t17 31.5v397h-203v-397q0 -25 17 -32.5t66 -7.5v-5h-225v5q41 1 57.5 8.5t16.5 31.5v397h-198v-397q0 -25 16.5 -32.5t63.5 -7.5v-5h-229v5q46 1 63.5 8.5t17.5 31.5v397h-90v9l90 4
v54q0 107 58 165q48 48 119 48q99 0 134 -61q8 10 12 14q49 48 117 48zM364 508q0 41 5 66q-17 2 -28.5 14t-11.5 33q0 16 9.5 30t23.5 19q-8 17 -30.5 30t-57.5 13q-48 0 -76 -32q-32 -36 -32 -130v-98h198v55zM635 453v128q-22 -1 -35.5 12t-13.5 34q0 36 31 50
q-20 37 -81 37q-41 0 -70 -27q-34 -34 -34 -134v-100h203z" />
    <glyph glyph-name="f_b" unicode="fb" horiz-adv-x="815" 
d="M369 581q-22 -1 -35.5 12t-13.5 34q0 36 31 50q-20 37 -81 37q-41 0 -70 -27q-34 -34 -34 -134v-100h203v128zM564 2q64 0 100 61t36 164q0 88 -39.5 145.5t-106.5 57.5q-63 0 -117 -61v-289q32 -78 127 -78zM264 0h-247v5q46 1 63.5 8.5t17.5 31.5v397h-90v9l90 4v53
q0 110 57 167q49 48 117 48q47 0 81 -16l84 15v-341q75 80 151 80q82 0 135 -64t53 -162q0 -107 -62.5 -175t-149.5 -68q-77 0 -150 44l-46 -51h-4l5 88v369h-203v-397q0 -25 19 -32.5t79 -7.5v-5z" />
    <glyph glyph-name="f_h" unicode="fh" horiz-adv-x="810" 
d="M369 581q-22 -1 -35.5 12t-13.5 34q0 36 31 50q-20 37 -81 37q-41 0 -70 -27q-34 -34 -34 -134v-100h203v128zM508 0h-216v5q45 2 61 9t16 31v397h-203v-397q0 -25 17 -32.5t66 -7.5v-5h-232v5q46 1 63.5 8.5t17.5 31.5v397h-90v9l90 4v53q0 110 57 167q49 48 117 48
q47 0 81 -16l84 15v-381q33 54 77.5 88.5t93.5 34.5q59 0 90 -36.5t31 -102.5v-280q0 -24 16 -31t59 -9v-5h-214v5q42 2 56.5 9t14.5 31v264q0 117 -88 117q-38 0 -75 -29t-61 -75v-277q0 -24 14.5 -31t56.5 -9v-5z" />
    <glyph glyph-name="f_j" unicode="fj" horiz-adv-x="518" 
d="M264 0h-247v5q46 1 63.5 8.5t17.5 31.5v397h-90v9l90 4v58q0 103 58 161q49 49 123 49q75 0 114.5 -33t39.5 -70q0 -25 -12 -39.5t-32 -14.5q-19 0 -33 12t-14 36q0 16 9.5 31t24.5 19q-7 20 -31.5 35t-65.5 15q-47 0 -78 -31q-35 -33 -35 -133v-97h152l119 6v-455
q0 -72 -6 -105t-32 -59q-34 -34 -88 -34q-35 0 -63.5 17.5t-28.5 44.5q0 18 11.5 31t29.5 13t28.5 -11t10.5 -28q0 -28 -27 -41q12 -17 40 -17q31 0 44 16.5t13 51.5v559h-203v-397q0 -25 19 -32.5t79 -7.5v-5z" />
    <glyph glyph-name="f_k" unicode="fk" horiz-adv-x="772" 
d="M369 581q-22 -1 -35.5 12t-13.5 34q0 36 31 50q-20 37 -81 37q-41 0 -70 -27q-34 -34 -34 -134v-100h203v128zM515 0h-222v5q42 1 59 8.5t17 31.5v397h-203v-397q0 -25 17 -32.5t66 -7.5v-5h-232v5q46 1 63.5 8.5t17.5 31.5v397h-90v9l90 4v53q0 110 57 167q49 48 117 48
q47 0 81 -16l84 15v-520l161 163q41 41 34 60.5t-65 22.5v5h193v-5q-41 -2 -69.5 -18.5t-84.5 -72.5l-71 -70l159 -213q33 -44 48 -54.5t51 -14.5v-5h-210v5q46 4 54 16t-13 39l-131 185l-56 -55v-145q0 -24 16.5 -31.5t61.5 -8.5v-5z" />
    <glyph glyph-name="f_f_b" unicode="ffb" horiz-adv-x="1081" 
d="M530 0h-240v5q41 1 57.5 8.5t16.5 31.5v397h-198v-397q0 -25 16.5 -32.5t63.5 -7.5v-5h-229v5q46 1 63.5 8.5t17.5 31.5v397h-90v9l90 4v54q0 107 58 165q48 48 119 48q99 0 134 -61q8 10 12 14q49 48 117 48q47 0 81 -16l84 15v-341q75 80 151 80q82 0 135 -64t53 -162
q0 -107 -62.5 -175t-149.5 -68q-77 0 -150 44l-46 -51h-4l5 88v369h-203v-397q0 -25 19 -32.5t79 -7.5v-5zM830 2q64 0 100 61t36 164q0 88 -39.5 145.5t-106.5 57.5q-63 0 -117 -61v-289q31 -78 127 -78zM364 508q0 41 5 66q-17 2 -28.5 14t-11.5 33q0 16 9.5 30t23.5 19
q-8 17 -30.5 30t-57.5 13q-48 0 -76 -32q-32 -36 -32 -130v-98h198v55zM635 453v128q-22 -1 -35.5 12t-13.5 34q0 36 31 50q-20 37 -81 37q-41 0 -70 -27q-34 -34 -34 -134v-100h203z" />
    <glyph glyph-name="f_f_h" unicode="ffh" horiz-adv-x="1076" 
d="M98 455v54q0 107 58 165q48 48 119 48q99 0 134 -61q8 10 12 14q49 48 117 48q47 0 81 -16l84 15v-381q33 54 77.5 88.5t93.5 34.5q59 0 90 -36.5t31 -102.5v-280q0 -24 16 -31t59 -9v-5h-214v5q42 2 56.5 9t14.5 31v264q0 117 -88 117q-38 0 -75 -29t-61 -75v-277
q0 -24 16.5 -31.5t61.5 -8.5v-5h-222v5q42 1 59 8.5t17 31.5v397h-203v-397q0 -25 17 -32.5t66 -7.5v-5h-225v5q41 1 57.5 8.5t16.5 31.5v397h-198v-397q0 -25 16.5 -32.5t63.5 -7.5v-5h-229v5q46 1 63.5 8.5t17.5 31.5v397h-90v9zM364 508q0 41 5 66q-17 2 -28.5 14
t-11.5 33q0 16 9.5 30t23.5 19q-8 17 -30.5 30t-57.5 13q-48 0 -76 -32q-32 -36 -32 -130v-98h198v55zM635 453v128q-22 -1 -35.5 12t-13.5 34q0 36 31 50q-20 37 -81 37q-41 0 -70 -27q-34 -34 -34 -134v-100h203z" />
    <glyph glyph-name="f_f_j" unicode="ffj" horiz-adv-x="784" 
d="M530 0h-240v5q41 1 57.5 8.5t16.5 31.5v397h-198v-397q0 -25 16.5 -32.5t63.5 -7.5v-5h-229v5q46 1 63.5 8.5t17.5 31.5v397h-90v9l90 4v54q0 107 58 165q48 48 119 48q100 0 134 -62l13 14q49 49 123 49q75 0 114.5 -33t39.5 -70q0 -25 -12 -39.5t-32 -14.5
q-19 0 -33 12t-14 36q0 16 9.5 31t24.5 19q-7 20 -31.5 35t-65.5 15q-47 0 -78 -31q-35 -33 -35 -133v-97h152l119 6v-455q0 -72 -6 -105t-32 -59q-34 -34 -88 -34q-35 0 -63.5 17.5t-28.5 44.5q0 18 11.5 31t29.5 13t28.5 -11t10.5 -28q0 -28 -27 -41q12 -17 40 -17
q31 0 44 16.5t13 51.5v559h-203v-397q0 -25 19 -32.5t79 -7.5v-5zM364 513q0 37 5 61q-17 2 -28.5 14t-11.5 33q0 16 9.5 30t23.5 19q-8 17 -30.5 30t-57.5 13q-48 0 -76 -32q-32 -36 -32 -130v-98h198v60z" />
    <glyph glyph-name="f_f_k" unicode="ffk" horiz-adv-x="1038" 
d="M703 722v-520l161 163q41 41 34 60.5t-65 22.5v5h193v-5q-41 -2 -69.5 -18.5t-84.5 -72.5l-71 -70l159 -213q33 -44 48 -54.5t51 -14.5v-5h-210v5q46 4 54 16t-13 39l-131 185l-56 -55v-145q0 -24 16.5 -31.5t61.5 -8.5v-5h-222v5q42 1 59 8.5t17 31.5v397h-203v-397
q0 -25 17 -32.5t66 -7.5v-5h-225v5q41 1 57.5 8.5t16.5 31.5v397h-198v-397q0 -25 16.5 -32.5t63.5 -7.5v-5h-229v5q46 1 63.5 8.5t17.5 31.5v397h-90v9l90 4v54q0 107 58 165q48 48 119 48q99 0 134 -61q8 10 12 14q49 48 117 48q47 0 81 -16zM364 508q0 41 5 66
q-17 2 -28.5 14t-11.5 33q0 16 9.5 30t23.5 19q-8 17 -30.5 30t-57.5 13q-48 0 -76 -32q-32 -36 -32 -130v-98h198v55zM635 453v128q-22 -1 -35.5 12t-13.5 34q0 36 31 50q-20 37 -81 37q-41 0 -70 -27q-34 -34 -34 -134v-100h203z" />
    <glyph glyph-name=".notdef" horiz-adv-x="500" 
d="M0 -200v1000h500v-1000h-500zM71 750l179 -390l179 390h-358zM50 -76l172 376l-172 376v-752zM450 676l-172 -376l172 -376v752zM250 240l-179 -390h358z" />
    <glyph glyph-name=".null" horiz-adv-x="0" 
 />
    <glyph glyph-name="nonmarkingreturn" horiz-adv-x="333" 
 />
    <glyph glyph-name="space" unicode=" " horiz-adv-x="200" 
 />
    <glyph glyph-name="exclam" unicode="!" horiz-adv-x="266" 
d="M126 186q-6 117 -21.5 274t-15.5 195q0 70 44 70t44 -70q0 -38 -16 -194.5t-22 -274.5h-13zM133 -16q-21 0 -36 14.5t-15 34.5q0 22 15 36.5t36 14.5t36 -14.5t15 -34.5q0 -22 -15 -36.5t-36 -14.5z" />
    <glyph glyph-name="quotedbl" unicode="&#x22;" horiz-adv-x="383" 
d="M221 443l-5 2l25 102q29 120 32 124q13 26 36 26q17 0 29 -11t12 -29q0 -10 -5 -22q-10 -23 -64 -104zM70 443l-5 2l25 102q29 120 32 124q13 26 36 26q17 0 29 -11t12 -29q0 -10 -5 -22q-10 -23 -64 -104z" />
    <glyph glyph-name="numbersign" unicode="#" horiz-adv-x="703" 
d="M316 703l-45 -227h219l45 227h16l-45 -227h163v-13h-166l-51 -258h174v-13h-177l-46 -234h-16l46 234h-219l-46 -234h-16l46 234h-160v13h163l51 258h-170v13h173l45 227h16zM436 205l51 258h-219l-51 -258h219z" />
    <glyph glyph-name="dollar" unicode="$" horiz-adv-x="565" 
d="M284 -64v83q-94 1 -153 40t-59 89q0 21 13.5 37t35.5 16q20 0 33 -14t13 -33q0 -39 -38 -54q14 -29 57 -50t98 -22v273l-11 4q-44 13 -69 22.5t-55.5 28.5t-45 46.5t-14.5 65.5q0 77 58.5 124t136.5 49v72h14v-72q79 -2 133.5 -39.5t54.5 -81.5q0 -21 -11.5 -35
t-31.5 -14q-21 0 -33 13t-12 32q0 31 33 51q-12 25 -48 44.5t-85 20.5v-263l20 -6q44 -13 67.5 -22.5t54.5 -28t45 -46t14 -64.5q0 -72 -52 -127t-149 -56v-83h-14zM447 160q0 56 -38 85t-111 52v-269q73 1 111 37.5t38 94.5zM148 501q0 -52 35 -79.5t101 -48.5v259
q-63 -2 -99.5 -36t-36.5 -95z" />
    <glyph glyph-name="percent" unicode="%" horiz-adv-x="806" 
d="M572 0q67 0 117 81t50 160q0 107 -77 107q-64 0 -113.5 -86t-49.5 -174t73 -88zM567 -14q-64 0 -97 39.5t-33 99.5q0 93 63 170t148 77q47 0 76 -34.5t29 -94.5q0 -47 -20 -104.5t-64.5 -105t-101.5 -47.5zM357 543q0 27 -6 50q-50 19 -78 57q-62 -6 -109 -90.5
t-47 -169.5q0 -88 73 -88q67 0 117 81t50 160zM266 674q63 0 90 -58q35 -21 91 -21q107 0 191 94h14l-477 -715h-35l464 664l-3 2q-76 -61 -163 -61q-39 0 -72 9q5 -22 5 -43q0 -47 -20 -104.5t-64.5 -105t-101.5 -47.5q-64 0 -97 39.5t-33 99.5q0 93 63 170t148 77z" />
    <glyph glyph-name="ampersand" unicode="&#x26;" horiz-adv-x="746" 
d="M323 382q54 34 72.5 70t18.5 91q0 53 -24 83t-70 30q-49 0 -74 -29t-25 -76q0 -65 102 -169zM265 346q-63 -28 -95 -70.5t-32 -111.5q0 -65 40 -107.5t109 -42.5q51 0 89 27t77 79q-71 125 -188 226zM493 182q41 82 77.5 118.5t76.5 36.5q27 0 41.5 -14.5t14.5 -37.5
q0 -20 -12 -34t-32 -14q-21 0 -33.5 12t-12.5 30q0 27 18 42l-2 2q-32 -6 -61.5 -41.5t-67.5 -107.5q41 -74 75 -108.5t69 -34.5t76 33l4 -6q-72 -75 -121 -75q-42 0 -76 32t-70 96q-38 -58 -91.5 -93t-112.5 -35q-92 0 -142 48t-50 119q0 137 198 202l-26.5 28.5t-26 29
t-18.5 27t-15.5 35t-4.5 38.5q0 64 45 109.5t111 45.5q67 0 109.5 -34.5t42.5 -90.5q0 -46 -33.5 -83.5t-113.5 -80.5q111 -94 164 -194z" />
    <glyph glyph-name="quotesingle" unicode="'" horiz-adv-x="232" 
d="M70 443l-5 2l25 102q29 120 32 124q13 26 36 26q17 0 29 -11t12 -29q0 -10 -5 -22q-10 -23 -64 -104z" />
    <glyph glyph-name="parenleft" unicode="(" horiz-adv-x="383" 
d="M404 -166q-45 19 -88 47t-87.5 70t-77 92t-53.5 116.5t-21 139.5t21 139.5t53.5 116.5t77 92t87.5 70t88 47l2 -4q-122 -65 -188.5 -170.5t-66.5 -290.5q0 -96 19 -172t55.5 -130t79.5 -91t101 -68z" />
    <glyph glyph-name="parenright" unicode=")" horiz-adv-x="383" 
d="M-21 -166l-2 4q58 31 101 68t79.5 91t55.5 130t19 172q0 185 -66.5 290.5t-188.5 170.5l2 4q45 -19 88 -47t87.5 -70t77 -92t53.5 -116.5t21 -139.5t-21 -139.5t-53.5 -116.5t-77 -92t-87.5 -70t-88 -47z" />
    <glyph glyph-name="asterisk" unicode="*" horiz-adv-x="423" 
d="M265 392q-23 -8 -32 20q-3 9 -7 32t-7 44.5t-5.5 41.5t-2.5 21l-3 1q-8 -10 -46.5 -49.5t-51.5 -48.5q-24 -16 -38 2q-14 19 10 36q7 5 27 16t39.5 20l38.5 18l19 9v3q-118 59 -125 64q-23 16 -9 36t38 3q7 -5 23.5 -21.5l31.5 -32.5l28.5 -30.5t14.5 -15.5l3 1
q0 1 2.5 21t5.5 41.5t7 44.5t7 31q10 28 32 21q23 -8 14 -35q-6 -16 -33 -66.5t-32 -58.5l2 -2l32 6q31 6 63 11t43 5q29 0 29 -24t-29 -24q-9 0 -31.5 3t-44 7l-41.5 7.5t-21 3.5l-2 -2q1 -1 10.5 -18.5l20 -37l21 -40t13.5 -29.5q9 -28 -14 -35z" />
    <glyph glyph-name="plus" unicode="+" horiz-adv-x="556" 
d="M54 319v12h218v216h14v-216h216v-12h-216v-219h-14v219h-218z" />
    <glyph glyph-name="comma" unicode="," horiz-adv-x="200" 
d="M24 -131l-4 7q43 24 70.5 58.5t31.5 65.5l-4 2q-10 -10 -27 -10q-18 0 -31 12t-13 32q0 21 13.5 35.5t35.5 14.5q25 0 41.5 -17.5t16.5 -46.5q0 -89 -130 -153z" />
    <glyph glyph-name="hyphen" unicode="-" horiz-adv-x="366" 
d="M55 243v31h256v-31h-256z" />
    <glyph glyph-name="period" unicode="." horiz-adv-x="200" 
d="M100 -16q-21 0 -36 14.5t-15 34.5q0 22 15 36.5t36 14.5t36 -14.5t15 -34.5q0 -22 -15 -36.5t-36 -14.5z" />
    <glyph glyph-name="slash" unicode="/" horiz-adv-x="447" 
d="M9 -215l213 482l209 479h16l-213 -483l-209 -478h-16z" />
    <glyph glyph-name="zero" unicode="0" horiz-adv-x="597" 
d="M297 -14q-106 0 -178.5 97t-72.5 244q0 146 75.5 246.5t178.5 100.5q106 0 178.5 -98t72.5 -245q0 -145 -75.5 -245t-178.5 -100zM300 -5q84 0 125.5 77.5t41.5 256.5q0 178 -43 257t-127 79q-83 0 -125 -78.5t-42 -257.5q0 -178 43 -256t127 -78z" />
    <glyph glyph-name="one" unicode="1" horiz-adv-x="388" 
d="M24 0v5q91 1 115.5 12t24.5 55v500q0 50 -20 61t-115 12v4l208 17v-594q0 -43 24.5 -54.5t115.5 -12.5v-5h-353z" />
    <glyph glyph-name="two" unicode="2" horiz-adv-x="520" 
d="M43 0v50l158 142q105 93 140.5 157t35.5 151q0 82 -36.5 123.5t-100.5 41.5q-54 0 -89 -26t-43 -60q43 -17 43 -60q0 -23 -13.5 -39t-36.5 -16q-24 0 -39 17.5t-15 44.5q0 55 57.5 101.5t139.5 46.5q97 0 154 -50.5t57 -124.5q0 -67 -52 -131t-194 -187l-137 -120v-2h263
q73 0 96.5 22t34.5 103l5 -1l-5 -183h-423z" />
    <glyph glyph-name="three" unicode="3" horiz-adv-x="535" 
d="M248 -14q-92 0 -149 39t-57 87q0 27 14.5 44t38.5 17q23 0 35 -15t12 -35q0 -38 -42 -60q15 -27 53.5 -47.5t92.5 -20.5q85 0 123 42.5t38 128.5q0 168 -192 168h-27v10h12q98 0 144 41t46 128q0 75 -36.5 113.5t-102.5 38.5q-42 0 -81 -20t-55 -50q20 -5 32.5 -19.5
t12.5 -33.5q0 -21 -12 -36.5t-35 -15.5t-37 16t-14 41q0 48 55.5 87.5t140.5 39.5q103 0 156 -43t53 -114q0 -60 -50 -107t-152 -69v-3q104 -9 161.5 -50.5t57.5 -114.5q0 -86 -62 -136.5t-174 -50.5z" />
    <glyph glyph-name="four" unicode="4" horiz-adv-x="557" 
d="M541 220h-145v-149q0 -41 20 -53t87 -13v-5h-292v5q68 1 90 12.5t22 53.5v149h-298v31l337 409h34v-396h145v-44zM321 596l-273 -332h275v332h-2z" />
    <glyph glyph-name="five" unicode="5" horiz-adv-x="534" 
d="M250 -14q-85 0 -144.5 38.5t-59.5 91.5q0 24 16 41.5t38 17.5q21 0 34.5 -15t13.5 -34q0 -42 -45 -63q7 -23 49 -45.5t88 -22.5q164 0 164 203q0 95 -40 144.5t-113 49.5q-77 0 -151 -53l-12 6l13 315h364l-7 -61h-346l-11 -245q67 51 153 51q115 0 172.5 -56t57.5 -146
q0 -88 -67.5 -152.5t-166.5 -64.5z" />
    <glyph glyph-name="six" unicode="6" horiz-adv-x="561" 
d="M291 -14q-104 0 -171 76.5t-67 194.5q0 170 109 279q113 113 302 141v-5q-165 -41 -243.5 -135.5t-88.5 -240.5l2 -1q22 64 72.5 99.5t108.5 35.5q89 0 146.5 -57t57.5 -149q0 -103 -64 -170.5t-164 -67.5zM295 -5q144 0 144 220q0 206 -128 206q-70 0 -124 -56t-54 -167
q0 -94 47.5 -148.5t114.5 -54.5z" />
    <glyph glyph-name="seven" unicode="7" horiz-adv-x="482" 
d="M103 -10v2l333 609h-278q-55 0 -78.5 -27t-33.5 -108h-5l6 194h420v-8l-169 -384l-118 -278h-77z" />
    <glyph glyph-name="eight" unicode="8" horiz-adv-x="547" 
d="M51 156q0 58 43 103t120 69q-67 30 -104.5 69t-37.5 101q0 74 62.5 125t143.5 51q84 0 144.5 -43.5t60.5 -110.5q0 -109 -153 -162q80 -33 126 -75.5t46 -113.5q0 -76 -69.5 -129.5t-151.5 -53.5q-103 0 -166.5 47t-63.5 123zM259 310q-12 4 -36 14q-108 -46 -108 -166
q0 -78 41.5 -120.5t111.5 -42.5q73 0 120.5 36t47.5 115q0 33 -14 59t-43 45.5t-54 31.5t-66 28zM309 366q3 -2 11 -4q99 48 99 154q0 69 -38.5 108.5t-101.5 39.5q-64 0 -104.5 -34.5t-40.5 -108.5q0 -24 10 -45t25 -36t40.5 -29.5t46.5 -23.5t53 -21z" />
    <glyph glyph-name="nine" unicode="9" horiz-adv-x="561" 
d="M98 -17v6q310 72 332 381l-2 1q-54 -141 -170 -141q-92 0 -154 57t-62 156q0 94 70 162.5t169 68.5q102 0 164.5 -76t62.5 -195q0 -169 -109 -278q-114 -114 -301 -142zM262 239q62 0 114 59.5t52 161.5q0 96 -43 150.5t-108 54.5q-73 0 -114 -58t-41 -160t36.5 -155
t103.5 -53z" />
    <glyph glyph-name="colon" unicode=":" horiz-adv-x="210" 
d="M105 293q-21 0 -36 14.5t-15 34.5q0 22 15 36.5t36 14.5t36 -14.5t15 -34.5q0 -22 -15 -36.5t-36 -14.5zM105 -16q-21 0 -36 14.5t-15 34.5q0 22 15 36.5t36 14.5t36 -14.5t15 -34.5q0 -22 -15 -36.5t-36 -14.5z" />
    <glyph glyph-name="semicolon" unicode=";" horiz-adv-x="210" 
d="M105 293q-21 0 -36 14.5t-15 34.5q0 22 15 36.5t36 14.5t36 -14.5t15 -34.5q0 -22 -15 -36.5t-36 -14.5zM29 -131l-4 7q43 24 70.5 58.5t31.5 65.5l-4 2q-10 -10 -27 -10q-18 0 -31 12t-13 32q0 21 13.5 35.5t33.5 14.5q28 0 44 -17.5t16 -46.5q0 -89 -130 -153z" />
    <glyph glyph-name="less" unicode="&#x3c;" horiz-adv-x="555" 
d="M85 319v10l387 220v-16l-370 -209l370 -208v-16z" />
    <glyph glyph-name="equal" unicode="=" horiz-adv-x="556" 
d="M59 218v13h438v-13h-438zM59 417v13h438v-13h-438z" />
    <glyph glyph-name="greater" unicode="&#x3e;" horiz-adv-x="555" 
d="M471 320l-387 -220v16l370 209l-370 208v16l387 -219v-10z" />
    <glyph glyph-name="question" unicode="?" horiz-adv-x="445" 
d="M176 186v167q103 18 138.5 61.5t35.5 133.5q0 83 -38 125.5t-105 42.5q-51 0 -88 -23t-52 -58q56 -12 56 -56q0 -20 -13.5 -36t-36.5 -16t-38 16.5t-15 42.5q0 49 56.5 94t135.5 45q98 0 156 -50.5t58 -125.5q0 -81 -61.5 -133t-175.5 -72v-158h-13zM182 -16
q-21 0 -36 14.5t-15 34.5q0 22 15 36.5t36 14.5t36 -14.5t15 -34.5q0 -22 -15 -36.5t-36 -14.5z" />
    <glyph glyph-name="at" unicode="@" horiz-adv-x="909" 
d="M471 -146q-181 0 -295.5 112.5t-114.5 297.5q0 181 120 300.5t305 119.5q152 0 257 -96t105 -241q0 -133 -65.5 -208t-154.5 -75q-117 0 -120 97h-3q-59 -89 -129 -89q-55 0 -83.5 34t-28.5 97q0 61 31.5 124t86 106t113.5 43t78 -68h1l21 61l65 9l-46 -138l-42 -150
q-15 -50 4.5 -80.5t65.5 -30.5q75 0 133.5 74t58.5 193q0 138 -100 232.5t-249 94.5q-180 0 -295 -117.5t-115 -290.5t108.5 -286.5t288.5 -113.5q140 0 251 83l6 -8q-116 -86 -258 -86zM400 102q62 0 107 78l62 211q-17 77 -73 77q-45 0 -84 -47.5t-59.5 -110t-20.5 -115.5
q0 -44 17.5 -68.5t50.5 -24.5z" />
    <glyph glyph-name="A" unicode="A" horiz-adv-x="690" 
d="M506 98l-66 176h-257l-51 -131q-34 -85 -21.5 -110t94.5 -28v-5h-225v5q54 4 78.5 30t61.5 119l224 565h6l229 -602q28 -74 47 -91.5t79 -21.5v-4h-289v5q80 2 96 21.5t-6 71.5zM187 285h249l-121 325h-2z" />
    <glyph glyph-name="B" unicode="B" horiz-adv-x="654" 
d="M19 0v5q84 2 103.5 13.5t19.5 52.5v555q0 41 -19.5 52.5t-103.5 13.5v5h300q123 0 191.5 -46.5t68.5 -116.5q0 -64 -51.5 -105.5t-141.5 -57.5v-3q223 -31 223 -175q0 -82 -73 -137.5t-213 -55.5h-304zM217 374h111q86 0 126.5 36.5t40.5 120.5t-40 120t-138 36h-100
v-313zM217 10h111q103 0 149.5 43.5t46.5 139.5q0 83 -44 127t-143 44h-120v-354z" />
    <glyph glyph-name="C" unicode="C" horiz-adv-x="691" 
d="M381 -17q-141 0 -235 94.5t-94 262.5q0 159 100 265t247 106q90 0 178 -50l42 56h5v-223h-5q-44 92 -78.5 136.5t-65.5 58t-82 13.5q-110 0 -182.5 -87.5t-72.5 -265.5q0 -159 82 -249t191 -90q85 0 138.5 44t98.5 132l7 -3q-88 -200 -274 -200z" />
    <glyph glyph-name="D" unicode="D" horiz-adv-x="742" 
d="M19 0v5q84 2 103.5 13.5t19.5 52.5v555q0 41 -19.5 52.5t-103.5 13.5v5h296q178 0 276.5 -94.5t98.5 -242.5q0 -70 -23 -133.5t-67 -114.5t-116.5 -81.5t-163.5 -30.5h-301zM217 10h81q166 0 235.5 76.5t69.5 267.5q0 188 -71.5 260.5t-221.5 72.5h-93v-677z" />
    <glyph glyph-name="E" unicode="E" horiz-adv-x="650" 
d="M19 0v5q84 2 103.5 13.5t19.5 52.5v555q0 41 -19.5 52.5t-103.5 13.5v5h556l3 -194l-5 -1q-44 120 -69 152.5t-81 32.5h-206v-320h127q44 0 60.5 25.5t36.5 111.5h5v-284h-5q-20 86 -36.5 111.5t-60.5 25.5h-127v-347h239q55 0 79.5 34t68.5 163l5 -1l-5 -206h-585z" />
    <glyph glyph-name="F" unicode="F" horiz-adv-x="605" 
d="M19 0v5q84 2 103.5 13.5t19.5 52.5v555q0 41 -19.5 52.5t-103.5 13.5v5h541l9 -199l-5 -1q-49 123 -75 156.5t-81 33.5h-191v-329h115q44 0 60.5 25.5t36.5 111.5h5v-284h-5q-20 86 -36.5 111.5t-60.5 25.5h-115v-277q0 -42 21 -53.5t106 -12.5v-5h-325z" />
    <glyph glyph-name="G" unicode="G" horiz-adv-x="746" 
d="M413 -17q-153 0 -257 97.5t-104 270.5q0 158 102 260.5t240 102.5q96 0 194 -44l42 50h5v-220h-6q-34 70 -59 109.5t-53 61.5t-54.5 28t-70.5 6q-110 0 -181.5 -85t-71.5 -267q0 -93 24 -164.5t64.5 -113t88 -62.5t99.5 -21q85 0 148 41v209q0 41 -19.5 52.5t-103.5 13.5
v5h287v-5q-60 -4 -75 -15.5t-15 -48.5v-193q-117 -68 -224 -68z" />
    <glyph glyph-name="H" unicode="H" horiz-adv-x="787" 
d="M19 0v5q84 2 103.5 13.5t19.5 52.5v555q0 41 -19.5 52.5t-103.5 13.5v5h313v-5q-78 -2 -96.5 -13t-18.5 -51v-261h353v261q0 40 -18.5 51t-96.5 13v5h313v-5q-84 -2 -103.5 -13.5t-19.5 -52.5v-555q0 -41 19.5 -52.5t103.5 -13.5v-5h-313v5q78 2 96.5 13t18.5 51v288
h-353v-288q0 -40 18.5 -51t96.5 -13v-5h-313z" />
    <glyph glyph-name="I" unicode="I" horiz-adv-x="368" 
d="M19 0v5q85 1 106 12.5t21 53.5v555q0 42 -21 53.5t-106 12.5v5h329v-5q-85 -1 -106 -12.5t-21 -53.5v-555q0 -42 21 -53.5t106 -12.5v-5h-329z" />
    <glyph glyph-name="J" unicode="J" horiz-adv-x="524" 
d="M210 -17q-73 0 -119.5 35.5t-46.5 78.5q0 27 15 44t38 17q22 0 36 -15t14 -38q0 -21 -15 -37.5t-42 -18.5q13 -24 42.5 -40.5t65.5 -16.5q119 0 119 174v461q0 29 -5.5 39.5t-31 17t-86.5 8.5v5h321v-5q-81 -2 -102 -14t-21 -53v-428q0 -214 -182 -214z" />
    <glyph glyph-name="K" unicode="K" horiz-adv-x="697" 
d="M217 311l254 256q49 49 60 73.5t-8.5 35t-78.5 16.5v5h253v-5q-66 -9 -97.5 -28.5t-116.5 -104.5l-140 -140l214 -298q54 -74 79 -91.5t82 -24.5v-5h-282v5q67 2 77.5 21.5t-21.5 60.5l-201 280l-74 -74v-224q0 -40 17.5 -51t90.5 -13v-5h-306v5q84 2 103.5 13.5
t19.5 52.5v555q0 41 -19.5 52.5t-103.5 13.5v5h313v-5q-78 -2 -96.5 -13t-18.5 -51v-317z" />
    <glyph glyph-name="L" unicode="L" horiz-adv-x="603" 
d="M19 0v5q84 2 103.5 13.5t19.5 52.5v555q0 41 -19.5 52.5t-103.5 13.5v5h325v-5q-85 -1 -106 -12.5t-21 -53.5v-616h195q55 0 80.5 34t73.5 163l5 -1l-11 -206h-541z" />
    <glyph glyph-name="M" unicode="M" horiz-adv-x="910" 
d="M17 0v5q80 9 100.5 23t20.5 57v525q0 38 -23 56.5t-98 26.5v4h199l244 -598h2l235 598h194v-5q-84 -2 -103.5 -13.5t-19.5 -52.5v-555q0 -41 19.5 -52.5t103.5 -13.5v-5h-313v5q78 2 96.5 13t18.5 51v579h-2l-261 -658h-4l-274 657h-2v-562q0 -44 20.5 -57.5t103.5 -22.5
v-5h-257z" />
    <glyph glyph-name="N" unicode="N" horiz-adv-x="749" 
d="M627 -17l-475 646h-2v-544q0 -44 20.5 -57.5t103.5 -22.5v-5h-257v5q80 9 100.5 23t20.5 57v525q0 38 -24.5 56.5t-96.5 26.5v4h180l422 -574h2v489q0 44 -20.5 57.5t-103.5 22.5v5h252v-5q-77 -9 -96.5 -23.5t-19.5 -56.5v-629h-6z" />
    <glyph glyph-name="O" unicode="O" horiz-adv-x="758" 
d="M378 -17q-133 0 -229.5 100.5t-96.5 263.5q0 160 99.5 263.5t228.5 103.5q133 0 229.5 -100.5t96.5 -263.5q0 -160 -99.5 -263.5t-228.5 -103.5zM380 -8q239 0 239 356q0 357 -241 357q-239 0 -239 -356q0 -357 241 -357z" />
    <glyph glyph-name="P" unicode="P" horiz-adv-x="601" 
d="M19 0v5q84 2 103.5 13.5t19.5 52.5v555q0 41 -19.5 52.5t-103.5 13.5v5h280q129 0 201 -51.5t72 -136.5q0 -83 -73.5 -139t-206.5 -56h-75v-243q0 -42 21 -53.5t106 -12.5v-5h-325zM217 325h78q111 0 151 44t40 137q0 87 -41 134t-148 47h-80v-362z" />
    <glyph glyph-name="Q" unicode="Q" horiz-adv-x="758" 
d="M380 -8q239 0 239 356q0 357 -241 357q-239 0 -239 -356q0 -357 241 -357zM410 -15q34 -7 66 -33.5t52 -54t46 -49t51 -21.5q15 0 26 8.5t11 19.5q0 9 -18 25t-18 35q0 18 12 31t33 13q19 0 31 -14.5t12 -36.5q0 -38 -36 -68t-92 -30q-33 0 -63 16t-52 39l-43.5 46.5
t-45.5 39.5t-48 16q-67 0 -137 -92l-5 6q63 91 150 104q-121 14 -205.5 112.5t-84.5 249.5q0 160 99.5 263.5t228.5 103.5q133 0 229.5 -100.5t96.5 -263.5q0 -150 -88 -251t-208 -114z" />
    <glyph glyph-name="R" unicode="R" horiz-adv-x="667" 
d="M217 353h95q115 0 155.5 38.5t40.5 135.5q0 89 -46 124.5t-160 35.5h-85v-334zM217 342v-273q0 -40 18.5 -51t96.5 -13v-5h-313v5q84 2 103.5 13.5t19.5 52.5v555q0 41 -19.5 52.5t-103.5 13.5v5h287q128 0 208 -45t80 -126q0 -141 -209 -176v-3q102 -17 138.5 -54
t47.5 -122l6 -45q12 -73 37 -97t98 -24v-5q-48 -4 -105 -4q-58 0 -79.5 31.5t-30.5 105.5l-11 85q-9 75 -41.5 99.5t-122.5 24.5h-105z" />
    <glyph glyph-name="S" unicode="S" horiz-adv-x="573" 
d="M57 -18v246h3q41 -141 93.5 -186.5t153.5 -45.5q78 0 117.5 44t39.5 118q0 63 -38 99t-138 64q-116 32 -165.5 75.5t-49.5 118.5q0 85 66 140.5t154 55.5q84 0 162 -35l35 41h4v-219h-3q-45 119 -89 161t-116 42q-70 0 -110 -40.5t-40 -109.5q0 -64 37.5 -95.5
t141.5 -62.5q111 -33 161.5 -77.5t50.5 -121.5q0 -82 -63.5 -145t-161.5 -63t-196 48l-45 -52h-4z" />
    <glyph glyph-name="T" unicode="T" horiz-adv-x="685" 
d="M174 0v5q88 1 109.5 12.5t21.5 53.5v616h-112q-52 0 -77.5 -31t-75.5 -156l-5 1l6 196h603l6 -196l-5 -1q-50 125 -75.5 156t-77.5 31h-112v-616q0 -42 21.5 -53.5t109.5 -12.5v-5h-337z" />
    <glyph glyph-name="U" unicode="U" horiz-adv-x="756" 
d="M390 -14q-122 0 -190 58.5t-68 177.5v404q0 41 -19.5 52.5t-103.5 13.5v5h313v-5q-78 -2 -96.5 -13t-18.5 -51v-389q0 -123 52.5 -177.5t157.5 -54.5q90 0 138 48q64 64 64 176v381q0 44 -20.5 57.5t-103.5 22.5v5h252v-5q-77 -9 -96.5 -23.5t-19.5 -56.5v-384
q0 -112 -63 -177t-178 -65z" />
    <glyph glyph-name="V" unicode="V" horiz-adv-x="690" 
d="M340 -22l-229 602q-28 74 -47 91.5t-79 21.5v4h289v-5q-80 -2 -96.5 -21.5t5.5 -71.5l189 -521h2l184 476q34 85 21.5 110t-94.5 28v5h225v-5q-54 -4 -78.5 -30t-61.5 -119l-224 -565h-6z" />
    <glyph glyph-name="W" unicode="W" horiz-adv-x="999" 
d="M506 531l-16 49q-26 78 -45.5 95t-76.5 17v5h272v-5q-73 -1 -86.5 -18.5t6.5 -74.5l161 -501h2l144 451q16 50 20.5 75.5t-5.5 42t-31.5 20.5t-65.5 5v5h235v-5q-57 -2 -83 -30.5t-55 -117.5l-184 -565h-6l-179 532l-197 -532h-6l-190 601q-23 74 -43 92t-81 21v4h278v-5
q-70 -1 -84.5 -22.5t4.5 -70.5l149 -503h2z" />
    <glyph glyph-name="X" unicode="X" horiz-adv-x="682" 
d="M362 394l123 178q48 72 37.5 93.5t-88.5 26.5v5h245v-5q-64 -8 -93.5 -28.5t-89.5 -107.5l-124 -177l182 -282q37 -58 60 -72.5t86 -19.5v-5h-303v5q75 2 91 21.5t-12 59.5l-153 240l-138 -201q-48 -72 -37.5 -93.5t88.5 -26.5v-5h-245v5q64 8 93.5 28.5t89.5 107.5
l140 200l-168 259q-37 58 -60 72.5t-86 19.5v5h303v-5q-75 -2 -91 -21.5t12 -59.5z" />
    <glyph glyph-name="Y" unicode="Y" horiz-adv-x="652" 
d="M357 329l143 245q39 67 28 90.5t-86 27.5v5h231v-5q-60 -4 -88 -27t-72 -98l-147 -248v-248q0 -40 25 -51.5t101 -13.5v-6h-327v5q84 1 105 12.5t21 53.5v232l-172 299q-33 56 -55 72t-74 19v4h291v-5q-83 -1 -96.5 -20t20.5 -73z" />
    <glyph glyph-name="Z" unicode="Z" horiz-adv-x="609" 
d="M38 0l-1 5l444 682h-239q-55 0 -87.5 -33.5t-84.5 -153.5l-5 1l19 196h485l1 -5l-444 -682h270q38 0 60.5 12.5t48.5 54.5t62 130l5 -1l-16 -206h-518z" />
    <glyph glyph-name="bracketleft" unicode="[" horiz-adv-x="354" 
d="M102 -165v929h275v-11h-210v-907h210v-11h-275z" />
    <glyph glyph-name="backslash" unicode="\" horiz-adv-x="447" 
d="M422 -215l-209 478l-213 483h16l209 -479l213 -482h-16z" />
    <glyph glyph-name="bracketright" unicode="]" horiz-adv-x="354" 
d="M-23 -165v11h210v907h-210v11h275v-929h-275z" />
    <glyph glyph-name="asciicircum" unicode="^" horiz-adv-x="353" 
d="M30 548l148 212h5l140 -212h-8l-138 139l-139 -139h-8z" />
    <glyph glyph-name="underscore" unicode="_" horiz-adv-x="440" 
d="M-2 0v21h444v-21h-444z" />
    <glyph glyph-name="grave" unicode="`" horiz-adv-x="238" 
d="M174 525l-40 40l-31 31q-48 47 -57.5 59t-9.5 25q0 14 10.5 24t24.5 10q7 0 11 -1t9 -5.5t8 -10t8.5 -17.5l10.5 -23.5l15 -33.5l20 -43l26 -55h-5z" />
    <glyph glyph-name="a" unicode="a" horiz-adv-x="470" 
d="M160 -6q-56 0 -87.5 31t-31.5 74q0 65 66 101q56 30 210 53v72q0 68 -25.5 95.5t-82.5 27.5q-72 0 -97 -39q43 -7 43 -46q0 -21 -12.5 -34t-31.5 -13q-21 0 -33 13.5t-12 33.5q0 42 47 69.5t111 27.5q76 0 118.5 -31t42.5 -96v-254q0 -45 20 -57t65 6l2 -3
q-40 -29 -81 -29q-73 0 -73 82h-1q-74 -84 -157 -84zM193 25q70 0 124 66v152q-124 -16 -164.5 -43t-40.5 -88q0 -87 81 -87z" />
    <glyph glyph-name="b" unicode="b" horiz-adv-x="524" 
d="M73 -15l5 88v589q0 24 -14 33t-67 13v5l149 4v-336q75 80 151 80q82 0 135 -64t53 -162q0 -107 -62.5 -175t-149.5 -68q-77 0 -150 44l-46 -51h-4zM273 2q64 0 100 61t36 164q0 88 -39.5 145.5t-106.5 57.5q-63 0 -117 -61v-289q32 -78 127 -78z" />
    <glyph glyph-name="c" unicode="c" horiz-adv-x="454" 
d="M249 -11q-95 0 -154 65t-59 166q0 100 68 172t157 72q64 0 107 -27.5t43 -63.5q0 -21 -13.5 -34.5t-32.5 -13.5t-32.5 13t-13.5 33q0 31 36 52q-32 32 -96 32q-63 0 -107 -59t-44 -165q0 -93 46 -150t128 -57q72 0 139 79l7 -5q-39 -51 -80 -80t-99 -29z" />
    <glyph glyph-name="d" unicode="d" horiz-adv-x="532" 
d="M227 -8q-82 0 -135 63.5t-53 161.5q0 107 62.5 175.5t149.5 68.5q71 0 127 -41v242q0 24 -14 33t-67 13v5l149 4v-672q0 -24 17.5 -31.5t63.5 -8.5v-5l-148 -3v76q-76 -81 -152 -81zM261 23q63 0 117 61v289q-32 78 -127 78q-64 0 -100 -61.5t-36 -164.5q0 -88 39.5 -145
t106.5 -57z" />
    <glyph glyph-name="e" unicode="e" 
d="M247 -11q-91 0 -151 63t-60 166q0 98 62.5 172t151.5 74q88 0 138 -59.5t45 -144.5h-324q-1 -12 -1 -35v-1q0 -98 43 -155t114 -57q89 0 162 102l7 -5q-78 -120 -187 -120zM248 455q-58 0 -94 -48.5t-44 -135.5h253q3 85 -24.5 134.5t-90.5 49.5z" />
    <glyph glyph-name="f" unicode="f" horiz-adv-x="299" 
d="M17 0v5q46 1 63.5 8.5t17.5 31.5v397h-90v9l90 4v43q0 123 56 179q46 46 104 46q48 0 78 -20.5t30 -49.5q0 -21 -13 -34t-30 -13q-19 0 -32.5 13t-13.5 31q0 33 27 50q-19 14 -50 14q-35 0 -55 -20q-33 -33 -33 -135v-106h137v-11h-137v-397q0 -25 19 -32.5t79 -7.5v-5
h-247z" />
    <glyph glyph-name="g" unicode="g" 
d="M236 -187q70 0 124 35t54 85q0 78 -100 78h-155q-77 -24 -77 -101q0 -50 36.5 -73.5t117.5 -23.5zM229 166q104 0 104 143q0 65 -28 104t-84 39q-105 0 -105 -143t113 -143zM225 460q49 0 95 -25q41 67 93 67q49 0 49 -43q0 -17 -9.5 -27.5t-25.5 -10.5q-18 0 -28.5 15.5
t-8.5 38.5q-33 -4 -62 -45q72 -43 72 -119q0 -68 -55 -110.5t-120 -42.5q-40 0 -75 14q-58 -29 -58 -58q0 -36 79 -36h135q141 0 141 -112q0 -64 -61 -113t-163 -49q-84 0 -142 30t-58 75q0 74 122 105v2q-90 15 -90 68q0 23 22.5 48t63.5 43q-92 40 -92 132q0 68 55 110.5
t121 42.5z" />
    <glyph glyph-name="h" unicode="h" horiz-adv-x="523" 
d="M5 0v5q45 2 61 9t16 31v617q0 24 -14 33t-67 13v5l149 4v-376q33 54 77.5 88.5t93.5 34.5q59 0 90 -36.5t31 -102.5v-280q0 -24 16 -31t59 -9v-5h-214v5q42 2 56.5 9t14.5 31v264q0 117 -88 117q-38 0 -75 -29t-61 -75v-277q0 -24 14.5 -31t56.5 -9v-5h-216z" />
    <glyph glyph-name="i" unicode="i" horiz-adv-x="254" 
d="M125 558q-20 0 -34 15t-14 35t14 35t34 15t34 -15t14 -35t-14 -35t-34 -15zM16 0v5q46 1 63.5 8.5t17.5 31.5v357q0 24 -14 33t-67 13v5l149 6v-414q0 -24 15.5 -31t60.5 -9v-5h-225z" />
    <glyph glyph-name="j" unicode="j" horiz-adv-x="238" 
d="M117 558q-20 0 -34 15t-14 35t14 35t34 15t34 -15t14 -35t-14 -35t-34 -15zM31 -194q-35 0 -63.5 17.5t-28.5 44.5q0 18 11.5 31t29.5 13t28.5 -11t10.5 -28q0 -28 -27 -41q12 -17 40 -17q31 0 44 16.5t13 51.5v519q0 24 -14 33t-67 13v5l149 6v-455q0 -72 -6 -105
t-32 -59q-34 -34 -88 -34z" />
    <glyph glyph-name="k" unicode="k" horiz-adv-x="485" 
d="M150 190v-145q0 -24 14 -31t52 -9v-5h-211v5q45 2 61 9t16 31v617q0 24 -14 33t-67 13v5l149 4v-515l161 163q41 41 34 60.5t-65 22.5v5h193v-5q-41 -2 -69.5 -18.5t-84.5 -72.5l-71 -70l159 -213q33 -44 48 -54.5t51 -14.5v-5h-210v5q46 4 54 16t-13 39l-131 185z" />
    <glyph glyph-name="l" unicode="l" horiz-adv-x="238" 
d="M7 0v5q45 1 61.5 8.5t16.5 31.5v617q0 24 -14 33t-67 13v5l149 4v-672q0 -24 16.5 -31.5t61.5 -8.5v-5h-224z" />
    <glyph glyph-name="m" unicode="m" horiz-adv-x="803" 
d="M305 0v5q42 2 56.5 9t14.5 31v267q0 114 -83 114q-36 0 -71.5 -29t-59.5 -75v-277q0 -24 14.5 -31t56.5 -9v-5h-220v5q46 1 63.5 8.5t17.5 31.5v357q0 24 -14 33t-67 13v5l148 6v-119q33 54 76.5 89t90.5 35q52 0 82.5 -31.5t33.5 -91.5q75 123 166 123q57 0 86.5 -36
t29.5 -100v-283q0 -24 16 -31t59 -9v-5h-214v5q42 2 56.5 9t14.5 31v267q0 114 -83 114q-35 0 -70 -27.5t-61 -75.5v-278q0 -24 14.5 -31t56.5 -9v-5h-210z" />
    <glyph glyph-name="n" unicode="n" horiz-adv-x="531" 
d="M13 0v5q46 1 63.5 8.5t17.5 31.5v357q0 24 -14 33t-67 13v5l148 6v-119q33 54 78 89t94 35q59 0 90 -36.5t31 -102.5v-280q0 -24 16 -31t59 -9v-5h-214v5q42 2 56.5 9t14.5 31v264q0 117 -88 117q-38 0 -75 -29t-61 -75v-277q0 -24 14.5 -31t56.5 -9v-5h-220z" />
    <glyph glyph-name="o" unicode="o" horiz-adv-x="515" 
d="M257 -11q-90 0 -155.5 67t-65.5 169q0 101 67.5 170t154.5 69q90 0 155.5 -67t65.5 -169q0 -101 -67.5 -170t-154.5 -69zM262 -3q142 0 142 229q0 118 -41.5 174t-109.5 56q-142 0 -142 -229q0 -118 41.5 -174t109.5 -56z" />
    <glyph glyph-name="p" unicode="p" horiz-adv-x="532" 
d="M5 -192v5q46 1 63.5 8.5t17.5 31.5v549q0 24 -14 33t-67 13v5l148 6v-79q76 81 152 81q82 0 135 -62t53 -158q0 -107 -63 -178t-149 -71q-71 0 -127 41v-178q0 -25 21 -32.5t79 -7.5v-7h-249zM281 2q63 0 99.5 64t36.5 167q0 86 -39.5 141.5t-106.5 55.5q-63 0 -117 -61
v-289q32 -78 127 -78z" />
    <glyph glyph-name="q" unicode="q" horiz-adv-x="524" 
d="M278 -192v7q58 0 79 7.5t21 32.5v217q-75 -80 -151 -80q-82 0 -135 64t-53 162q0 106 62.5 174.5t149.5 68.5q77 0 150 -44l46 56h4l-5 -88v-532q0 -24 17.5 -31.5t63.5 -8.5v-5h-249zM261 23q63 0 117 61v289q-32 78 -127 78q-64 0 -100 -61.5t-36 -163.5
q0 -87 39.5 -145t106.5 -58z" />
    <glyph glyph-name="r" unicode="r" horiz-adv-x="389" 
d="M13 0v5q46 1 63.5 8.5t17.5 31.5v357q0 24 -14 33t-67 13v5l148 6v-123q20 50 60 88.5t79 38.5q30 0 46.5 -15.5t16.5 -40.5q0 -21 -13.5 -36t-31.5 -15q-22 0 -35 12.5t-13 32.5q0 22 15 41q-68 -9 -123 -120v-277q0 -25 18 -32t74 -8v-5h-241z" />
    <glyph glyph-name="s" unicode="s" horiz-adv-x="409" 
d="M46 -11v162h3q46 -95 76 -124t89 -29q47 0 75.5 26t28.5 69q0 42 -24 64.5t-99 44.5q-78 23 -111.5 49.5t-33.5 75.5q0 55 47.5 96t104.5 41q55 0 109 -28l29 28h5v-145h-3q-39 82 -66.5 109t-74.5 27q-46 0 -74 -24.5t-28 -63.5q0 -37 27.5 -58.5t99.5 -43.5
q75 -22 108 -53.5t33 -80.5q0 -61 -48 -101.5t-107 -40.5q-62 0 -126 35l-35 -35h-5z" />
    <glyph glyph-name="t" unicode="t" horiz-adv-x="337" 
d="M201 -11q-49 0 -78 31t-29 92v330h-93v9l93 4v134l68 33v-169h150v-11h-150v-334q0 -44 18.5 -68.5t50.5 -24.5q46 0 92 73l5 -3q-53 -96 -127 -96z" />
    <glyph glyph-name="u" unicode="u" horiz-adv-x="521" 
d="M198 -11q-59 0 -90 36.5t-31 102.5v274q0 24 -13 32.5t-62 13.5v5l143 6v-315q0 -117 88 -117q38 0 74 29t60 75v271q0 24 -14.5 33t-68.5 13v5l151 6v-414q0 -24 17.5 -31.5t63.5 -8.5v-5h-148v113q-33 -55 -77 -89.5t-93 -34.5z" />
    <glyph glyph-name="v" unicode="v" horiz-adv-x="478" 
d="M242 -16l-161 395q-17 41 -32 53.5t-58 15.5v5h222v-4q-40 -2 -56 -9.5t-16 -23.5q0 -11 8 -30l122 -316h2l124 298q12 31 12 43q0 16 -14 24.5t-47 13.5v4h147v-5q-39 -6 -52 -18.5t-37 -69.5l-159 -376h-5z" />
    <glyph glyph-name="w" unicode="w" horiz-adv-x="714" 
d="M373 321l-21 58q-15 41 -29.5 54t-53.5 16v4h215v-4q-73 -4 -73 -40q0 -9 6 -26l110 -302h2l105 286q10 30 10 43q0 17 -13 26t-44 13v4h150v-5q-43 -6 -58.5 -20t-35.5 -69l-138 -375h-7l-120 324l-137 -324h-5l-154 395q-16 40 -31.5 53t-57.5 16v5h219v-4
q-70 -4 -70 -38q0 -12 6 -28l119 -304h2z" />
    <glyph glyph-name="x" unicode="x" horiz-adv-x="501" 
d="M268 258l72 93q39 54 29 73.5t-68 24.5v4h194v-5q-46 -4 -71.5 -22.5t-74.5 -81.5l-74 -95l118 -162q38 -52 56 -65.5t53 -16.5v-5h-215v4q55 4 60.5 18t-23.5 51l-92 132l-79 -103q-38 -54 -28.5 -73.5t67.5 -24.5v-4h-194v5q46 4 71 22t75 82l82 104l-111 153
q-38 52 -56 65.5t-53 16.5v5h215v-4q-55 -4 -60.5 -18t23.5 -51z" />
    <glyph glyph-name="y" unicode="y" horiz-adv-x="471" 
d="M246 6l-166 373q-18 41 -33.5 53.5t-58.5 15.5v5h222v-4q-53 -3 -65.5 -17.5t3.5 -45.5l131 -303l114 285q17 40 7.5 57t-57.5 24v4h147v-5q-40 -6 -53 -19t-35 -69l-157 -389q-38 -95 -71 -130t-73 -35q-26 0 -42.5 16.5t-16.5 38.5q0 20 11.5 34t32.5 14
q18 0 30.5 -13.5t12.5 -32.5q0 -24 -15 -43q61 4 121 159z" />
    <glyph glyph-name="z" unicode="z" horiz-adv-x="443" 
d="M31 0l-1 5l301 437h-136q-46 0 -70 -25t-65 -121l-7 1l18 156h344l1 -5l-300 -437h149q45 0 76.5 30t63.5 124l5 -1l-16 -164h-363z" />
    <glyph glyph-name="braceleft" unicode="{" horiz-adv-x="401" 
d="M409 -159q-226 8 -226 165q0 25 7 90t7 88q0 21 -0.5 29t-2 23.5t-6 21l-12.5 15.5t-20.5 13.5t-30.5 9t-43 7.5t-58 3v6q33 1 57.5 3t43 7t31 8t20.5 12.5l12.5 15t6.5 20.5t2 23v29q0 23 -7 85.5t-7 87.5q0 153 226 161v-5q-84 -7 -121 -43t-37 -101q0 -13 4.5 -73
t4.5 -91q0 -28 -4.5 -47t-19.5 -40.5t-49.5 -35t-87.5 -17.5v-4q53 -4 87.5 -18t49.5 -36.5t19.5 -42t4.5 -47.5q0 -31 -4.5 -93.5t-4.5 -75.5q0 -134 158 -148v-5z" />
    <glyph glyph-name="bar" unicode="|" horiz-adv-x="306" 
d="M146 -215v961h14v-961h-14z" />
    <glyph glyph-name="braceright" unicode="}" horiz-adv-x="401" 
d="M-8 -146v5q84 7 121 43t37 101q0 13 -4.5 73t-4.5 91q0 28 4.5 47t19.5 40.5t49.5 35t87.5 17.5v4q-53 4 -87.5 18t-49.5 36.5t-19.5 42t-4.5 47.5q0 31 4.5 93.5t4.5 75.5q0 134 -158 148v5q226 -8 226 -165q0 -25 -7 -90t-7 -88q0 -21 0.5 -29t2 -23.5t6 -21
l12.5 -15.5t20.5 -13.5t30.5 -9t43 -7.5t58 -3v-6q-33 -1 -57.5 -3t-43 -7t-31 -8t-20.5 -12.5l-12.5 -15t-6.5 -20.5t-2 -23v-29q0 -23 7 -85.5t7 -87.5q0 -153 -226 -161z" />
    <glyph glyph-name="asciitilde" unicode="~" horiz-adv-x="394" 
d="M48 284q9 56 28.5 83t53.5 27q26 0 80.5 -25t74.5 -25q39 0 56 63h5q-9 -56 -28.5 -83t-53.5 -27q-26 0 -80.5 25t-74.5 25q-39 0 -56 -63h-5z" />
    <glyph glyph-name="uni00A0" unicode="&#xa0;" horiz-adv-x="200" 
 />
    <glyph glyph-name="exclamdown" unicode="&#xa1;" horiz-adv-x="266" 
d="M133 625q-21 0 -36 14.5t-15 34.5q0 22 15 36.5t36 14.5t36 -14.5t15 -34.5q0 -22 -15 -36.5t-36 -14.5zM133 -16q-44 0 -44 70q0 38 16 194.5t22 274.5h13q6 -117 21.5 -274t15.5 -195q0 -70 -44 -70z" />
    <glyph glyph-name="cent" unicode="&#xa2;" horiz-adv-x="526" 
d="M274 -89v79q-95 4 -151 68.5t-56 161.5q0 96 61 165t146 78v69h14v-68h8q66 0 111 -29.5t45 -70.5q0 -21 -13 -36t-35 -15q-18 0 -31 13t-13 33q0 36 41 50q-10 19 -38.5 32.5t-67.5 13.5h-7v-430q7 -1 21 -1q88 0 149 79l7 -5q-38 -50 -78.5 -79t-98.5 -30v-78h-14z
M139 231q0 -81 36 -136t99 -68v426q-58 -9 -96.5 -66t-38.5 -156z" />
    <glyph glyph-name="sterling" unicode="&#xa3;" horiz-adv-x="579" 
d="M432 347v-12h-169q19 -55 19 -93q0 -96 -74 -155q22 -3 93.5 -19.5t112.5 -16.5q65 0 90 31t36 102h5q-5 -94 -44.5 -147.5t-105.5 -53.5q-40 0 -97 29t-99 65q-36 -95 -88 -95q-20 0 -34 14.5t-14 32.5q0 24 25.5 42.5t77.5 18.5q11 0 31 -2q28 45 28 103q0 26 -7.5 55
t-14 43l-21.5 46h-109v12h104q-35 72 -35 133q0 89 57 141.5t143 52.5q67 0 117 -38t50 -82q0 -25 -13 -40.5t-33 -15.5q-23 0 -37.5 13t-14.5 36q0 17 11 32.5t29 22.5q-11 26 -43.5 45t-70.5 19q-61 0 -95 -37t-34 -113q0 -24 5.5 -49t11 -39.5t17.5 -42.5t16 -38h174z
" />
    <glyph glyph-name="yen" unicode="&#xa5;" horiz-adv-x="671" 
d="M84 313v12h197l-143 240q-31 52 -55.5 69t-74.5 21v5h288v-5q-80 0 -92.5 -22.5t20.5 -71.5l141 -251l121 210q39 65 27 96.5t-81 38.5v5h229v-5q-50 -3 -82.5 -31t-67.5 -89l-123 -210h193v-12h-200l-11 -19v-69h211v-12h-211v-142q0 -40 26 -52t102 -14v-5h-328v5
q84 1 106 12.5t22 53.5v142h-214v12h214v71l-10 17h-204z" />
    <glyph glyph-name="brokenbar" unicode="&#xa6;" horiz-adv-x="306" 
d="M160 337h-14v409h14v-409zM146 194h14v-409h-14v409z" />
    <glyph glyph-name="section" unicode="&#xa7;" horiz-adv-x="556" 
d="M94 258q0 50 33.5 85t83.5 50v1q-104 39 -104 126q0 69 53.5 111.5t123.5 42.5q74 0 126.5 -33.5t52.5 -76.5q0 -21 -11 -34t-31 -13q-21 0 -32 12.5t-11 30.5q0 32 32 50q-12 24 -44.5 39.5t-79.5 15.5q-58 0 -92.5 -30t-34.5 -87q0 -47 33.5 -70.5t117.5 -49.5
q38 -12 59.5 -20.5t48 -25t39 -41t12.5 -57.5q0 -44 -27 -82.5t-78 -57.5v-1q46 -20 69 -48t23 -73q0 -65 -47 -114t-136 -49q-86 0 -143 35t-57 84q0 21 13.5 36.5t34.5 15.5q20 0 32.5 -13.5t12.5 -31.5q0 -40 -37 -53q14 -29 53.5 -46.5t91.5 -17.5q68 0 102.5 32.5
t34.5 84.5q0 50 -33.5 75t-120.5 52l-48.5 16t-42.5 19t-38.5 26.5t-23.5 35.5t-10 49zM348 149q37 12 56.5 38t19.5 60q0 48 -32.5 73t-121.5 54q-10 4 -43 13q-81 -21 -81 -101q0 -46 36 -71t115 -49q22 -6 51 -17z" />
    <glyph glyph-name="dieresis" unicode="&#xa8;" horiz-adv-x="322" 
d="M240 530q-20 0 -33.5 14t-13.5 34q0 19 13 33t32 14q20 0 33.5 -14.5t13.5 -34.5q0 -19 -13 -32.5t-32 -13.5zM84 530q-20 0 -33.5 14t-13.5 34q0 19 13 33t32 14q20 0 33.5 -14.5t13.5 -34.5q0 -19 -13 -32.5t-32 -13.5z" />
    <glyph glyph-name="copyright" unicode="&#xa9;" horiz-adv-x="834" 
d="M417 -34q-162 0 -272.5 110t-110.5 273q0 161 110.5 271.5t272.5 110.5t272.5 -110.5t110.5 -271.5q0 -163 -110.5 -273t-272.5 -110zM417 -23q156 0 262.5 108.5t106.5 263.5t-106.5 263t-262.5 108t-262.5 -108t-106.5 -263t106.5 -263.5t262.5 -108.5zM423 149
q-76 0 -128 53t-52 143q0 96 54.5 153t135.5 57q62 0 103 -32l24 33h5v-141h-5q-33 83 -60 107t-74 24q-54 0 -90.5 -51.5t-36.5 -138.5q0 -86 41 -136.5t99 -50.5q91 0 133 95l6 -2q-21 -49 -60.5 -81t-94.5 -32z" />
    <glyph glyph-name="ordfeminine" unicode="&#xaa;" horiz-adv-x="435" 
d="M153 332q-43 0 -67.5 24t-24.5 60q0 47 44 74q49 30 165 42v59q0 49 -18 68t-59 19q-56 0 -70 -24q34 -6 34 -34q0 -18 -11 -29.5t-26 -11.5q-17 0 -27.5 11.5t-10.5 27.5q0 31 36 51.5t89 20.5q125 0 125 -99v-184q0 -39 15.5 -49t46.5 5l3 -5q-31 -23 -63 -23
q-60 0 -61 62h-2q-56 -65 -118 -65zM182 358q47 0 88 50v114q-87 -9 -116 -29t-29 -67q0 -68 57 -68z" />
    <glyph glyph-name="guillemotleft" unicode="&#xab;" horiz-adv-x="480" 
d="M418 28l-185 181q-10 10 -10 15q0 4 10 14l185 181l5 -3l-146 -191l146 -194zM238 28l-185 181q-10 10 -10 15q0 4 10 14l185 181l5 -3l-146 -191l146 -194z" />
    <glyph glyph-name="registered" unicode="&#xae;" horiz-adv-x="385" 
d="M191 423q-65 0 -109 44t-44 111t43.5 110t109.5 43q68 0 111.5 -43t43.5 -110t-44 -111t-111 -44zM191 432q65 0 104.5 41t39.5 105t-39.5 104t-104.5 40t-103.5 -40t-38.5 -104t39 -105t103 -41zM170 586h22q42 0 42 38q0 34 -46 34h-18v-72zM170 579v-59q0 -16 28 -16
v-5h-80v5q28 0 28 16v125q0 15 -28 15v5h73q68 0 68 -40q0 -36 -49 -42v-2q23 -1 32 -10t11 -30l1 -14q1 -14 7.5 -18.5t22.5 -4.5v-4q-11 -3 -23 -3q-18 0 -24.5 7t-7.5 24l-1 21q-1 18 -9.5 24t-29.5 6h-19z" />
    <glyph glyph-name="macron" unicode="&#xaf;" horiz-adv-x="321" 
d="M35 555v19h251v-19h-251z" />
    <glyph glyph-name="degree" unicode="&#xb0;" horiz-adv-x="376" 
d="M189 433q-60 0 -100 41t-40 99q0 57 41 99t97 42q60 0 99.5 -40.5t39.5 -98.5t-40.5 -100t-96.5 -42zM190 441q38 0 61.5 34t23.5 98t-25.5 98.5t-64.5 34.5q-37 0 -60.5 -34t-23.5 -97q0 -65 25.5 -99.5t63.5 -34.5z" />
    <glyph glyph-name="plusminus" unicode="&#xb1;" horiz-adv-x="530" 
d="M59 314v12h200v198h14v-198h198v-12h-198v-201h-14v201h-200zM59 0v12h412v-12h-412z" />
    <glyph glyph-name="acute" unicode="&#xb4;" horiz-adv-x="238" 
d="M59 525l26 55l20 43l15 33.5t11 23.5t9 17.5t7.5 10t9 5.5t11.5 1q14 0 24.5 -10t10.5 -24q0 -12 -8.5 -23t-52.5 -54l-38 -38l-40 -40h-5z" />
    <glyph glyph-name="paragraph" unicode="&#xb6;" horiz-adv-x="661" 
d="M367 -100v283q-133 3 -218 67t-85 172q0 106 80 172t221 66h259v-5q-84 -2 -103.5 -13.5t-19.5 -52.5v-689h-15v749h-103v-749h-16z" />
    <glyph glyph-name="periodcentered" unicode="&#xb7;" horiz-adv-x="200" 
d="M100 278q-21 0 -36 14.5t-15 34.5q0 22 15 36.5t36 14.5t36 -14.5t15 -34.5q0 -22 -15 -36.5t-36 -14.5z" />
    <glyph glyph-name="cedilla" unicode="&#xb8;" horiz-adv-x="282" 
d="M107 -243q-54 0 -90 37l3 4q32 -29 81 -29q34 0 50.5 19t16.5 47q0 30 -23.5 47t-58.5 17q-19 0 -35 -4l-3 4l101 94h15l-65 -60l1 -2q56 0 86 -23.5t30 -62.5q0 -38 -30.5 -63t-78.5 -25z" />
    <glyph glyph-name="ordmasculine" unicode="&#xba;" horiz-adv-x="446" 
d="M222 330q-72 0 -121.5 50.5t-49.5 128.5q0 77 51.5 129.5t121.5 52.5q72 0 121 -50.5t49 -128.5q0 -77 -51 -129.5t-121 -52.5zM227 339q102 0 102 170q0 86 -29.5 129.5t-79.5 43.5q-104 0 -104 -171q0 -86 29.5 -129t81.5 -43z" />
    <glyph glyph-name="guillemotright" unicode="&#xbb;" horiz-adv-x="480" 
d="M242 28l-5 3l146 191l-146 194l5 3l185 -181q10 -10 10 -15q0 -4 -10 -14zM62 28l-5 3l146 191l-146 194l5 3l185 -181q10 -10 10 -15q0 -4 -10 -14z" />
    <glyph glyph-name="questiondown" unicode="&#xbf;" horiz-adv-x="445" 
d="M263 624q-21 0 -36 14.5t-15 34.5q0 22 15 36.5t36 14.5t36 -14.5t15 -34.5q0 -22 -15 -36.5t-36 -14.5zM233 -17q-98 0 -156 50.5t-58 125.5q0 81 61.5 133t175.5 72v158h13v-167q-103 -18 -138.5 -61.5t-35.5 -133.5q0 -83 38 -125.5t105 -42.5q51 0 88 23t52 58
q-56 12 -56 56q0 20 13.5 36t36.5 16t38 -16.5t15 -42.5q0 -49 -56.5 -94t-135.5 -45z" />
    <glyph glyph-name="Agrave" unicode="&#xc0;" horiz-adv-x="690" 
d="M506 98l-66 176h-257l-51 -131q-34 -85 -21.5 -110t94.5 -28v-5h-225v5q54 4 78.5 30t61.5 119l224 565h6l229 -602q28 -74 47 -91.5t79 -21.5v-4h-289v5q80 2 96 21.5t-6 71.5zM187 285h249l-121 325h-2zM380 765l-40 40l-31 31q-48 47 -57.5 59t-9.5 25q0 14 10.5 24
t24.5 10q7 0 11 -1t9 -5.5t8 -10t8.5 -17.5l10.5 -23.5l15 -33.5l20 -43l26 -55h-5z" />
    <glyph glyph-name="Aacute" unicode="&#xc1;" horiz-adv-x="690" 
d="M506 98l-66 176h-257l-51 -131q-34 -85 -21.5 -110t94.5 -28v-5h-225v5q54 4 78.5 30t61.5 119l224 565h6l229 -602q28 -74 47 -91.5t79 -21.5v-4h-289v5q80 2 96 21.5t-6 71.5zM187 285h249l-121 325h-2zM322 765l26 55l20 43l15 33.5t11 23.5t9 17.5t7.5 10t9 5.5
t11.5 1q14 0 24.5 -10t10.5 -24q0 -12 -8.5 -23t-52.5 -54l-38 -38l-40 -40h-5z" />
    <glyph glyph-name="Acircumflex" unicode="&#xc2;" horiz-adv-x="690" 
d="M506 98l-66 176h-257l-51 -131q-34 -85 -21.5 -110t94.5 -28v-5h-225v5q54 4 78.5 30t61.5 119l224 565h6l229 -602q28 -74 47 -91.5t79 -21.5v-4h-289v5q80 2 96 21.5t-6 71.5zM187 285h249l-121 325h-2zM222 755l128 176h5l120 -176h-8l-118 101l-119 -101h-8z" />
    <glyph glyph-name="Atilde" unicode="&#xc3;" horiz-adv-x="690" 
d="M506 98l-66 176h-257l-51 -131q-34 -85 -21.5 -110t94.5 -28v-5h-225v5q54 4 78.5 30t61.5 119l224 565h6l229 -602q28 -74 47 -91.5t79 -21.5v-4h-289v5q80 2 96 21.5t-6 71.5zM187 285h249l-121 325h-2zM199 760q18 113 84 113q26 0 79.5 -25t73.5 -25q39 0 56 63h5
q-18 -113 -84 -113q-26 0 -79.5 25t-73.5 25q-39 0 -56 -63h-5z" />
    <glyph glyph-name="Adieresis" unicode="&#xc4;" horiz-adv-x="690" 
d="M506 98l-66 176h-257l-51 -131q-34 -85 -21.5 -110t94.5 -28v-5h-225v5q54 4 78.5 30t61.5 119l224 565h6l229 -602q28 -74 47 -91.5t79 -21.5v-4h-289v5q80 2 96 21.5t-6 71.5zM187 285h249l-121 325h-2zM427 770q-20 0 -33.5 14t-13.5 34q0 19 13 33t32 14
q20 0 33.5 -14.5t13.5 -34.5q0 -19 -13 -32.5t-32 -13.5zM271 770q-20 0 -33.5 14t-13.5 34q0 19 13 33t32 14q20 0 33.5 -14.5t13.5 -34.5q0 -19 -13 -32.5t-32 -13.5z" />
    <glyph glyph-name="Aring" unicode="&#xc5;" horiz-adv-x="690" 
d="M347 711q28 0 44 25.5t16 68.5q0 94 -60 94t-60 -94q0 -43 16 -68.5t44 -25.5zM183 274l-51 -131q-34 -85 -21.5 -110t94.5 -28v-5h-225v5q54 4 78.5 30t61.5 119l218 549q-40 4 -66.5 33.5t-26.5 68.5q0 42 29.5 72t72.5 30q42 0 72 -30t30 -72q0 -39 -26.5 -68.5
t-66.5 -33.5l223 -586q28 -74 47 -91.5t79 -21.5v-4h-289v5q80 2 96 21.5t-6 71.5l-66 176h-257zM436 285l-121 325h-2l-126 -325h249z" />
    <glyph glyph-name="AE" unicode="&#xc6;" horiz-adv-x="987" 
d="M240 288l-92 -145q-50 -80 -50 -103q0 -19 20.5 -26t67.5 -9v-5h-225v5q56 4 86.5 29.5t91.5 119.5l291 452q17 26 17 44q0 38 -98 42v5h563l3 -194l-5 -1q-44 120 -69 152.5t-81 32.5h-206v-320h127q44 0 60.5 25.5t36.5 111.5h5v-284h-5q-20 86 -36.5 111.5t-60.5 25.5
h-127v-347h239q55 0 79.5 34t68.5 163l5 -1l-5 -206h-585v5q84 2 103.5 13.5t19.5 52.5v217h-239zM479 299v361h-2l-230 -361h232z" />
    <glyph glyph-name="Ccedilla" unicode="&#xc7;" horiz-adv-x="691" 
d="M381 -17q-141 0 -235 94.5t-94 262.5q0 159 100 265t247 106q90 0 178 -50l42 56h5v-223h-5q-44 92 -78.5 136.5t-65.5 58t-82 13.5q-110 0 -182.5 -87.5t-72.5 -265.5q0 -159 82 -249t191 -90q85 0 138.5 44t98.5 132l7 -3q-84 -190 -259 -199l-54 -51l1 -2
q56 0 86 -23.5t30 -62.5q0 -38 -30.5 -63t-78.5 -25q-54 0 -90 37l3 4q32 -29 81 -29q34 0 50.5 19t16.5 47q0 30 -23.5 47t-58.5 17q-19 0 -35 -4l-3 4z" />
    <glyph glyph-name="Egrave" unicode="&#xc8;" horiz-adv-x="650" 
d="M19 0v5q84 2 103.5 13.5t19.5 52.5v555q0 41 -19.5 52.5t-103.5 13.5v5h556l3 -194l-5 -1q-44 120 -69 152.5t-81 32.5h-206v-320h127q44 0 60.5 25.5t36.5 111.5h5v-284h-5q-20 86 -36.5 111.5t-60.5 25.5h-127v-347h239q55 0 79.5 34t68.5 163l5 -1l-5 -206h-585z
M387 765l-40 40l-31 31q-48 47 -57.5 59t-9.5 25q0 14 10.5 24t24.5 10q7 0 11 -1t9 -5.5t8 -10t8.5 -17.5l10.5 -23.5l15 -33.5l20 -43l26 -55h-5z" />
    <glyph glyph-name="Eacute" unicode="&#xc9;" horiz-adv-x="650" 
d="M19 0v5q84 2 103.5 13.5t19.5 52.5v555q0 41 -19.5 52.5t-103.5 13.5v5h556l3 -194l-5 -1q-44 120 -69 152.5t-81 32.5h-206v-320h127q44 0 60.5 25.5t36.5 111.5h5v-284h-5q-20 86 -36.5 111.5t-60.5 25.5h-127v-347h239q55 0 79.5 34t68.5 163l5 -1l-5 -206h-585z
M329 765l26 55l20 43l15 33.5t11 23.5t9 17.5t7.5 10t9 5.5t11.5 1q14 0 24.5 -10t10.5 -24q0 -12 -8.5 -23t-52.5 -54l-38 -38l-40 -40h-5z" />
    <glyph glyph-name="Ecircumflex" unicode="&#xca;" horiz-adv-x="650" 
d="M19 0v5q84 2 103.5 13.5t19.5 52.5v555q0 41 -19.5 52.5t-103.5 13.5v5h556l3 -194l-5 -1q-44 120 -69 152.5t-81 32.5h-206v-320h127q44 0 60.5 25.5t36.5 111.5h5v-284h-5q-20 86 -36.5 111.5t-60.5 25.5h-127v-347h239q55 0 79.5 34t68.5 163l5 -1l-5 -206h-585z
M229 765l128 176h5l120 -176h-8l-118 101l-119 -101h-8z" />
    <glyph glyph-name="Edieresis" unicode="&#xcb;" horiz-adv-x="650" 
d="M19 0v5q84 2 103.5 13.5t19.5 52.5v555q0 41 -19.5 52.5t-103.5 13.5v5h556l3 -194l-5 -1q-44 120 -69 152.5t-81 32.5h-206v-320h127q44 0 60.5 25.5t36.5 111.5h5v-284h-5q-20 86 -36.5 111.5t-60.5 25.5h-127v-347h239q55 0 79.5 34t68.5 163l5 -1l-5 -206h-585z
M434 770q-20 0 -33.5 14t-13.5 34q0 19 13 33t32 14q20 0 33.5 -14.5t13.5 -34.5q0 -19 -13 -32.5t-32 -13.5zM278 770q-20 0 -33.5 14t-13.5 34q0 19 13 33t32 14q20 0 33.5 -14.5t13.5 -34.5q0 -19 -13 -32.5t-32 -13.5z" />
    <glyph glyph-name="Igrave" unicode="&#xcc;" horiz-adv-x="368" 
d="M19 0v5q85 1 106 12.5t21 53.5v555q0 42 -21 53.5t-106 12.5v5h329v-5q-85 -1 -106 -12.5t-21 -53.5v-555q0 -42 21 -53.5t106 -12.5v-5h-329zM215 765l-40 40l-31 31q-48 47 -57.5 59t-9.5 25q0 14 10.5 24t24.5 10q7 0 11 -1t9 -5.5t8 -10t8.5 -17.5l10.5 -23.5
l15 -33.5l20 -43l26 -55h-5z" />
    <glyph glyph-name="Iacute" unicode="&#xcd;" horiz-adv-x="368" 
d="M19 0v5q85 1 106 12.5t21 53.5v555q0 42 -21 53.5t-106 12.5v5h329v-5q-85 -1 -106 -12.5t-21 -53.5v-555q0 -42 21 -53.5t106 -12.5v-5h-329zM157 765l26 55l20 43l15 33.5t11 23.5t9 17.5t7.5 10t9 5.5t11.5 1q14 0 24.5 -10t10.5 -24q0 -12 -8.5 -23t-52.5 -54
l-38 -38l-40 -40h-5z" />
    <glyph glyph-name="Icircumflex" unicode="&#xce;" horiz-adv-x="368" 
d="M19 0v5q85 1 106 12.5t21 53.5v555q0 42 -21 53.5t-106 12.5v5h329v-5q-85 -1 -106 -12.5t-21 -53.5v-555q0 -42 21 -53.5t106 -12.5v-5h-329zM57 765l128 176h5l120 -176h-8l-118 101l-119 -101h-8z" />
    <glyph glyph-name="Idieresis" unicode="&#xcf;" horiz-adv-x="368" 
d="M19 0v5q85 1 106 12.5t21 53.5v555q0 42 -21 53.5t-106 12.5v5h329v-5q-85 -1 -106 -12.5t-21 -53.5v-555q0 -42 21 -53.5t106 -12.5v-5h-329zM262 770q-20 0 -33.5 14t-13.5 34q0 19 13 33t32 14q20 0 33.5 -14.5t13.5 -34.5q0 -19 -13 -32.5t-32 -13.5zM106 770
q-20 0 -33.5 14t-13.5 34q0 19 13 33t32 14q20 0 33.5 -14.5t13.5 -34.5q0 -19 -13 -32.5t-32 -13.5z" />
    <glyph glyph-name="Eth" unicode="&#xd0;" horiz-adv-x="742" 
d="M19 0v5q84 2 103.5 13.5t19.5 52.5v286h-90v12h90v257q0 41 -19.5 52.5t-103.5 13.5v5h296q178 0 276.5 -94.5t98.5 -242.5q0 -70 -23 -133.5t-67 -114.5t-116.5 -81.5t-163.5 -30.5h-301zM217 10h81q166 0 235.5 76.5t69.5 267.5q0 188 -71.5 260.5t-221.5 72.5h-93
v-318h172v-12h-172v-347z" />
    <glyph glyph-name="Ntilde" unicode="&#xd1;" horiz-adv-x="749" 
d="M627 -17l-475 646h-2v-544q0 -44 20.5 -57.5t103.5 -22.5v-5h-257v5q80 9 100.5 23t20.5 57v525q0 38 -24.5 56.5t-96.5 26.5v4h180l422 -574h2v489q0 44 -20.5 57.5t-103.5 22.5v5h252v-5q-77 -9 -96.5 -23.5t-19.5 -56.5v-629h-6zM246 760q18 113 84 113q26 0 79.5 -25
t73.5 -25q39 0 56 63h5q-18 -113 -84 -113q-26 0 -79.5 25t-73.5 25q-39 0 -56 -63h-5z" />
    <glyph glyph-name="Ograve" unicode="&#xd2;" horiz-adv-x="758" 
d="M378 -17q-133 0 -229.5 100.5t-96.5 263.5q0 160 99.5 263.5t228.5 103.5q133 0 229.5 -100.5t96.5 -263.5q0 -160 -99.5 -263.5t-228.5 -103.5zM380 -8q239 0 239 356q0 357 -241 357q-239 0 -239 -356q0 -357 241 -357zM411 765l-40 40l-31 31q-48 47 -57.5 59t-9.5 25
q0 14 10.5 24t24.5 10q7 0 11 -1t9 -5.5t8 -10t8.5 -17.5l10.5 -23.5l15 -33.5l20 -43l26 -55h-5z" />
    <glyph glyph-name="Oacute" unicode="&#xd3;" horiz-adv-x="758" 
d="M378 -17q-133 0 -229.5 100.5t-96.5 263.5q0 160 99.5 263.5t228.5 103.5q133 0 229.5 -100.5t96.5 -263.5q0 -160 -99.5 -263.5t-228.5 -103.5zM380 -8q239 0 239 356q0 357 -241 357q-239 0 -239 -356q0 -357 241 -357zM353 765l26 55l20 43l15 33.5t11 23.5t9 17.5
t7.5 10t9 5.5t11.5 1q14 0 24.5 -10t10.5 -24q0 -12 -8.5 -23t-52.5 -54l-38 -38l-40 -40h-5z" />
    <glyph glyph-name="Ocircumflex" unicode="&#xd4;" horiz-adv-x="758" 
d="M378 -17q-133 0 -229.5 100.5t-96.5 263.5q0 160 99.5 263.5t228.5 103.5q133 0 229.5 -100.5t96.5 -263.5q0 -160 -99.5 -263.5t-228.5 -103.5zM380 -8q239 0 239 356q0 357 -241 357q-239 0 -239 -356q0 -357 241 -357zM253 765l128 176h5l120 -176h-8l-118 101
l-119 -101h-8z" />
    <glyph glyph-name="Otilde" unicode="&#xd5;" horiz-adv-x="758" 
d="M378 -17q-133 0 -229.5 100.5t-96.5 263.5q0 160 99.5 263.5t228.5 103.5q133 0 229.5 -100.5t96.5 -263.5q0 -160 -99.5 -263.5t-228.5 -103.5zM380 -8q239 0 239 356q0 357 -241 357q-239 0 -239 -356q0 -357 241 -357zM230 760q18 113 84 113q26 0 79.5 -25t73.5 -25
q39 0 56 63h5q-18 -113 -84 -113q-26 0 -79.5 25t-73.5 25q-39 0 -56 -63h-5z" />
    <glyph glyph-name="Odieresis" unicode="&#xd6;" horiz-adv-x="758" 
d="M378 -17q-133 0 -229.5 100.5t-96.5 263.5q0 160 99.5 263.5t228.5 103.5q133 0 229.5 -100.5t96.5 -263.5q0 -160 -99.5 -263.5t-228.5 -103.5zM380 -8q239 0 239 356q0 357 -241 357q-239 0 -239 -356q0 -357 241 -357zM458 770q-20 0 -33.5 14t-13.5 34q0 19 13 33
t32 14q20 0 33.5 -14.5t13.5 -34.5q0 -19 -13 -32.5t-32 -13.5zM302 770q-20 0 -33.5 14t-13.5 34q0 19 13 33t32 14q20 0 33.5 -14.5t13.5 -34.5q0 -19 -13 -32.5t-32 -13.5z" />
    <glyph glyph-name="multiply" unicode="&#xd7;" horiz-adv-x="556" 
d="M460 516l10 -10l-182 -182l183 -182l-10 -10l-183 182l-181 -181l-10 10l181 181l-181 182l10 10l181 -182z" />
    <glyph glyph-name="Oslash" unicode="&#xd8;" horiz-adv-x="758" 
d="M378 -17q-123 0 -214 85l-83 -105h-18l91 115q-102 104 -102 269q0 160 99.5 263.5t228.5 103.5q122 0 213 -85l84 105h18l-92 -115q103 -105 103 -269q0 -160 -99.5 -263.5t-228.5 -103.5zM378 705q-239 0 -239 -356q0 -151 42 -237l388 486q-60 107 -191 107zM380 -8
q239 0 239 356q0 149 -43 237l-387 -487q60 -106 191 -106z" />
    <glyph glyph-name="Ugrave" unicode="&#xd9;" horiz-adv-x="756" 
d="M390 -14q-122 0 -190 58.5t-68 177.5v404q0 41 -19.5 52.5t-103.5 13.5v5h313v-5q-78 -2 -96.5 -13t-18.5 -51v-389q0 -123 52.5 -177.5t157.5 -54.5q90 0 138 48q64 64 64 176v381q0 44 -20.5 57.5t-103.5 22.5v5h252v-5q-77 -9 -96.5 -23.5t-19.5 -56.5v-384
q0 -112 -63 -177t-178 -65zM432 765l-40 40l-31 31q-48 47 -57.5 59t-9.5 25q0 14 10.5 24t24.5 10q7 0 11 -1t9 -5.5t8 -10t8.5 -17.5l10.5 -23.5l15 -33.5l20 -43l26 -55h-5z" />
    <glyph glyph-name="Uacute" unicode="&#xda;" horiz-adv-x="756" 
d="M390 -14q-122 0 -190 58.5t-68 177.5v404q0 41 -19.5 52.5t-103.5 13.5v5h313v-5q-78 -2 -96.5 -13t-18.5 -51v-389q0 -123 52.5 -177.5t157.5 -54.5q90 0 138 48q64 64 64 176v381q0 44 -20.5 57.5t-103.5 22.5v5h252v-5q-77 -9 -96.5 -23.5t-19.5 -56.5v-384
q0 -112 -63 -177t-178 -65zM374 765l26 55l20 43l15 33.5t11 23.5t9 17.5t7.5 10t9 5.5t11.5 1q14 0 24.5 -10t10.5 -24q0 -12 -8.5 -23t-52.5 -54l-38 -38l-40 -40h-5z" />
    <glyph glyph-name="Ucircumflex" unicode="&#xdb;" horiz-adv-x="756" 
d="M390 -14q-122 0 -190 58.5t-68 177.5v404q0 41 -19.5 52.5t-103.5 13.5v5h313v-5q-78 -2 -96.5 -13t-18.5 -51v-389q0 -123 52.5 -177.5t157.5 -54.5q90 0 138 48q64 64 64 176v381q0 44 -20.5 57.5t-103.5 22.5v5h252v-5q-77 -9 -96.5 -23.5t-19.5 -56.5v-384
q0 -112 -63 -177t-178 -65zM274 765l128 176h5l120 -176h-8l-118 101l-119 -101h-8z" />
    <glyph glyph-name="Udieresis" unicode="&#xdc;" horiz-adv-x="756" 
d="M390 -14q-122 0 -190 58.5t-68 177.5v404q0 41 -19.5 52.5t-103.5 13.5v5h313v-5q-78 -2 -96.5 -13t-18.5 -51v-389q0 -123 52.5 -177.5t157.5 -54.5q90 0 138 48q64 64 64 176v381q0 44 -20.5 57.5t-103.5 22.5v5h252v-5q-77 -9 -96.5 -23.5t-19.5 -56.5v-384
q0 -112 -63 -177t-178 -65zM479 770q-20 0 -33.5 14t-13.5 34q0 19 13 33t32 14q20 0 33.5 -14.5t13.5 -34.5q0 -19 -13 -32.5t-32 -13.5zM323 770q-20 0 -33.5 14t-13.5 34q0 19 13 33t32 14q20 0 33.5 -14.5t13.5 -34.5q0 -19 -13 -32.5t-32 -13.5z" />
    <glyph glyph-name="Yacute" unicode="&#xdd;" horiz-adv-x="652" 
d="M357 329l143 245q39 67 28 90.5t-86 27.5v5h231v-5q-60 -4 -88 -27t-72 -98l-147 -248v-248q0 -40 25 -51.5t101 -13.5v-6h-327v5q84 1 105 12.5t21 53.5v232l-172 299q-33 56 -55 72t-74 19v4h291v-5q-83 -1 -96.5 -20t20.5 -73zM329 765l26 55l20 43l15 33.5t11 23.5
t9 17.5t7.5 10t9 5.5t11.5 1q14 0 24.5 -10t10.5 -24q0 -12 -8.5 -23t-52.5 -54l-38 -38l-40 -40h-5z" />
    <glyph glyph-name="Thorn" unicode="&#xde;" horiz-adv-x="606" 
d="M19 0v5q84 2 103.5 13.5t19.5 52.5v555q0 41 -19.5 52.5t-103.5 13.5v5h325v-5q-85 -1 -106 -12.5t-21 -53.5v-77h82q129 0 201 -51.5t72 -136.5q0 -83 -73.5 -139t-206.5 -56h-75v-95q0 -42 21 -53.5t106 -12.5v-5h-325zM217 177h78q111 0 151 44t40 137q0 87 -41 134
t-148 47h-80v-362z" />
    <glyph glyph-name="germandbls" unicode="&#xdf;" horiz-adv-x="539" 
d="M370 -11q-54 0 -92 29.5t-38 64.5q0 17 10.5 29t27.5 12t26.5 -11t9.5 -26q0 -24 -26 -41q27 -48 86 -48q43 0 71 25t28 64q0 40 -26.5 65.5t-75.5 51.5q-33 17 -52.5 31t-36.5 39.5t-17 55.5q0 51 52 101q27 27 39 41t22.5 42.5t10.5 65.5q0 69 -30 101.5t-80 32.5
q-57 0 -85 -36.5t-28 -130.5v-547h-149v5q46 1 63.5 8.5t17.5 31.5v397h-90v9l90 4v55q0 107 52 160t130 53q72 0 124 -39.5t52 -96.5q0 -42 -22.5 -72t-77.5 -68q-28 -19 -40 -35t-12 -40q0 -35 26.5 -60t75.5 -51q34 -18 55 -33t39 -41t18 -57q0 -62 -42.5 -101.5
t-105.5 -39.5z" />
    <glyph glyph-name="agrave" unicode="&#xe0;" horiz-adv-x="470" 
d="M160 -6q-56 0 -87.5 31t-31.5 74q0 65 66 101q56 30 210 53v72q0 68 -25.5 95.5t-82.5 27.5q-72 0 -97 -39q43 -7 43 -46q0 -21 -12.5 -34t-31.5 -13q-21 0 -33 13.5t-12 33.5q0 42 47 69.5t111 27.5q76 0 118.5 -31t42.5 -96v-254q0 -45 20 -57t65 6l2 -3
q-40 -29 -81 -29q-73 0 -73 82h-1q-74 -84 -157 -84zM193 25q70 0 124 66v152q-124 -16 -164.5 -43t-40.5 -88q0 -87 81 -87zM262 525l-40 40l-31 31q-48 47 -57.5 59t-9.5 25q0 14 10.5 24t24.5 10q7 0 11 -1t9 -5.5t8 -10t8.5 -17.5l10.5 -23.5l15 -33.5l20 -43l26 -55h-5
z" />
    <glyph glyph-name="aacute" unicode="&#xe1;" horiz-adv-x="470" 
d="M160 -6q-56 0 -87.5 31t-31.5 74q0 65 66 101q56 30 210 53v72q0 68 -25.5 95.5t-82.5 27.5q-72 0 -97 -39q43 -7 43 -46q0 -21 -12.5 -34t-31.5 -13q-21 0 -33 13.5t-12 33.5q0 42 47 69.5t111 27.5q76 0 118.5 -31t42.5 -96v-254q0 -45 20 -57t65 6l2 -3
q-40 -29 -81 -29q-73 0 -73 82h-1q-74 -84 -157 -84zM193 25q70 0 124 66v152q-124 -16 -164.5 -43t-40.5 -88q0 -87 81 -87zM204 525l26 55l20 43l15 33.5t11 23.5t9 17.5t7.5 10t9 5.5t11.5 1q14 0 24.5 -10t10.5 -24q0 -12 -8.5 -23t-52.5 -54l-38 -38l-40 -40h-5z" />
    <glyph glyph-name="acircumflex" unicode="&#xe2;" horiz-adv-x="470" 
d="M160 -6q-56 0 -87.5 31t-31.5 74q0 65 66 101q56 30 210 53v72q0 68 -25.5 95.5t-82.5 27.5q-72 0 -97 -39q43 -7 43 -46q0 -21 -12.5 -34t-31.5 -13q-21 0 -33 13.5t-12 33.5q0 42 47 69.5t111 27.5q76 0 118.5 -31t42.5 -96v-254q0 -45 20 -57t65 6l2 -3
q-40 -29 -81 -29q-73 0 -73 82h-1q-74 -84 -157 -84zM193 25q70 0 124 66v152q-124 -16 -164.5 -43t-40.5 -88q0 -87 81 -87zM104 525l128 176h5l120 -176h-8l-118 101l-119 -101h-8z" />
    <glyph glyph-name="atilde" unicode="&#xe3;" horiz-adv-x="470" 
d="M160 -6q-56 0 -87.5 31t-31.5 74q0 65 66 101q56 30 210 53v72q0 68 -25.5 95.5t-82.5 27.5q-72 0 -97 -39q43 -7 43 -46q0 -21 -12.5 -34t-31.5 -13q-21 0 -33 13.5t-12 33.5q0 42 47 69.5t111 27.5q76 0 118.5 -31t42.5 -96v-254q0 -45 20 -57t65 6l2 -3
q-40 -29 -81 -29q-73 0 -73 82h-1q-74 -84 -157 -84zM193 25q70 0 124 66v152q-124 -16 -164.5 -43t-40.5 -88q0 -87 81 -87zM81 520q18 113 84 113q26 0 79.5 -25t73.5 -25q39 0 56 63h5q-18 -113 -84 -113q-26 0 -79.5 25t-73.5 25q-39 0 -56 -63h-5z" />
    <glyph glyph-name="adieresis" unicode="&#xe4;" horiz-adv-x="470" 
d="M160 -6q-56 0 -87.5 31t-31.5 74q0 65 66 101q56 30 210 53v72q0 68 -25.5 95.5t-82.5 27.5q-72 0 -97 -39q43 -7 43 -46q0 -21 -12.5 -34t-31.5 -13q-21 0 -33 13.5t-12 33.5q0 42 47 69.5t111 27.5q76 0 118.5 -31t42.5 -96v-254q0 -45 20 -57t65 6l2 -3
q-40 -29 -81 -29q-73 0 -73 82h-1q-74 -84 -157 -84zM193 25q70 0 124 66v152q-124 -16 -164.5 -43t-40.5 -88q0 -87 81 -87zM309 530q-20 0 -33.5 14t-13.5 34q0 19 13 33t32 14q20 0 33.5 -14.5t13.5 -34.5q0 -19 -13 -32.5t-32 -13.5zM153 530q-20 0 -33.5 14t-13.5 34
q0 19 13 33t32 14q20 0 33.5 -14.5t13.5 -34.5q0 -19 -13 -32.5t-32 -13.5z" />
    <glyph glyph-name="aring" unicode="&#xe5;" horiz-adv-x="470" 
d="M160 -6q-56 0 -87.5 31t-31.5 74q0 65 66 101q56 30 210 53v72q0 68 -25.5 95.5t-82.5 27.5q-72 0 -97 -39q43 -7 43 -46q0 -21 -12.5 -34t-31.5 -13q-21 0 -33 13.5t-12 33.5q0 42 47 69.5t111 27.5q76 0 118.5 -31t42.5 -96v-254q0 -45 20 -57t65 6l2 -3
q-40 -29 -81 -29q-73 0 -73 82h-1q-74 -84 -157 -84zM193 25q70 0 124 66v152q-124 -16 -164.5 -43t-40.5 -88q0 -87 81 -87zM230 530q-43 0 -72.5 30t-29.5 72t29.5 72t72.5 30q42 0 72 -30t30 -72t-29.5 -72t-72.5 -30zM230 538q28 0 44 25.5t16 68.5q0 94 -60 94t-60 -94
q0 -43 16 -68.5t44 -25.5z" />
    <glyph glyph-name="ae" unicode="&#xe6;" horiz-adv-x="755" 
d="M536 464q88 0 138 -59.5t45 -144.5h-324q-1 -12 -1 -35v-1q0 -98 43 -155t114 -57q89 0 162 102l7 -5q-78 -120 -187 -120q-64 0 -111.5 33.5t-70.5 93.5h-2q-62 -122 -189 -122q-56 0 -87.5 31t-31.5 74q0 65 66 101q53 29 217 53v72q0 67 -28.5 95t-86.5 28
q-72 0 -97 -39q43 -7 43 -46q0 -21 -12.5 -34t-31.5 -13q-21 0 -33 13.5t-12 33.5q0 42 47 69.5t111 27.5q122 0 151 -80q59 84 161 84zM534 455q-58 0 -94 -48.5t-44 -135.5h253q3 85 -24.5 134.5t-90.5 49.5zM200 25q38 0 72 19t52 53v146q-125 -16 -168.5 -43.5
t-43.5 -87.5q0 -44 24 -65.5t64 -21.5z" />
    <glyph glyph-name="ccedilla" unicode="&#xe7;" horiz-adv-x="454" 
d="M222 -243q-54 0 -90 37l3 4q32 -29 81 -29q34 0 50.5 19t16.5 47q0 30 -23.5 47t-58.5 17q-19 0 -35 -4l-3 4l97 91q-2 0 -6 -0.5t-5 -0.5q-95 0 -154 65t-59 166q0 100 68 172t157 72q64 0 107 -27.5t43 -63.5q0 -21 -13.5 -34.5t-32.5 -13.5t-32.5 13t-13.5 33
q0 31 36 52q-32 32 -96 32q-63 0 -107 -59t-44 -165q0 -93 46 -150t128 -57q72 0 139 79l7 -5q-34 -45 -69.5 -72.5t-81.5 -34.5l-63 -58l1 -2q56 0 86 -23.5t30 -62.5q0 -38 -30.5 -63t-78.5 -25z" />
    <glyph glyph-name="egrave" unicode="&#xe8;" 
d="M247 -11q-91 0 -151 63t-60 166q0 98 62.5 172t151.5 74q88 0 138 -59.5t45 -144.5h-324q-1 -12 -1 -35v-1q0 -98 43 -155t114 -57q89 0 162 102l7 -5q-78 -120 -187 -120zM248 455q-58 0 -94 -48.5t-44 -135.5h253q3 85 -24.5 134.5t-90.5 49.5zM282 525l-40 40l-31 31
q-48 47 -57.5 59t-9.5 25q0 14 10.5 24t24.5 10q7 0 11 -1t9 -5.5t8 -10t8.5 -17.5l10.5 -23.5l15 -33.5l20 -43l26 -55h-5z" />
    <glyph glyph-name="eacute" unicode="&#xe9;" 
d="M247 -11q-91 0 -151 63t-60 166q0 98 62.5 172t151.5 74q88 0 138 -59.5t45 -144.5h-324q-1 -12 -1 -35v-1q0 -98 43 -155t114 -57q89 0 162 102l7 -5q-78 -120 -187 -120zM248 455q-58 0 -94 -48.5t-44 -135.5h253q3 85 -24.5 134.5t-90.5 49.5zM224 525l26 55l20 43
l15 33.5t11 23.5t9 17.5t7.5 10t9 5.5t11.5 1q14 0 24.5 -10t10.5 -24q0 -12 -8.5 -23t-52.5 -54l-38 -38l-40 -40h-5z" />
    <glyph glyph-name="ecircumflex" unicode="&#xea;" 
d="M247 -11q-91 0 -151 63t-60 166q0 98 62.5 172t151.5 74q88 0 138 -59.5t45 -144.5h-324q-1 -12 -1 -35v-1q0 -98 43 -155t114 -57q89 0 162 102l7 -5q-78 -120 -187 -120zM248 455q-58 0 -94 -48.5t-44 -135.5h253q3 85 -24.5 134.5t-90.5 49.5zM124 525l128 176h5
l120 -176h-8l-118 101l-119 -101h-8z" />
    <glyph glyph-name="edieresis" unicode="&#xeb;" 
d="M247 -11q-91 0 -151 63t-60 166q0 98 62.5 172t151.5 74q88 0 138 -59.5t45 -144.5h-324q-1 -12 -1 -35v-1q0 -98 43 -155t114 -57q89 0 162 102l7 -5q-78 -120 -187 -120zM248 455q-58 0 -94 -48.5t-44 -135.5h253q3 85 -24.5 134.5t-90.5 49.5zM329 530q-20 0 -33.5 14
t-13.5 34q0 19 13 33t32 14q20 0 33.5 -14.5t13.5 -34.5q0 -19 -13 -32.5t-32 -13.5zM173 530q-20 0 -33.5 14t-13.5 34q0 19 13 33t32 14q20 0 33.5 -14.5t13.5 -34.5q0 -19 -13 -32.5t-32 -13.5z" />
    <glyph glyph-name="igrave" unicode="&#xec;" horiz-adv-x="254" 
d="M16 0v5q46 1 63.5 8.5t17.5 31.5v357q0 24 -14 33t-67 13v5l149 6v-414q0 -24 15.5 -31t60.5 -9v-5h-225zM152 525l-40 40l-31 31q-48 47 -57.5 59t-9.5 25q0 14 10.5 24t24.5 10q7 0 11 -1t9 -5.5t8 -10t8.5 -17.5l10.5 -23.5l15 -33.5l20 -43l26 -55h-5z" />
    <glyph glyph-name="iacute" unicode="&#xed;" horiz-adv-x="254" 
d="M16 0v5q46 1 63.5 8.5t17.5 31.5v357q0 24 -14 33t-67 13v5l149 6v-414q0 -24 15.5 -31t60.5 -9v-5h-225zM94 525l26 55l20 43l15 33.5t11 23.5t9 17.5t7.5 10t9 5.5t11.5 1q14 0 24.5 -10t10.5 -24q0 -12 -8.5 -23t-52.5 -54l-38 -38l-40 -40h-5z" />
    <glyph glyph-name="icircumflex" unicode="&#xee;" horiz-adv-x="254" 
d="M16 0v5q46 1 63.5 8.5t17.5 31.5v357q0 24 -14 33t-67 13v5l149 6v-414q0 -24 15.5 -31t60.5 -9v-5h-225zM-6 525l128 176h5l120 -176h-8l-118 101l-119 -101h-8z" />
    <glyph glyph-name="idieresis" unicode="&#xef;" horiz-adv-x="254" 
d="M16 0v5q46 1 63.5 8.5t17.5 31.5v357q0 24 -14 33t-67 13v5l149 6v-414q0 -24 15.5 -31t60.5 -9v-5h-225zM199 530q-20 0 -33.5 14t-13.5 34q0 19 13 33t32 14q20 0 33.5 -14.5t13.5 -34.5q0 -19 -13 -32.5t-32 -13.5zM43 530q-20 0 -33.5 14t-13.5 34q0 19 13 33t32 14
q20 0 33.5 -14.5t13.5 -34.5q0 -19 -13 -32.5t-32 -13.5z" />
    <glyph glyph-name="eth" unicode="&#xf0;" horiz-adv-x="528" 
d="M431 660l-92 -46q143 -121 143 -306q0 -143 -63.5 -231t-151.5 -88q-90 0 -155.5 67t-65.5 169q0 101 67.5 170t154.5 69q35 0 67 -18.5t52 -47.5l4 2q-18 118 -86 197l-128 -63l-5 10l125 62q-56 62 -148 104l2 6q104 -34 179 -94l96 48zM272 -3q58 0 96 63.5t38 183.5
q0 98 -37.5 155t-105.5 57q-142 0 -142 -229q0 -118 41.5 -174t109.5 -56z" />
    <glyph glyph-name="ntilde" unicode="&#xf1;" horiz-adv-x="531" 
d="M13 0v5q46 1 63.5 8.5t17.5 31.5v357q0 24 -14 33t-67 13v5l148 6v-119q33 54 78 89t94 35q59 0 90 -36.5t31 -102.5v-280q0 -24 16 -31t59 -9v-5h-214v5q42 2 56.5 9t14.5 31v264q0 117 -88 117q-38 0 -75 -29t-61 -75v-277q0 -24 14.5 -31t56.5 -9v-5h-220zM131 520
q18 113 84 113q26 0 79.5 -25t73.5 -25q39 0 56 63h5q-18 -113 -84 -113q-26 0 -79.5 25t-73.5 25q-39 0 -56 -63h-5z" />
    <glyph glyph-name="ograve" unicode="&#xf2;" horiz-adv-x="515" 
d="M257 -11q-90 0 -155.5 67t-65.5 169q0 101 67.5 170t154.5 69q90 0 155.5 -67t65.5 -169q0 -101 -67.5 -170t-154.5 -69zM262 -3q142 0 142 229q0 118 -41.5 174t-109.5 56q-142 0 -142 -229q0 -118 41.5 -174t109.5 -56zM289 525l-40 40l-31 31q-48 47 -57.5 59t-9.5 25
q0 14 10.5 24t24.5 10q7 0 11 -1t9 -5.5t8 -10t8.5 -17.5l10.5 -23.5l15 -33.5l20 -43l26 -55h-5z" />
    <glyph glyph-name="oacute" unicode="&#xf3;" horiz-adv-x="515" 
d="M257 -11q-90 0 -155.5 67t-65.5 169q0 101 67.5 170t154.5 69q90 0 155.5 -67t65.5 -169q0 -101 -67.5 -170t-154.5 -69zM262 -3q142 0 142 229q0 118 -41.5 174t-109.5 56q-142 0 -142 -229q0 -118 41.5 -174t109.5 -56zM231 525l26 55l20 43l15 33.5t11 23.5t9 17.5
t7.5 10t9 5.5t11.5 1q14 0 24.5 -10t10.5 -24q0 -12 -8.5 -23t-52.5 -54l-38 -38l-40 -40h-5z" />
    <glyph glyph-name="ocircumflex" unicode="&#xf4;" horiz-adv-x="515" 
d="M257 -11q-90 0 -155.5 67t-65.5 169q0 101 67.5 170t154.5 69q90 0 155.5 -67t65.5 -169q0 -101 -67.5 -170t-154.5 -69zM262 -3q142 0 142 229q0 118 -41.5 174t-109.5 56q-142 0 -142 -229q0 -118 41.5 -174t109.5 -56zM131 525l128 176h5l120 -176h-8l-118 101
l-119 -101h-8z" />
    <glyph glyph-name="otilde" unicode="&#xf5;" horiz-adv-x="515" 
d="M257 -11q-90 0 -155.5 67t-65.5 169q0 101 67.5 170t154.5 69q90 0 155.5 -67t65.5 -169q0 -101 -67.5 -170t-154.5 -69zM262 -3q142 0 142 229q0 118 -41.5 174t-109.5 56q-142 0 -142 -229q0 -118 41.5 -174t109.5 -56zM108 520q18 113 84 113q26 0 79.5 -25t73.5 -25
q39 0 56 63h5q-18 -113 -84 -113q-26 0 -79.5 25t-73.5 25q-39 0 -56 -63h-5z" />
    <glyph glyph-name="odieresis" unicode="&#xf6;" horiz-adv-x="515" 
d="M257 -11q-90 0 -155.5 67t-65.5 169q0 101 67.5 170t154.5 69q90 0 155.5 -67t65.5 -169q0 -101 -67.5 -170t-154.5 -69zM262 -3q142 0 142 229q0 118 -41.5 174t-109.5 56q-142 0 -142 -229q0 -118 41.5 -174t109.5 -56zM336 530q-20 0 -33.5 14t-13.5 34q0 19 13 33
t32 14q20 0 33.5 -14.5t13.5 -34.5q0 -19 -13 -32.5t-32 -13.5zM180 530q-20 0 -33.5 14t-13.5 34q0 19 13 33t32 14q20 0 33.5 -14.5t13.5 -34.5q0 -19 -13 -32.5t-32 -13.5z" />
    <glyph glyph-name="divide" unicode="&#xf7;" horiz-adv-x="576" 
d="M54 319v12h468v-12h-468zM288 420q-21 0 -36 14.5t-15 34.5q0 22 15 36.5t36 14.5t36 -14.5t15 -34.5q0 -22 -15 -36.5t-36 -14.5zM288 130q-21 0 -36 14.5t-15 34.5q0 22 15 36.5t36 14.5t36 -14.5t15 -34.5q0 -22 -15 -36.5t-36 -14.5z" />
    <glyph glyph-name="oslash" unicode="&#xf8;" horiz-adv-x="515" 
d="M64 -29h-18l62 78q-72 69 -72 176q0 101 67.5 170t154.5 69q77 0 138 -51l55 69h18l-62 -79q72 -69 72 -175q0 -101 -67.5 -170t-154.5 -69q-79 0 -139 51zM111 227q0 -87 24 -143l238 299q-40 73 -120 73q-142 0 -142 -229zM262 -3q142 0 142 229q0 87 -25 143
l-237 -300q39 -72 120 -72z" />
    <glyph glyph-name="ugrave" unicode="&#xf9;" horiz-adv-x="521" 
d="M198 -11q-59 0 -90 36.5t-31 102.5v274q0 24 -13 32.5t-62 13.5v5l143 6v-315q0 -117 88 -117q38 0 74 29t60 75v271q0 24 -14.5 33t-68.5 13v5l151 6v-414q0 -24 17.5 -31.5t63.5 -8.5v-5h-148v113q-33 -55 -77 -89.5t-93 -34.5zM287 525l-40 40l-31 31q-48 47 -57.5 59
t-9.5 25q0 14 10.5 24t24.5 10q7 0 11 -1t9 -5.5t8 -10t8.5 -17.5l10.5 -23.5l15 -33.5l20 -43l26 -55h-5z" />
    <glyph glyph-name="uacute" unicode="&#xfa;" horiz-adv-x="521" 
d="M198 -11q-59 0 -90 36.5t-31 102.5v274q0 24 -13 32.5t-62 13.5v5l143 6v-315q0 -117 88 -117q38 0 74 29t60 75v271q0 24 -14.5 33t-68.5 13v5l151 6v-414q0 -24 17.5 -31.5t63.5 -8.5v-5h-148v113q-33 -55 -77 -89.5t-93 -34.5zM229 525l26 55l20 43l15 33.5t11 23.5
t9 17.5t7.5 10t9 5.5t11.5 1q14 0 24.5 -10t10.5 -24q0 -12 -8.5 -23t-52.5 -54l-38 -38l-40 -40h-5z" />
    <glyph glyph-name="ucircumflex" unicode="&#xfb;" horiz-adv-x="521" 
d="M198 -11q-59 0 -90 36.5t-31 102.5v274q0 24 -13 32.5t-62 13.5v5l143 6v-315q0 -117 88 -117q38 0 74 29t60 75v271q0 24 -14.5 33t-68.5 13v5l151 6v-414q0 -24 17.5 -31.5t63.5 -8.5v-5h-148v113q-33 -55 -77 -89.5t-93 -34.5zM129 525l128 176h5l120 -176h-8
l-118 101l-119 -101h-8z" />
    <glyph glyph-name="udieresis" unicode="&#xfc;" horiz-adv-x="521" 
d="M198 -11q-59 0 -90 36.5t-31 102.5v274q0 24 -13 32.5t-62 13.5v5l143 6v-315q0 -117 88 -117q38 0 74 29t60 75v271q0 24 -14.5 33t-68.5 13v5l151 6v-414q0 -24 17.5 -31.5t63.5 -8.5v-5h-148v113q-33 -55 -77 -89.5t-93 -34.5zM334 530q-20 0 -33.5 14t-13.5 34
q0 19 13 33t32 14q20 0 33.5 -14.5t13.5 -34.5q0 -19 -13 -32.5t-32 -13.5zM178 530q-20 0 -33.5 14t-13.5 34q0 19 13 33t32 14q20 0 33.5 -14.5t13.5 -34.5q0 -19 -13 -32.5t-32 -13.5z" />
    <glyph glyph-name="yacute" unicode="&#xfd;" horiz-adv-x="471" 
d="M246 6l-166 373q-18 41 -33.5 53.5t-58.5 15.5v5h222v-4q-53 -3 -65.5 -17.5t3.5 -45.5l131 -303l114 285q17 40 7.5 57t-57.5 24v4h147v-5q-40 -6 -53 -19t-35 -69l-157 -389q-38 -95 -71 -130t-73 -35q-26 0 -42.5 16.5t-16.5 38.5q0 20 11.5 34t32.5 14
q18 0 30.5 -13.5t12.5 -32.5q0 -24 -15 -43q61 4 121 159zM239 525l26 55l20 43l15 33.5t11 23.5t9 17.5t7.5 10t9 5.5t11.5 1q14 0 24.5 -10t10.5 -24q0 -12 -8.5 -23t-52.5 -54l-38 -38l-40 -40h-5z" />
    <glyph glyph-name="thorn" unicode="&#xfe;" horiz-adv-x="524" 
d="M146 717v-333q38 40 72.5 60t78.5 20q82 0 135 -62.5t53 -160.5q0 -108 -63 -180t-149 -72q-71 0 -127 41v-175q0 -25 21 -32.5t79 -7.5v-7h-249v5q46 1 63.5 8.5t17.5 31.5v809q0 24 -14 33t-67 13v5zM273 -1q63 0 99.5 64.5t36.5 169.5q0 87 -39.5 143.5t-106.5 56.5
q-63 0 -117 -61v-295q32 -78 127 -78z" />
    <glyph glyph-name="ydieresis" unicode="&#xff;" horiz-adv-x="471" 
d="M246 6l-166 373q-18 41 -33.5 53.5t-58.5 15.5v5h222v-4q-53 -3 -65.5 -17.5t3.5 -45.5l131 -303l114 285q17 40 7.5 57t-57.5 24v4h147v-5q-40 -6 -53 -19t-35 -69l-157 -389q-38 -95 -71 -130t-73 -35q-26 0 -42.5 16.5t-16.5 38.5q0 20 11.5 34t32.5 14
q18 0 30.5 -13.5t12.5 -32.5q0 -24 -15 -43q61 4 121 159zM344 530q-20 0 -33.5 14t-13.5 34q0 19 13 33t32 14q20 0 33.5 -14.5t13.5 -34.5q0 -19 -13 -32.5t-32 -13.5zM188 530q-20 0 -33.5 14t-13.5 34q0 19 13 33t32 14q20 0 33.5 -14.5t13.5 -34.5q0 -19 -13 -32.5
t-32 -13.5z" />
    <glyph glyph-name="Amacron" unicode="&#x100;" horiz-adv-x="690" 
d="M506 98l-66 176h-257l-51 -131q-34 -85 -21.5 -110t94.5 -28v-5h-225v5q54 4 78.5 30t61.5 119l224 565h6l229 -602q28 -74 47 -91.5t79 -21.5v-4h-289v5q80 2 96 21.5t-6 71.5zM187 285h249l-121 325h-2zM223 795v19h251v-19h-251z" />
    <glyph glyph-name="amacron" unicode="&#x101;" horiz-adv-x="470" 
d="M160 -6q-56 0 -87.5 31t-31.5 74q0 65 66 101q56 30 210 53v72q0 68 -25.5 95.5t-82.5 27.5q-72 0 -97 -39q43 -7 43 -46q0 -21 -12.5 -34t-31.5 -13q-21 0 -33 13.5t-12 33.5q0 42 47 69.5t111 27.5q76 0 118.5 -31t42.5 -96v-254q0 -45 20 -57t65 6l2 -3
q-40 -29 -81 -29q-73 0 -73 82h-1q-74 -84 -157 -84zM193 25q70 0 124 66v152q-124 -16 -164.5 -43t-40.5 -88q0 -87 81 -87zM105 555v19h251v-19h-251z" />
    <glyph glyph-name="Abreve" unicode="&#x102;" horiz-adv-x="690" 
d="M506 98l-66 176h-257l-51 -131q-34 -85 -21.5 -110t94.5 -28v-5h-225v5q54 4 78.5 30t61.5 119l224 565h6l229 -602q28 -74 47 -91.5t79 -21.5v-4h-289v5q80 2 96 21.5t-6 71.5zM187 285h249l-121 325h-2zM347 770q-53 0 -87.5 39t-44.5 107h8q21 -54 50.5 -74t75.5 -20
t74 19.5t50 74.5h8q-10 -68 -45.5 -107t-88.5 -39z" />
    <glyph glyph-name="abreve" unicode="&#x103;" horiz-adv-x="470" 
d="M160 -6q-56 0 -87.5 31t-31.5 74q0 65 66 101q56 30 210 53v72q0 68 -25.5 95.5t-82.5 27.5q-72 0 -97 -39q43 -7 43 -46q0 -21 -12.5 -34t-31.5 -13q-21 0 -33 13.5t-12 33.5q0 42 47 69.5t111 27.5q76 0 118.5 -31t42.5 -96v-254q0 -45 20 -57t65 6l2 -3
q-40 -29 -81 -29q-73 0 -73 82h-1q-74 -84 -157 -84zM193 25q70 0 124 66v152q-124 -16 -164.5 -43t-40.5 -88q0 -87 81 -87zM229 530q-53 0 -87.5 39t-44.5 107h8q21 -54 50.5 -74t75.5 -20t74 19.5t50 74.5h8q-10 -68 -45.5 -107t-88.5 -39z" />
    <glyph glyph-name="Aogonek" unicode="&#x104;" horiz-adv-x="690" 
d="M551 -243q-38 0 -64 20.5t-26 56.5q0 30 21 58.5t86 78.5l37 29h-189v5q80 2 96 21.5t-6 71.5l-66 176h-257l-51 -131q-34 -85 -21.5 -110t94.5 -28v-5h-225v5q54 4 78.5 30t61.5 119l224 565h6l229 -602q28 -74 47 -91.5t79 -21.5v-4h-85l-34 -32q-38 -35 -53 -63.5
t-15 -63.5q0 -31 17 -45.5t45 -14.5q29 0 66 17l3 -5q-50 -36 -98 -36zM187 285h249l-121 325h-2z" />
    <glyph glyph-name="aogonek" unicode="&#x105;" horiz-adv-x="470" 
d="M472 25q-30 -23 -68 -57q-38 -35 -53 -63.5t-15 -63.5q0 -31 17 -45.5t45 -14.5q29 0 66 17l3 -5q-50 -36 -98 -36q-38 0 -64 20.5t-26 56.5q0 30 21 58.5t86 78.5l39 30q-18 -5 -34 -5q-73 0 -73 82h-1q-74 -84 -157 -84q-56 0 -87.5 31t-31.5 74q0 65 66 101
q56 30 210 53v72q0 68 -25.5 95.5t-82.5 27.5q-72 0 -97 -39q43 -7 43 -46q0 -21 -12.5 -34t-31.5 -13q-21 0 -33 13.5t-12 33.5q0 42 47 69.5t111 27.5q76 0 118.5 -31t42.5 -96v-254q0 -45 20 -57t65 6zM193 25q70 0 124 66v152q-124 -16 -164.5 -43t-40.5 -88
q0 -87 81 -87z" />
    <glyph glyph-name="Cacute" unicode="&#x106;" horiz-adv-x="691" 
d="M381 -17q-141 0 -235 94.5t-94 262.5q0 159 100 265t247 106q90 0 178 -50l42 56h5v-223h-5q-44 92 -78.5 136.5t-65.5 58t-82 13.5q-110 0 -182.5 -87.5t-72.5 -265.5q0 -159 82 -249t191 -90q85 0 138.5 44t98.5 132l7 -3q-88 -200 -274 -200zM367 765l26 55l20 43
l15 33.5t11 23.5t9 17.5t7.5 10t9 5.5t11.5 1q14 0 24.5 -10t10.5 -24q0 -12 -8.5 -23t-52.5 -54l-38 -38l-40 -40h-5z" />
    <glyph glyph-name="cacute" unicode="&#x107;" horiz-adv-x="454" 
d="M249 -11q-95 0 -154 65t-59 166q0 100 68 172t157 72q64 0 107 -27.5t43 -63.5q0 -21 -13.5 -34.5t-32.5 -13.5t-32.5 13t-13.5 33q0 31 36 52q-32 32 -96 32q-63 0 -107 -59t-44 -165q0 -93 46 -150t128 -57q72 0 139 79l7 -5q-39 -51 -80 -80t-99 -29zM234 525l26 55
l20 43l15 33.5t11 23.5t9 17.5t7.5 10t9 5.5t11.5 1q14 0 24.5 -10t10.5 -24q0 -12 -8.5 -23t-52.5 -54l-38 -38l-40 -40h-5z" />
    <glyph glyph-name="Cdotaccent" unicode="&#x10a;" horiz-adv-x="691" 
d="M381 -17q-141 0 -235 94.5t-94 262.5q0 159 100 265t247 106q90 0 178 -50l42 56h5v-223h-5q-44 92 -78.5 136.5t-65.5 58t-82 13.5q-110 0 -182.5 -87.5t-72.5 -265.5q0 -159 82 -249t191 -90q85 0 138.5 44t98.5 132l7 -3q-88 -200 -274 -200zM393 770q-20 0 -34 15
t-14 35t14 35t34 15t34 -15t14 -35t-14 -35t-34 -15z" />
    <glyph glyph-name="cdotaccent" unicode="&#x10b;" horiz-adv-x="454" 
d="M249 -11q-95 0 -154 65t-59 166q0 100 68 172t157 72q64 0 107 -27.5t43 -63.5q0 -21 -13.5 -34.5t-32.5 -13.5t-32.5 13t-13.5 33q0 31 36 52q-32 32 -96 32q-63 0 -107 -59t-44 -165q0 -93 46 -150t128 -57q72 0 139 79l7 -5q-39 -51 -80 -80t-99 -29zM260 530
q-20 0 -34 15t-14 35t14 35t34 15t34 -15t14 -35t-14 -35t-34 -15z" />
    <glyph glyph-name="Ccaron" unicode="&#x10c;" horiz-adv-x="691" 
d="M381 -17q-141 0 -235 94.5t-94 262.5q0 159 100 265t247 106q90 0 178 -50l42 56h5v-223h-5q-44 92 -78.5 136.5t-65.5 58t-82 13.5q-110 0 -182.5 -87.5t-72.5 -265.5q0 -159 82 -249t191 -90q85 0 138.5 44t98.5 132l7 -3q-88 -200 -274 -200zM387 765l-120 176h8
l118 -101l119 101h8l-128 -176h-5z" />
    <glyph glyph-name="ccaron" unicode="&#x10d;" horiz-adv-x="454" 
d="M249 -11q-95 0 -154 65t-59 166q0 100 68 172t157 72q64 0 107 -27.5t43 -63.5q0 -21 -13.5 -34.5t-32.5 -13.5t-32.5 13t-13.5 33q0 31 36 52q-32 32 -96 32q-63 0 -107 -59t-44 -165q0 -93 46 -150t128 -57q72 0 139 79l7 -5q-39 -51 -80 -80t-99 -29zM254 525
l-120 176h8l118 -101l119 101h8l-128 -176h-5z" />
    <glyph glyph-name="Dcaron" unicode="&#x10e;" horiz-adv-x="742" 
d="M19 0v5q84 2 103.5 13.5t19.5 52.5v555q0 41 -19.5 52.5t-103.5 13.5v5h296q178 0 276.5 -94.5t98.5 -242.5q0 -70 -23 -133.5t-67 -114.5t-116.5 -81.5t-163.5 -30.5h-301zM217 10h81q166 0 235.5 76.5t69.5 267.5q0 188 -71.5 260.5t-221.5 72.5h-93v-677zM389 765
l-120 176h8l118 -101l119 101h8l-128 -176h-5z" />
    <glyph glyph-name="dcaron" unicode="&#x10f;" horiz-adv-x="531" 
d="M227 -8q-82 0 -135 63.5t-53 161.5q0 107 62.5 175.5t149.5 68.5q71 0 127 -41v242q0 24 -14 33t-67 13v5l149 4v-672q0 -24 17.5 -31.5t63.5 -8.5v-5l-148 -3v76q-76 -81 -152 -81zM261 23q63 0 117 61v289q-32 78 -127 78q-64 0 -100 -61.5t-36 -164.5q0 -88 39.5 -145
t106.5 -57zM549 535l-2 105q0 9 -0.5 33t-0.5 32q0 47 37 47q35 0 35 -33q0 -17 -16 -59l-48 -125h-5z" />
    <glyph glyph-name="Dcroat" unicode="&#x110;" horiz-adv-x="742" 
d="M19 0v5q84 2 103.5 13.5t19.5 52.5v286h-90v12h90v257q0 41 -19.5 52.5t-103.5 13.5v5h296q178 0 276.5 -94.5t98.5 -242.5q0 -70 -23 -133.5t-67 -114.5t-116.5 -81.5t-163.5 -30.5h-301zM217 10h81q166 0 235.5 76.5t69.5 267.5q0 188 -71.5 260.5t-221.5 72.5h-93
v-318h172v-12h-172v-347z" />
    <glyph glyph-name="dcroat" unicode="&#x111;" horiz-adv-x="532" 
d="M227 -8q-82 0 -135 63.5t-53 161.5q0 107 62.5 175.5t149.5 68.5q71 0 127 -41v158h-164v11h164v73q0 24 -14 33t-67 13v5l149 4v-128h69v-11h-69v-533q0 -24 17.5 -31.5t63.5 -8.5v-5l-148 -3v76q-76 -81 -152 -81zM261 23q63 0 117 61v289q-32 78 -127 78
q-64 0 -100 -61.5t-36 -164.5q0 -88 39.5 -145t106.5 -57z" />
    <glyph glyph-name="Emacron" unicode="&#x112;" horiz-adv-x="650" 
d="M19 0v5q84 2 103.5 13.5t19.5 52.5v555q0 41 -19.5 52.5t-103.5 13.5v5h556l3 -194l-5 -1q-44 120 -69 152.5t-81 32.5h-206v-320h127q44 0 60.5 25.5t36.5 111.5h5v-284h-5q-20 86 -36.5 111.5t-60.5 25.5h-127v-347h239q55 0 79.5 34t68.5 163l5 -1l-5 -206h-585z
M230 795v19h251v-19h-251z" />
    <glyph glyph-name="emacron" unicode="&#x113;" 
d="M247 -11q-91 0 -151 63t-60 166q0 98 62.5 172t151.5 74q88 0 138 -59.5t45 -144.5h-324q-1 -12 -1 -35v-1q0 -98 43 -155t114 -57q89 0 162 102l7 -5q-78 -120 -187 -120zM248 455q-58 0 -94 -48.5t-44 -135.5h253q3 85 -24.5 134.5t-90.5 49.5zM125 555v19h251v-19
h-251z" />
    <glyph glyph-name="Ebreve" unicode="&#x114;" horiz-adv-x="650" 
d="M19 0v5q84 2 103.5 13.5t19.5 52.5v555q0 41 -19.5 52.5t-103.5 13.5v5h556l3 -194l-5 -1q-44 120 -69 152.5t-81 32.5h-206v-320h127q44 0 60.5 25.5t36.5 111.5h5v-284h-5q-20 86 -36.5 111.5t-60.5 25.5h-127v-347h239q55 0 79.5 34t68.5 163l5 -1l-5 -206h-585z
M354 770q-53 0 -87.5 39t-44.5 107h8q21 -54 50.5 -74t75.5 -20t74 19.5t50 74.5h8q-10 -68 -45.5 -107t-88.5 -39z" />
    <glyph glyph-name="ebreve" unicode="&#x115;" 
d="M247 -11q-91 0 -151 63t-60 166q0 98 62.5 172t151.5 74q88 0 138 -59.5t45 -144.5h-324q-1 -12 -1 -35v-1q0 -98 43 -155t114 -57q89 0 162 102l7 -5q-78 -120 -187 -120zM248 455q-58 0 -94 -48.5t-44 -135.5h253q3 85 -24.5 134.5t-90.5 49.5zM249 530q-53 0 -87.5 39
t-44.5 107h8q21 -54 50.5 -74t75.5 -20t74 19.5t50 74.5h8q-10 -68 -45.5 -107t-88.5 -39z" />
    <glyph glyph-name="Edotaccent" unicode="&#x116;" horiz-adv-x="650" 
d="M19 0v5q84 2 103.5 13.5t19.5 52.5v555q0 41 -19.5 52.5t-103.5 13.5v5h556l3 -194l-5 -1q-44 120 -69 152.5t-81 32.5h-206v-320h127q44 0 60.5 25.5t36.5 111.5h5v-284h-5q-20 86 -36.5 111.5t-60.5 25.5h-127v-347h239q55 0 79.5 34t68.5 163l5 -1l-5 -206h-585z
M355 770q-20 0 -34 15t-14 35t14 35t34 15t34 -15t14 -35t-14 -35t-34 -15z" />
    <glyph glyph-name="edotaccent" unicode="&#x117;" 
d="M247 -11q-91 0 -151 63t-60 166q0 98 62.5 172t151.5 74q88 0 138 -59.5t45 -144.5h-324q-1 -12 -1 -35v-1q0 -98 43 -155t114 -57q89 0 162 102l7 -5q-78 -120 -187 -120zM248 455q-58 0 -94 -48.5t-44 -135.5h253q3 85 -24.5 134.5t-90.5 49.5zM250 530q-20 0 -34 15
t-14 35t14 35t34 15t34 -15t14 -35t-14 -35t-34 -15z" />
    <glyph glyph-name="Eogonek" unicode="&#x118;" horiz-adv-x="650" 
d="M19 0v5q84 2 103.5 13.5t19.5 52.5v555q0 41 -19.5 52.5t-103.5 13.5v5h556l3 -194l-5 -1q-44 120 -69 152.5t-81 32.5h-206v-320h127q44 0 60.5 25.5t36.5 111.5h5v-284h-5q-20 86 -36.5 111.5t-60.5 25.5h-127v-347h239q55 0 79.5 34t68.5 163l5 -1l-5 -206h-37
l-34 -32q-38 -35 -53 -63.5t-15 -63.5q0 -31 17 -45.5t45 -14.5q29 0 66 17l3 -5q-50 -36 -98 -36q-38 0 -64 20.5t-26 56.5q0 30 21 58.5t86 78.5l37 29h-533z" />
    <glyph glyph-name="eogonek" unicode="&#x119;" 
d="M427 114l7 -5q-14 -22 -35 -46l-95 -104q-55 -59 -55 -118q0 -31 17 -45.5t45 -14.5q29 0 66 17l3 -5q-50 -36 -98 -36q-38 0 -64 20.5t-26 56.5q0 26 13 47t44 49l94 85q-44 -26 -96 -26q-91 0 -151 63t-60 166q0 98 62.5 172t151.5 74q88 0 138 -59.5t45 -144.5h-324
q-1 -12 -1 -35v-1q0 -98 43 -155t114 -57q89 0 162 102zM248 455q-58 0 -94 -48.5t-44 -135.5h253q3 85 -24.5 134.5t-90.5 49.5z" />
    <glyph glyph-name="Ecaron" unicode="&#x11a;" horiz-adv-x="650" 
d="M19 0v5q84 2 103.5 13.5t19.5 52.5v555q0 41 -19.5 52.5t-103.5 13.5v5h556l3 -194l-5 -1q-44 120 -69 152.5t-81 32.5h-206v-320h127q44 0 60.5 25.5t36.5 111.5h5v-284h-5q-20 86 -36.5 111.5t-60.5 25.5h-127v-347h239q55 0 79.5 34t68.5 163l5 -1l-5 -206h-585z
M349 765l-120 176h8l118 -101l119 101h8l-128 -176h-5z" />
    <glyph glyph-name="ecaron" unicode="&#x11b;" 
d="M247 -11q-91 0 -151 63t-60 166q0 98 62.5 172t151.5 74q88 0 138 -59.5t45 -144.5h-324q-1 -12 -1 -35v-1q0 -98 43 -155t114 -57q89 0 162 102l7 -5q-78 -120 -187 -120zM248 455q-58 0 -94 -48.5t-44 -135.5h253q3 85 -24.5 134.5t-90.5 49.5zM244 525l-120 176h8
l118 -101l119 101h8l-128 -176h-5z" />
    <glyph glyph-name="Gbreve" unicode="&#x11e;" horiz-adv-x="746" 
d="M413 -17q-153 0 -257 97.5t-104 270.5q0 158 102 260.5t240 102.5q96 0 194 -44l42 50h5v-220h-6q-34 70 -59 109.5t-53 61.5t-54.5 28t-70.5 6q-110 0 -181.5 -85t-71.5 -267q0 -93 24 -164.5t64.5 -113t88 -62.5t99.5 -21q85 0 148 41v209q0 41 -19.5 52.5t-103.5 13.5
v5h287v-5q-60 -4 -75 -15.5t-15 -48.5v-193q-117 -68 -224 -68zM394 770q-53 0 -87.5 39t-44.5 107h8q21 -54 50.5 -74t75.5 -20t74 19.5t50 74.5h8q-10 -68 -45.5 -107t-88.5 -39z" />
    <glyph glyph-name="gbreve" unicode="&#x11f;" 
d="M236 -187q70 0 124 35t54 85q0 78 -100 78h-155q-77 -24 -77 -101q0 -50 36.5 -73.5t117.5 -23.5zM229 166q104 0 104 143q0 65 -28 104t-84 39q-105 0 -105 -143t113 -143zM225 460q49 0 95 -25q41 67 93 67q49 0 49 -43q0 -17 -9.5 -27.5t-25.5 -10.5q-18 0 -28.5 15.5
t-8.5 38.5q-33 -4 -62 -45q72 -43 72 -119q0 -68 -55 -110.5t-120 -42.5q-40 0 -75 14q-58 -29 -58 -58q0 -36 79 -36h135q141 0 141 -112q0 -64 -61 -113t-163 -49q-84 0 -142 30t-58 75q0 74 122 105v2q-90 15 -90 68q0 23 22.5 48t63.5 43q-92 40 -92 132q0 68 55 110.5
t121 42.5zM229 530q-53 0 -87.5 39t-44.5 107h8q21 -54 50.5 -74t75.5 -20t74 19.5t50 74.5h8q-10 -68 -45.5 -107t-88.5 -39z" />
    <glyph glyph-name="Gdotaccent" unicode="&#x120;" horiz-adv-x="746" 
d="M413 -17q-153 0 -257 97.5t-104 270.5q0 158 102 260.5t240 102.5q96 0 194 -44l42 50h5v-220h-6q-34 70 -59 109.5t-53 61.5t-54.5 28t-70.5 6q-110 0 -181.5 -85t-71.5 -267q0 -93 24 -164.5t64.5 -113t88 -62.5t99.5 -21q85 0 148 41v209q0 41 -19.5 52.5t-103.5 13.5
v5h287v-5q-60 -4 -75 -15.5t-15 -48.5v-193q-117 -68 -224 -68zM395 770q-20 0 -34 15t-14 35t14 35t34 15t34 -15t14 -35t-14 -35t-34 -15z" />
    <glyph glyph-name="gdotaccent" unicode="&#x121;" 
d="M236 -187q70 0 124 35t54 85q0 78 -100 78h-155q-77 -24 -77 -101q0 -50 36.5 -73.5t117.5 -23.5zM229 166q104 0 104 143q0 65 -28 104t-84 39q-105 0 -105 -143t113 -143zM225 460q49 0 95 -25q41 67 93 67q49 0 49 -43q0 -17 -9.5 -27.5t-25.5 -10.5q-18 0 -28.5 15.5
t-8.5 38.5q-33 -4 -62 -45q72 -43 72 -119q0 -68 -55 -110.5t-120 -42.5q-40 0 -75 14q-58 -29 -58 -58q0 -36 79 -36h135q141 0 141 -112q0 -64 -61 -113t-163 -49q-84 0 -142 30t-58 75q0 74 122 105v2q-90 15 -90 68q0 23 22.5 48t63.5 43q-92 40 -92 132q0 68 55 110.5
t121 42.5zM230 530q-20 0 -34 15t-14 35t14 35t34 15t34 -15t14 -35t-14 -35t-34 -15z" />
    <glyph glyph-name="Gcommaaccent" unicode="&#x122;" horiz-adv-x="746" 
d="M413 -17q-153 0 -257 97.5t-104 270.5q0 158 102 260.5t240 102.5q96 0 194 -44l42 50h5v-220h-6q-34 70 -59 109.5t-53 61.5t-54.5 28t-70.5 6q-110 0 -181.5 -85t-71.5 -267q0 -93 24 -164.5t64.5 -113t88 -62.5t99.5 -21q85 0 148 41v209q0 41 -19.5 52.5t-103.5 13.5
v5h287v-5q-60 -4 -75 -15.5t-15 -48.5v-193q-117 -68 -224 -68zM347 -253l-3 6q65 42 73 100l-4 2q-8 -9 -24 -9t-28 10.5t-12 28.5q0 19 12.5 32t32.5 13q22 0 36.5 -16t14.5 -41q0 -75 -98 -126z" />
    <glyph glyph-name="gcommaaccent" unicode="&#x123;" 
d="M236 -187q70 0 124 35t54 85q0 78 -100 78h-155q-77 -24 -77 -101q0 -50 36.5 -73.5t117.5 -23.5zM229 166q104 0 104 143q0 65 -28 104t-84 39q-105 0 -105 -143t113 -143zM225 460q49 0 95 -25q41 67 93 67q49 0 49 -43q0 -17 -9.5 -27.5t-25.5 -10.5q-18 0 -28.5 15.5
t-8.5 38.5q-33 -4 -62 -45q72 -43 72 -119q0 -68 -55 -110.5t-120 -42.5q-40 0 -75 14q-58 -29 -58 -58q0 -36 79 -36h135q141 0 141 -112q0 -64 -61 -113t-163 -49q-84 0 -142 30t-58 75q0 74 122 105v2q-90 15 -90 68q0 23 22.5 48t63.5 43q-92 40 -92 132q0 68 55 110.5
t121 42.5zM276 738l3 -6q-65 -42 -73 -100l4 -2q8 9 24 9t28 -10.5t12 -28.5q0 -19 -12.5 -32t-32.5 -13q-22 0 -36.5 16t-14.5 41q0 75 98 126z" />
    <glyph glyph-name="Hbar" unicode="&#x126;" horiz-adv-x="787" 
d="M19 0v5q84 2 103.5 13.5t19.5 52.5v448h-84v12h84v95q0 41 -19.5 52.5t-103.5 13.5v5h313v-5q-78 -2 -96.5 -13t-18.5 -51v-97h353v97q0 40 -18.5 51t-96.5 13v5h313v-5q-84 -2 -103.5 -13.5t-19.5 -52.5v-95h90v-12h-90v-448q0 -41 19.5 -52.5t103.5 -13.5v-5h-313v5
q78 2 96.5 13t18.5 51v288h-353v-288q0 -40 18.5 -51t96.5 -13v-5h-313zM217 367h353v152h-353v-152z" />
    <glyph glyph-name="hbar" unicode="&#x127;" horiz-adv-x="523" 
d="M5 0v5q45 2 61 9t16 31v533h-63v11h63v73q0 24 -14 33t-67 13v5l149 4v-128h170v-11h-170v-237q33 54 77.5 88.5t93.5 34.5q59 0 90 -36.5t31 -102.5v-280q0 -24 16 -31t59 -9v-5h-214v5q42 2 56.5 9t14.5 31v264q0 117 -88 117q-38 0 -75 -29t-61 -75v-277
q0 -24 14.5 -31t56.5 -9v-5h-216z" />
    <glyph glyph-name="Imacron" unicode="&#x12a;" horiz-adv-x="368" 
d="M19 0v5q85 1 106 12.5t21 53.5v555q0 42 -21 53.5t-106 12.5v5h329v-5q-85 -1 -106 -12.5t-21 -53.5v-555q0 -42 21 -53.5t106 -12.5v-5h-329zM58 795v19h251v-19h-251z" />
    <glyph glyph-name="imacron" unicode="&#x12b;" horiz-adv-x="254" 
d="M-5 555v19h251v-19h-251zM16 0v5q46 1 63.5 8.5t17.5 31.5v357q0 24 -14 33t-67 13v5l149 6v-414q0 -24 15.5 -31t60.5 -9v-5h-225z" />
    <glyph glyph-name="Ibreve" unicode="&#x12c;" horiz-adv-x="368" 
d="M19 0v5q85 1 106 12.5t21 53.5v555q0 42 -21 53.5t-106 12.5v5h329v-5q-85 -1 -106 -12.5t-21 -53.5v-555q0 -42 21 -53.5t106 -12.5v-5h-329zM182 770q-53 0 -87.5 39t-44.5 107h8q21 -54 50.5 -74t75.5 -20t74 19.5t50 74.5h8q-10 -68 -45.5 -107t-88.5 -39z" />
    <glyph glyph-name="ibreve" unicode="&#x12d;" horiz-adv-x="254" 
d="M16 0v5q46 1 63.5 8.5t17.5 31.5v357q0 24 -14 33t-67 13v5l149 6v-414q0 -24 15.5 -31t60.5 -9v-5h-225zM119 530q-53 0 -87.5 39t-44.5 107h8q21 -54 50.5 -74t75.5 -20t74 19.5t50 74.5h8q-10 -68 -45.5 -107t-88.5 -39z" />
    <glyph glyph-name="Iogonek" unicode="&#x12e;" horiz-adv-x="368" 
d="M19 0v5q85 1 106 12.5t21 53.5v555q0 42 -21 53.5t-106 12.5v5h329v-5q-85 -1 -106 -12.5t-21 -53.5v-555q0 -42 21 -53.5t106 -12.5v-5h-111l-34 -32q-38 -35 -53 -63.5t-15 -63.5q0 -31 17 -45.5t45 -14.5q29 0 66 17l3 -5q-50 -36 -98 -36q-38 0 -64 20.5t-26 56.5
q0 30 21 58.5t86 78.5l37 29h-203z" />
    <glyph glyph-name="iogonek" unicode="&#x12f;" horiz-adv-x="254" 
d="M16 0v5q46 1 63.5 8.5t17.5 31.5v357q0 24 -14 33t-67 13v5l149 6v-414q0 -24 15.5 -31t60.5 -9v-5h-56l-34 -32q-38 -35 -53 -63.5t-15 -63.5q0 -31 17 -45.5t45 -14.5q29 0 66 17l3 -5q-50 -36 -98 -36q-38 0 -64 20.5t-26 56.5q0 30 21 58.5t86 78.5l37 29h-154z
M125 558q-20 0 -34 15t-14 35t14 35t34 15t34 -15t14 -35t-14 -35t-34 -15z" />
    <glyph glyph-name="Idotaccent" unicode="&#x130;" horiz-adv-x="368" 
d="M19 0v5q85 1 106 12.5t21 53.5v555q0 42 -21 53.5t-106 12.5v5h329v-5q-85 -1 -106 -12.5t-21 -53.5v-555q0 -42 21 -53.5t106 -12.5v-5h-329zM183 770q-20 0 -34 15t-14 35t14 35t34 15t34 -15t14 -35t-14 -35t-34 -15z" />
    <glyph glyph-name="dotlessi" unicode="&#x131;" horiz-adv-x="254" 
d="M16 0v5q46 1 63.5 8.5t17.5 31.5v357q0 24 -14 33t-67 13v5l149 6v-414q0 -24 15.5 -31t60.5 -9v-5h-225z" />
    <glyph glyph-name="Kcommaaccent" unicode="&#x136;" horiz-adv-x="697" 
d="M217 311l254 256q49 49 60 73.5t-8.5 35t-78.5 16.5v5h253v-5q-66 -9 -97.5 -28.5t-116.5 -104.5l-140 -140l214 -298q54 -74 79 -91.5t82 -24.5v-5h-282v5q67 2 77.5 21.5t-21.5 60.5l-201 280l-74 -74v-224q0 -40 17.5 -51t90.5 -13v-5h-306v5q84 2 103.5 13.5
t19.5 52.5v555q0 41 -19.5 52.5t-103.5 13.5v5h313v-5q-78 -2 -96.5 -13t-18.5 -51v-317zM292 -253l-3 6q65 42 73 100l-4 2q-8 -9 -24 -9t-28 10.5t-12 28.5q0 19 12.5 32t32.5 13q22 0 36.5 -16t14.5 -41q0 -75 -98 -126z" />
    <glyph glyph-name="kcommaaccent" unicode="&#x137;" horiz-adv-x="485" 
d="M150 190v-145q0 -24 14 -31t52 -9v-5h-211v5q45 2 61 9t16 31v617q0 24 -14 33t-67 13v5l149 4v-515l161 163q41 41 34 60.5t-65 22.5v5h193v-5q-41 -2 -69.5 -18.5t-84.5 -72.5l-71 -70l159 -213q33 -44 48 -54.5t51 -14.5v-5h-210v5q46 4 54 16t-13 39l-131 185z
M182 -253l-3 6q65 42 73 100l-4 2q-8 -9 -24 -9t-28 10.5t-12 28.5q0 19 12.5 32t32.5 13q22 0 36.5 -16t14.5 -41q0 -75 -98 -126z" />
    <glyph glyph-name="Lacute" unicode="&#x139;" horiz-adv-x="603" 
d="M19 0v5q84 2 103.5 13.5t19.5 52.5v555q0 41 -19.5 52.5t-103.5 13.5v5h325v-5q-85 -1 -106 -12.5t-21 -53.5v-616h195q55 0 80.5 34t73.5 163l5 -1l-11 -206h-541zM189 765l26 55l20 43l15 33.5t11 23.5t9 17.5t7.5 10t9 5.5t11.5 1q14 0 24.5 -10t10.5 -24
q0 -12 -8.5 -23t-52.5 -54l-38 -38l-40 -40h-5z" />
    <glyph glyph-name="lacute" unicode="&#x13a;" horiz-adv-x="238" 
d="M7 0v5q45 1 61.5 8.5t16.5 31.5v617q0 24 -14 33t-67 13v5l149 4v-672q0 -24 16.5 -31.5t61.5 -8.5v-5h-224zM89 784l26 55l20 43l15 33.5t11 23.5t9 17.5t7.5 10t9 5.5t11.5 1q14 0 24.5 -10t10.5 -24q0 -12 -8.5 -23t-52.5 -54l-38 -38l-40 -40h-5z" />
    <glyph glyph-name="Lcommaaccent" unicode="&#x13b;" horiz-adv-x="603" 
d="M19 0v5q84 2 103.5 13.5t19.5 52.5v555q0 41 -19.5 52.5t-103.5 13.5v5h325v-5q-85 -1 -106 -12.5t-21 -53.5v-616h195q55 0 80.5 34t73.5 163l5 -1l-11 -206h-541zM292 -253l-3 6q65 42 73 100l-4 2q-8 -9 -24 -9t-28 10.5t-12 28.5q0 19 12.5 32t32.5 13q22 0 36.5 -16
t14.5 -41q0 -75 -98 -126z" />
    <glyph glyph-name="lcommaaccent" unicode="&#x13c;" horiz-adv-x="238" 
d="M7 0v5q45 1 61.5 8.5t16.5 31.5v617q0 24 -14 33t-67 13v5l149 4v-672q0 -24 16.5 -31.5t61.5 -8.5v-5h-224zM72 -253l-3 6q65 42 73 100l-4 2q-8 -9 -24 -9t-28 10.5t-12 28.5q0 19 12.5 32t32.5 13q22 0 36.5 -16t14.5 -41q0 -75 -98 -126z" />
    <glyph glyph-name="Lcaron" unicode="&#x13d;" horiz-adv-x="603" 
d="M19 0v5q84 2 103.5 13.5t19.5 52.5v555q0 41 -19.5 52.5t-103.5 13.5v5h325v-5q-85 -1 -106 -12.5t-21 -53.5v-616h195q55 0 80.5 34t73.5 163l5 -1l-11 -206h-541zM414 515l-2 105q0 9 -0.5 33t-0.5 32q0 47 37 47q35 0 35 -33q0 -17 -16 -59l-48 -125h-5z" />
    <glyph glyph-name="lcaron" unicode="&#x13e;" horiz-adv-x="238" 
d="M7 0v5q45 1 61.5 8.5t16.5 31.5v617q0 24 -14 33t-67 13v5l149 4v-672q0 -24 16.5 -31.5t61.5 -8.5v-5h-224zM256 535l-2 105q0 9 -0.5 33t-0.5 32q0 47 37 47q35 0 35 -33q0 -17 -16 -59l-48 -125h-5z" />
    <glyph glyph-name="Ldot" unicode="&#x13f;" horiz-adv-x="603" 
d="M19 0v5q84 2 103.5 13.5t19.5 52.5v555q0 41 -19.5 52.5t-103.5 13.5v5h325v-5q-85 -1 -106 -12.5t-21 -53.5v-616h195q55 0 80.5 34t73.5 163l5 -1l-11 -206h-541zM480 314q-20 0 -34 15t-14 35t14 35t34 15t34 -15t14 -35t-14 -35t-34 -15z" />
    <glyph glyph-name="ldot" unicode="&#x140;" horiz-adv-x="328" 
d="M283 289q-20 0 -34 15t-14 35t14 35t34 15t34 -15t14 -35t-14 -35t-34 -15zM7 0v5q45 1 61.5 8.5t16.5 31.5v617q0 24 -14 33t-67 13v5l149 4v-672q0 -24 16.5 -31.5t61.5 -8.5v-5h-224z" />
    <glyph glyph-name="Lslash" unicode="&#x141;" horiz-adv-x="603" 
d="M19 0v5q84 2 103.5 13.5t19.5 52.5v253l-86 -22l-4 12l90 23v289q0 41 -19.5 52.5t-103.5 13.5v5h325v-5q-85 -1 -106 -12.5t-21 -53.5v-269l160 42l4 -12l-164 -43v-334h195q55 0 80.5 34t73.5 163l5 -1l-11 -206h-541z" />
    <glyph glyph-name="lslash" unicode="&#x142;" horiz-adv-x="288" 
d="M38 0v5q45 1 61.5 8.5t16.5 31.5v291l-98 -26l-2 10l100 27v315q0 24 -14 33t-67 13v5l149 4v-352l104 28l2 -10l-106 -29v-309q0 -24 16.5 -31.5t61.5 -8.5v-5h-224z" />
    <glyph glyph-name="Nacute" unicode="&#x143;" horiz-adv-x="749" 
d="M627 -17l-475 646h-2v-544q0 -44 20.5 -57.5t103.5 -22.5v-5h-257v5q80 9 100.5 23t20.5 57v525q0 38 -24.5 56.5t-96.5 26.5v4h180l422 -574h2v489q0 44 -20.5 57.5t-103.5 22.5v5h252v-5q-77 -9 -96.5 -23.5t-19.5 -56.5v-629h-6zM369 755l26 55l20 43l15 33.5t11 23.5
t9 17.5t7.5 10t9 5.5t11.5 1q14 0 24.5 -10t10.5 -24q0 -12 -8.5 -23t-52.5 -54l-38 -38l-40 -40h-5z" />
    <glyph glyph-name="nacute" unicode="&#x144;" horiz-adv-x="531" 
d="M13 0v5q46 1 63.5 8.5t17.5 31.5v357q0 24 -14 33t-67 13v5l148 6v-119q33 54 78 89t94 35q59 0 90 -36.5t31 -102.5v-280q0 -24 16 -31t59 -9v-5h-214v5q42 2 56.5 9t14.5 31v264q0 117 -88 117q-38 0 -75 -29t-61 -75v-277q0 -24 14.5 -31t56.5 -9v-5h-220zM254 525
l26 55l20 43l15 33.5t11 23.5t9 17.5t7.5 10t9 5.5t11.5 1q14 0 24.5 -10t10.5 -24q0 -12 -8.5 -23t-52.5 -54l-38 -38l-40 -40h-5z" />
    <glyph glyph-name="Ncommaaccent" unicode="&#x145;" horiz-adv-x="749" 
d="M627 -17l-475 646h-2v-544q0 -44 20.5 -57.5t103.5 -22.5v-5h-257v5q80 9 100.5 23t20.5 57v525q0 38 -24.5 56.5t-96.5 26.5v4h180l422 -574h2v489q0 44 -20.5 57.5t-103.5 22.5v5h252v-5q-77 -9 -96.5 -23.5t-19.5 -56.5v-629h-6zM347 -253l-3 6q65 42 73 100l-4 2
q-8 -9 -24 -9t-28 10.5t-12 28.5q0 19 12.5 32t32.5 13q22 0 36.5 -16t14.5 -41q0 -75 -98 -126z" />
    <glyph glyph-name="ncommaaccent" unicode="&#x146;" horiz-adv-x="531" 
d="M13 0v5q46 1 63.5 8.5t17.5 31.5v357q0 24 -14 33t-67 13v5l148 6v-119q33 54 78 89t94 35q59 0 90 -36.5t31 -102.5v-280q0 -24 16 -31t59 -9v-5h-214v5q42 2 56.5 9t14.5 31v264q0 117 -88 117q-38 0 -75 -29t-61 -75v-277q0 -24 14.5 -31t56.5 -9v-5h-220zM222 -253
l-3 6q65 42 73 100l-4 2q-8 -9 -24 -9t-28 10.5t-12 28.5q0 19 12.5 32t32.5 13q22 0 36.5 -16t14.5 -41q0 -75 -98 -126z" />
    <glyph glyph-name="Ncaron" unicode="&#x147;" horiz-adv-x="749" 
d="M627 -17l-475 646h-2v-544q0 -44 20.5 -57.5t103.5 -22.5v-5h-257v5q80 9 100.5 23t20.5 57v525q0 38 -24.5 56.5t-96.5 26.5v4h180l422 -574h2v489q0 44 -20.5 57.5t-103.5 22.5v5h252v-5q-77 -9 -96.5 -23.5t-19.5 -56.5v-629h-6zM389 755l-120 176h8l118 -101l119 101
h8l-128 -176h-5z" />
    <glyph glyph-name="ncaron" unicode="&#x148;" horiz-adv-x="531" 
d="M13 0v5q46 1 63.5 8.5t17.5 31.5v357q0 24 -14 33t-67 13v5l148 6v-119q33 54 78 89t94 35q59 0 90 -36.5t31 -102.5v-280q0 -24 16 -31t59 -9v-5h-214v5q42 2 56.5 9t14.5 31v264q0 117 -88 117q-38 0 -75 -29t-61 -75v-277q0 -24 14.5 -31t56.5 -9v-5h-220zM274 525
l-120 176h8l118 -101l119 101h8l-128 -176h-5z" />
    <glyph glyph-name="Omacron" unicode="&#x14c;" horiz-adv-x="758" 
d="M378 -17q-133 0 -229.5 100.5t-96.5 263.5q0 160 99.5 263.5t228.5 103.5q133 0 229.5 -100.5t96.5 -263.5q0 -160 -99.5 -263.5t-228.5 -103.5zM380 -8q239 0 239 356q0 357 -241 357q-239 0 -239 -356q0 -357 241 -357zM254 795v19h251v-19h-251z" />
    <glyph glyph-name="omacron" unicode="&#x14d;" horiz-adv-x="515" 
d="M257 -11q-90 0 -155.5 67t-65.5 169q0 101 67.5 170t154.5 69q90 0 155.5 -67t65.5 -169q0 -101 -67.5 -170t-154.5 -69zM262 -3q142 0 142 229q0 118 -41.5 174t-109.5 56q-142 0 -142 -229q0 -118 41.5 -174t109.5 -56zM132 555v19h251v-19h-251z" />
    <glyph glyph-name="Obreve" unicode="&#x14e;" horiz-adv-x="758" 
d="M378 -17q-133 0 -229.5 100.5t-96.5 263.5q0 160 99.5 263.5t228.5 103.5q133 0 229.5 -100.5t96.5 -263.5q0 -160 -99.5 -263.5t-228.5 -103.5zM380 -8q239 0 239 356q0 357 -241 357q-239 0 -239 -356q0 -357 241 -357zM378 770q-53 0 -87.5 39t-44.5 107h8
q21 -54 50.5 -74t75.5 -20t74 19.5t50 74.5h8q-10 -68 -45.5 -107t-88.5 -39z" />
    <glyph glyph-name="obreve" unicode="&#x14f;" horiz-adv-x="515" 
d="M257 -11q-90 0 -155.5 67t-65.5 169q0 101 67.5 170t154.5 69q90 0 155.5 -67t65.5 -169q0 -101 -67.5 -170t-154.5 -69zM262 -3q142 0 142 229q0 118 -41.5 174t-109.5 56q-142 0 -142 -229q0 -118 41.5 -174t109.5 -56zM256 530q-53 0 -87.5 39t-44.5 107h8
q21 -54 50.5 -74t75.5 -20t74 19.5t50 74.5h8q-10 -68 -45.5 -107t-88.5 -39z" />
    <glyph glyph-name="Ohungarumlaut" unicode="&#x150;" horiz-adv-x="758" 
d="M378 -17q-133 0 -229.5 100.5t-96.5 263.5q0 160 99.5 263.5t228.5 103.5q133 0 229.5 -100.5t96.5 -263.5q0 -160 -99.5 -263.5t-228.5 -103.5zM380 -8q239 0 239 356q0 357 -241 357q-239 0 -239 -356q0 -357 241 -357zM441 765l28 55l19 38.5l15.5 30.5l11 23t9 17.5
t7.5 11t8 8t8 3.5t10 1q14 0 24 -9t10 -23t-13.5 -29t-89.5 -87l-42 -40h-5zM308 765l28 55l19 38.5l15.5 30.5l11 23t9 17.5t7.5 11t8 8t8 3.5t10 1q14 0 24 -9t10 -23t-13.5 -29t-89.5 -87l-42 -40h-5z" />
    <glyph glyph-name="ohungarumlaut" unicode="&#x151;" horiz-adv-x="515" 
d="M257 -11q-90 0 -155.5 67t-65.5 169q0 101 67.5 170t154.5 69q90 0 155.5 -67t65.5 -169q0 -101 -67.5 -170t-154.5 -69zM262 -3q142 0 142 229q0 118 -41.5 174t-109.5 56q-142 0 -142 -229q0 -118 41.5 -174t109.5 -56zM319 525l28 55l19 38.5l15.5 30.5l11 23t9 17.5
t7.5 11t8 8t8 3.5t10 1q14 0 24 -9t10 -23t-13.5 -29t-89.5 -87l-42 -40h-5zM186 525l28 55l19 38.5l15.5 30.5l11 23t9 17.5t7.5 11t8 8t8 3.5t10 1q14 0 24 -9t10 -23t-13.5 -29t-89.5 -87l-42 -40h-5z" />
    <glyph glyph-name="OE" unicode="&#x152;" horiz-adv-x="1033" 
d="M427 0q-178 0 -276.5 94.5t-98.5 242.5q0 70 23 133.5t67 114.5t116.5 81.5t163.5 30.5h536l3 -194l-5 -1q-44 120 -69 152.5t-81 32.5h-206v-320h127q44 0 60.5 25.5t36.5 111.5h5v-284h-5q-20 86 -36.5 111.5t-60.5 25.5h-127v-347h239q55 0 79.5 34t68.5 163l5 -1
l-5 -206h-560zM430 10q61 0 78 10.5t17 50.5v555q0 40 -16 50.5t-70 10.5q-161 0 -230.5 -77t-69.5 -267q0 -97 19 -162.5t58 -102.5t90 -52.5t124 -15.5z" />
    <glyph glyph-name="oe" unicode="&#x153;" horiz-adv-x="838" 
d="M616 -11q-57 0 -103.5 28t-73.5 79q-31 -49 -79.5 -78t-102.5 -29q-90 0 -155.5 67t-65.5 169q0 101 67.5 170t154.5 69q57 0 106 -28.5t78 -80.5q29 50 75.5 79.5t101.5 29.5q88 0 138 -59.5t45 -144.5h-324q-1 -12 -1 -35v-1q0 -98 43 -155t114 -57q89 0 162 102l7 -5
q-78 -120 -187 -120zM404 226q0 118 -41.5 174t-109.5 56q-142 0 -142 -229q0 -118 41.5 -174t109.5 -56q142 0 142 229zM617 455q-58 0 -94 -48.5t-44 -135.5h253q3 85 -24.5 134.5t-90.5 49.5z" />
    <glyph glyph-name="Racute" unicode="&#x154;" horiz-adv-x="667" 
d="M217 353h95q115 0 155.5 38.5t40.5 135.5q0 89 -46 124.5t-160 35.5h-85v-334zM217 342v-273q0 -40 18.5 -51t96.5 -13v-5h-313v5q84 2 103.5 13.5t19.5 52.5v555q0 41 -19.5 52.5t-103.5 13.5v5h287q128 0 208 -45t80 -126q0 -141 -209 -176v-3q102 -17 138.5 -54
t47.5 -122l6 -45q12 -73 37 -97t98 -24v-5q-48 -4 -105 -4q-58 0 -79.5 31.5t-30.5 105.5l-11 85q-9 75 -41.5 99.5t-122.5 24.5h-105zM319 765l26 55l20 43l15 33.5t11 23.5t9 17.5t7.5 10t9 5.5t11.5 1q14 0 24.5 -10t10.5 -24q0 -12 -8.5 -23t-52.5 -54l-38 -38l-40 -40
h-5z" />
    <glyph glyph-name="racute" unicode="&#x155;" horiz-adv-x="389" 
d="M13 0v5q46 1 63.5 8.5t17.5 31.5v357q0 24 -14 33t-67 13v5l148 6v-123q20 50 60 88.5t79 38.5q30 0 46.5 -15.5t16.5 -40.5q0 -21 -13.5 -36t-31.5 -15q-22 0 -35 12.5t-13 32.5q0 22 15 41q-68 -9 -123 -120v-277q0 -25 18 -32t74 -8v-5h-241zM189 525l26 55l20 43
l15 33.5t11 23.5t9 17.5t7.5 10t9 5.5t11.5 1q14 0 24.5 -10t10.5 -24q0 -12 -8.5 -23t-52.5 -54l-38 -38l-40 -40h-5z" />
    <glyph glyph-name="Rcommaaccent" unicode="&#x156;" horiz-adv-x="667" 
d="M217 353h95q115 0 155.5 38.5t40.5 135.5q0 89 -46 124.5t-160 35.5h-85v-334zM217 342v-273q0 -40 18.5 -51t96.5 -13v-5h-313v5q84 2 103.5 13.5t19.5 52.5v555q0 41 -19.5 52.5t-103.5 13.5v5h287q128 0 208 -45t80 -126q0 -141 -209 -176v-3q102 -17 138.5 -54
t47.5 -122l6 -45q12 -73 37 -97t98 -24v-5q-48 -4 -105 -4q-58 0 -79.5 31.5t-30.5 105.5l-11 85q-9 75 -41.5 99.5t-122.5 24.5h-105zM307 -253l-3 6q65 42 73 100l-4 2q-8 -9 -24 -9t-28 10.5t-12 28.5q0 19 12.5 32t32.5 13q22 0 36.5 -16t14.5 -41q0 -75 -98 -126z" />
    <glyph glyph-name="rcommaaccent" unicode="&#x157;" horiz-adv-x="389" 
d="M13 0v5q46 1 63.5 8.5t17.5 31.5v357q0 24 -14 33t-67 13v5l148 6v-123q20 50 60 88.5t79 38.5q30 0 46.5 -15.5t16.5 -40.5q0 -21 -13.5 -36t-31.5 -15q-22 0 -35 12.5t-13 32.5q0 22 15 41q-68 -9 -123 -120v-277q0 -25 18 -32t74 -8v-5h-241zM82 -253l-3 6
q65 42 73 100l-4 2q-8 -9 -24 -9t-28 10.5t-12 28.5q0 19 12.5 32t32.5 13q22 0 36.5 -16t14.5 -41q0 -75 -98 -126z" />
    <glyph glyph-name="Rcaron" unicode="&#x158;" horiz-adv-x="667" 
d="M217 353h95q115 0 155.5 38.5t40.5 135.5q0 89 -46 124.5t-160 35.5h-85v-334zM217 342v-273q0 -40 18.5 -51t96.5 -13v-5h-313v5q84 2 103.5 13.5t19.5 52.5v555q0 41 -19.5 52.5t-103.5 13.5v5h287q128 0 208 -45t80 -126q0 -141 -209 -176v-3q102 -17 138.5 -54
t47.5 -122l6 -45q12 -73 37 -97t98 -24v-5q-48 -4 -105 -4q-58 0 -79.5 31.5t-30.5 105.5l-11 85q-9 75 -41.5 99.5t-122.5 24.5h-105zM339 765l-120 176h8l118 -101l119 101h8l-128 -176h-5z" />
    <glyph glyph-name="rcaron" unicode="&#x159;" horiz-adv-x="389" 
d="M13 0v5q46 1 63.5 8.5t17.5 31.5v357q0 24 -14 33t-67 13v5l148 6v-123q20 50 60 88.5t79 38.5q30 0 46.5 -15.5t16.5 -40.5q0 -21 -13.5 -36t-31.5 -15q-22 0 -35 12.5t-13 32.5q0 22 15 41q-68 -9 -123 -120v-277q0 -25 18 -32t74 -8v-5h-241zM209 525l-120 176h8
l118 -101l119 101h8l-128 -176h-5z" />
    <glyph glyph-name="Sacute" unicode="&#x15a;" horiz-adv-x="573" 
d="M57 -18v246h3q41 -141 93.5 -186.5t153.5 -45.5q78 0 117.5 44t39.5 118q0 63 -38 99t-138 64q-116 32 -165.5 75.5t-49.5 118.5q0 85 66 140.5t154 55.5q84 0 162 -35l35 41h4v-219h-3q-45 119 -89 161t-116 42q-70 0 -110 -40.5t-40 -109.5q0 -64 37.5 -95.5
t141.5 -62.5q111 -33 161.5 -77.5t50.5 -121.5q0 -82 -63.5 -145t-161.5 -63t-196 48l-45 -52h-4zM279 765l26 55l20 43l15 33.5t11 23.5t9 17.5t7.5 10t9 5.5t11.5 1q14 0 24.5 -10t10.5 -24q0 -12 -8.5 -23t-52.5 -54l-38 -38l-40 -40h-5z" />
    <glyph glyph-name="sacute" unicode="&#x15b;" horiz-adv-x="409" 
d="M46 -11v162h3q46 -95 76 -124t89 -29q47 0 75.5 26t28.5 69q0 42 -24 64.5t-99 44.5q-78 23 -111.5 49.5t-33.5 75.5q0 55 47.5 96t104.5 41q55 0 109 -28l29 28h5v-145h-3q-39 82 -66.5 109t-74.5 27q-46 0 -74 -24.5t-28 -63.5q0 -37 27.5 -58.5t99.5 -43.5
q75 -22 108 -53.5t33 -80.5q0 -61 -48 -101.5t-107 -40.5q-62 0 -126 35l-35 -35h-5zM189 525l26 55l20 43l15 33.5t11 23.5t9 17.5t7.5 10t9 5.5t11.5 1q14 0 24.5 -10t10.5 -24q0 -12 -8.5 -23t-52.5 -54l-38 -38l-40 -40h-5z" />
    <glyph glyph-name="Scedilla" unicode="&#x15e;" horiz-adv-x="573" 
d="M262 -243q-54 0 -90 37l3 4q32 -29 81 -29q34 0 50.5 19t16.5 47q0 30 -23.5 47t-58.5 17q-19 0 -35 -4l-3 4l93 87q-99 1 -190 48l-45 -52h-4v246h3q41 -141 93.5 -186.5t153.5 -45.5q78 0 117.5 44t39.5 118q0 63 -38 99t-138 64q-116 32 -165.5 75.5t-49.5 118.5
q0 85 66 140.5t154 55.5q84 0 162 -35l35 41h4v-219h-3q-45 119 -89 161t-116 42q-70 0 -110 -40.5t-40 -109.5q0 -64 37.5 -95.5t141.5 -62.5q111 -33 161.5 -77.5t50.5 -121.5q0 -81 -60.5 -142.5t-155.5 -65.5l-57 -53l1 -2q56 0 86 -23.5t30 -62.5q0 -38 -30.5 -63
t-78.5 -25z" />
    <glyph glyph-name="scedilla" unicode="&#x15f;" horiz-adv-x="409" 
d="M177 -243q-54 0 -90 37l3 4q32 -29 81 -29q34 0 50.5 19t16.5 47q0 30 -23.5 47t-58.5 17q-19 0 -35 -4l-3 4l96 90h-2q-62 0 -126 35l-35 -35h-5v162h3q46 -95 76 -124t89 -29q47 0 75.5 26t28.5 69q0 42 -24 64.5t-99 44.5q-78 23 -111.5 49.5t-33.5 75.5q0 55 47.5 96
t104.5 41q55 0 109 -28l29 28h5v-145h-3q-39 82 -66.5 109t-74.5 27q-46 0 -74 -24.5t-28 -63.5q0 -37 27.5 -58.5t99.5 -43.5q75 -22 108 -53.5t33 -80.5q0 -56 -40.5 -95t-95.5 -46l-62 -57l1 -2q56 0 86 -23.5t30 -62.5q0 -38 -30.5 -63t-78.5 -25z" />
    <glyph glyph-name="Scaron" unicode="&#x160;" horiz-adv-x="573" 
d="M57 -18v246h3q41 -141 93.5 -186.5t153.5 -45.5q78 0 117.5 44t39.5 118q0 63 -38 99t-138 64q-116 32 -165.5 75.5t-49.5 118.5q0 85 66 140.5t154 55.5q84 0 162 -35l35 41h4v-219h-3q-45 119 -89 161t-116 42q-70 0 -110 -40.5t-40 -109.5q0 -64 37.5 -95.5
t141.5 -62.5q111 -33 161.5 -77.5t50.5 -121.5q0 -82 -63.5 -145t-161.5 -63t-196 48l-45 -52h-4zM299 765l-120 176h8l118 -101l119 101h8l-128 -176h-5z" />
    <glyph glyph-name="scaron" unicode="&#x161;" horiz-adv-x="409" 
d="M46 -11v162h3q46 -95 76 -124t89 -29q47 0 75.5 26t28.5 69q0 42 -24 64.5t-99 44.5q-78 23 -111.5 49.5t-33.5 75.5q0 55 47.5 96t104.5 41q55 0 109 -28l29 28h5v-145h-3q-39 82 -66.5 109t-74.5 27q-46 0 -74 -24.5t-28 -63.5q0 -37 27.5 -58.5t99.5 -43.5
q75 -22 108 -53.5t33 -80.5q0 -61 -48 -101.5t-107 -40.5q-62 0 -126 35l-35 -35h-5zM209 525l-120 176h8l118 -101l119 101h8l-128 -176h-5z" />
    <glyph glyph-name="Tcommaaccent" unicode="&#x162;" horiz-adv-x="685" 
d="M174 0v5q88 1 109.5 12.5t21.5 53.5v616h-112q-52 0 -77.5 -31t-75.5 -156l-5 1l6 196h603l6 -196l-5 -1q-50 125 -75.5 156t-77.5 31h-112v-616q0 -42 21.5 -53.5t109.5 -12.5v-5h-337zM299 -253l-3 6q65 42 73 100l-4 2q-8 -9 -24 -9t-28 10.5t-12 28.5q0 19 12.5 32
t32.5 13q22 0 36.5 -16t14.5 -41q0 -75 -98 -126z" />
    <glyph glyph-name="tcommaaccent" unicode="&#x163;" horiz-adv-x="337" 
d="M201 -11q-49 0 -78 31t-29 92v330h-93v9l93 4v134l68 33v-169h150v-11h-150v-334q0 -44 18.5 -68.5t50.5 -24.5q46 0 92 73l5 -3q-53 -96 -127 -96zM132 -253l-3 6q65 42 73 100l-4 2q-8 -9 -24 -9t-28 10.5t-12 28.5q0 19 12.5 32t32.5 13q22 0 36.5 -16t14.5 -41
q0 -75 -98 -126z" />
    <glyph glyph-name="Tcaron" unicode="&#x164;" horiz-adv-x="685" 
d="M174 0v5q88 1 109.5 12.5t21.5 53.5v616h-112q-52 0 -77.5 -31t-75.5 -156l-5 1l6 196h603l6 -196l-5 -1q-50 125 -75.5 156t-77.5 31h-112v-616q0 -42 21.5 -53.5t109.5 -12.5v-5h-337zM336 765l-120 176h8l118 -101l119 101h8l-128 -176h-5z" />
    <glyph glyph-name="tcaron" unicode="&#x165;" horiz-adv-x="337" 
d="M201 -11q-49 0 -78 31t-29 92v330h-93v9l93 4v134l68 33v-169h150v-11h-150v-334q0 -44 18.5 -68.5t50.5 -24.5q46 0 92 73l5 -3q-53 -96 -127 -96zM258 535l-2 105q0 9 -0.5 33t-0.5 32q0 47 37 47q35 0 35 -33q0 -17 -16 -59l-48 -125h-5z" />
    <glyph glyph-name="Umacron" unicode="&#x16a;" horiz-adv-x="756" 
d="M390 -14q-122 0 -190 58.5t-68 177.5v404q0 41 -19.5 52.5t-103.5 13.5v5h313v-5q-78 -2 -96.5 -13t-18.5 -51v-389q0 -123 52.5 -177.5t157.5 -54.5q90 0 138 48q64 64 64 176v381q0 44 -20.5 57.5t-103.5 22.5v5h252v-5q-77 -9 -96.5 -23.5t-19.5 -56.5v-384
q0 -112 -63 -177t-178 -65zM275 795v19h251v-19h-251z" />
    <glyph glyph-name="umacron" unicode="&#x16b;" horiz-adv-x="521" 
d="M198 -11q-59 0 -90 36.5t-31 102.5v274q0 24 -13 32.5t-62 13.5v5l143 6v-315q0 -117 88 -117q38 0 74 29t60 75v271q0 24 -14.5 33t-68.5 13v5l151 6v-414q0 -24 17.5 -31.5t63.5 -8.5v-5h-148v113q-33 -55 -77 -89.5t-93 -34.5zM130 555v19h251v-19h-251z" />
    <glyph glyph-name="Ubreve" unicode="&#x16c;" horiz-adv-x="756" 
d="M390 -14q-122 0 -190 58.5t-68 177.5v404q0 41 -19.5 52.5t-103.5 13.5v5h313v-5q-78 -2 -96.5 -13t-18.5 -51v-389q0 -123 52.5 -177.5t157.5 -54.5q90 0 138 48q64 64 64 176v381q0 44 -20.5 57.5t-103.5 22.5v5h252v-5q-77 -9 -96.5 -23.5t-19.5 -56.5v-384
q0 -112 -63 -177t-178 -65zM399 770q-53 0 -87.5 39t-44.5 107h8q21 -54 50.5 -74t75.5 -20t74 19.5t50 74.5h8q-10 -68 -45.5 -107t-88.5 -39z" />
    <glyph glyph-name="ubreve" unicode="&#x16d;" horiz-adv-x="521" 
d="M198 -11q-59 0 -90 36.5t-31 102.5v274q0 24 -13 32.5t-62 13.5v5l143 6v-315q0 -117 88 -117q38 0 74 29t60 75v271q0 24 -14.5 33t-68.5 13v5l151 6v-414q0 -24 17.5 -31.5t63.5 -8.5v-5h-148v113q-33 -55 -77 -89.5t-93 -34.5zM254 530q-53 0 -87.5 39t-44.5 107h8
q21 -54 50.5 -74t75.5 -20t74 19.5t50 74.5h8q-10 -68 -45.5 -107t-88.5 -39z" />
    <glyph glyph-name="Uring" unicode="&#x16e;" horiz-adv-x="756" 
d="M390 -14q-122 0 -190 58.5t-68 177.5v404q0 41 -19.5 52.5t-103.5 13.5v5h313v-5q-78 -2 -96.5 -13t-18.5 -51v-389q0 -123 52.5 -177.5t157.5 -54.5q90 0 138 48q64 64 64 176v381q0 44 -20.5 57.5t-103.5 22.5v5h252v-5q-77 -9 -96.5 -23.5t-19.5 -56.5v-384
q0 -112 -63 -177t-178 -65zM400 770q-43 0 -72.5 30t-29.5 72t29.5 72t72.5 30q42 0 72 -30t30 -72t-29.5 -72t-72.5 -30zM400 778q28 0 44 25.5t16 68.5q0 94 -60 94t-60 -94q0 -43 16 -68.5t44 -25.5z" />
    <glyph glyph-name="uring" unicode="&#x16f;" horiz-adv-x="521" 
d="M198 -11q-59 0 -90 36.5t-31 102.5v274q0 24 -13 32.5t-62 13.5v5l143 6v-315q0 -117 88 -117q38 0 74 29t60 75v271q0 24 -14.5 33t-68.5 13v5l151 6v-414q0 -24 17.5 -31.5t63.5 -8.5v-5h-148v113q-33 -55 -77 -89.5t-93 -34.5zM255 530q-43 0 -72.5 30t-29.5 72
t29.5 72t72.5 30q42 0 72 -30t30 -72t-29.5 -72t-72.5 -30zM255 538q28 0 44 25.5t16 68.5q0 94 -60 94t-60 -94q0 -43 16 -68.5t44 -25.5z" />
    <glyph glyph-name="Uhungarumlaut" unicode="&#x170;" horiz-adv-x="756" 
d="M390 -14q-122 0 -190 58.5t-68 177.5v404q0 41 -19.5 52.5t-103.5 13.5v5h313v-5q-78 -2 -96.5 -13t-18.5 -51v-389q0 -123 52.5 -177.5t157.5 -54.5q90 0 138 48q64 64 64 176v381q0 44 -20.5 57.5t-103.5 22.5v5h252v-5q-77 -9 -96.5 -23.5t-19.5 -56.5v-384
q0 -112 -63 -177t-178 -65zM462 765l28 55l19 38.5l15.5 30.5l11 23t9 17.5t7.5 11t8 8t8 3.5t10 1q14 0 24 -9t10 -23t-13.5 -29t-89.5 -87l-42 -40h-5zM329 765l28 55l19 38.5l15.5 30.5l11 23t9 17.5t7.5 11t8 8t8 3.5t10 1q14 0 24 -9t10 -23t-13.5 -29t-89.5 -87
l-42 -40h-5z" />
    <glyph glyph-name="uhungarumlaut" unicode="&#x171;" horiz-adv-x="521" 
d="M198 -11q-59 0 -90 36.5t-31 102.5v274q0 24 -13 32.5t-62 13.5v5l143 6v-315q0 -117 88 -117q38 0 74 29t60 75v271q0 24 -14.5 33t-68.5 13v5l151 6v-414q0 -24 17.5 -31.5t63.5 -8.5v-5h-148v113q-33 -55 -77 -89.5t-93 -34.5zM317 525l28 55l19 38.5l15.5 30.5l11 23
t9 17.5t7.5 11t8 8t8 3.5t10 1q14 0 24 -9t10 -23t-13.5 -29t-89.5 -87l-42 -40h-5zM184 525l28 55l19 38.5l15.5 30.5l11 23t9 17.5t7.5 11t8 8t8 3.5t10 1q14 0 24 -9t10 -23t-13.5 -29t-89.5 -87l-42 -40h-5z" />
    <glyph glyph-name="Uogonek" unicode="&#x172;" horiz-adv-x="756" 
d="M382 -243q-38 0 -64 20.5t-26 56.5q0 30 21 58.5t86 78.5l21 16q-10 -1 -30 -1q-122 0 -190 58.5t-68 177.5v404q0 41 -19.5 52.5t-103.5 13.5v5h313v-5q-78 -2 -96.5 -13t-18.5 -51v-389q0 -123 52.5 -177.5t157.5 -54.5q90 0 138 48q64 64 64 176v381q0 44 -20.5 57.5
t-103.5 22.5v5h252v-5q-77 -9 -96.5 -23.5t-19.5 -56.5v-384q0 -99 -49.5 -162t-141.5 -76l-23 -22q-38 -35 -53 -63.5t-15 -63.5q0 -31 17 -45.5t45 -14.5q29 0 66 17l3 -5q-50 -36 -98 -36z" />
    <glyph glyph-name="uogonek" unicode="&#x173;" horiz-adv-x="521" 
d="M198 -11q-59 0 -90 36.5t-31 102.5v274q0 24 -13 32.5t-62 13.5v5l143 6v-315q0 -117 88 -117q38 0 74 29t60 75v271q0 24 -14.5 33t-68.5 13v5l151 6v-414q0 -24 17.5 -31.5t63.5 -8.5v-5h-32l-34 -32q-38 -35 -53 -63.5t-15 -63.5q0 -31 17 -45.5t45 -14.5q29 0 66 17
l3 -5q-50 -36 -98 -36q-38 0 -64 20.5t-26 56.5q0 30 21 58.5t86 78.5l37 29h-101v113q-33 -55 -77 -89.5t-93 -34.5z" />
    <glyph glyph-name="Wcircumflex" unicode="&#x174;" horiz-adv-x="999" 
d="M506 531l-16 49q-26 78 -45.5 95t-76.5 17v5h272v-5q-73 -1 -86.5 -18.5t6.5 -74.5l161 -501h2l144 451q16 50 20.5 75.5t-5.5 42t-31.5 20.5t-65.5 5v5h235v-5q-57 -2 -83 -30.5t-55 -117.5l-184 -565h-6l-179 532l-197 -532h-6l-190 601q-23 74 -43 92t-81 21v4h278v-5
q-70 -1 -84.5 -22.5t4.5 -70.5l149 -503h2zM374 765l128 176h5l120 -176h-8l-118 101l-119 -101h-8z" />
    <glyph glyph-name="wcircumflex" unicode="&#x175;" horiz-adv-x="714" 
d="M373 321l-21 58q-15 41 -29.5 54t-53.5 16v4h215v-4q-73 -4 -73 -40q0 -9 6 -26l110 -302h2l105 286q10 30 10 43q0 17 -13 26t-44 13v4h150v-5q-43 -6 -58.5 -20t-35.5 -69l-138 -375h-7l-120 324l-137 -324h-5l-154 395q-16 40 -31.5 53t-57.5 16v5h219v-4
q-70 -4 -70 -38q0 -12 6 -28l119 -304h2zM249 525l128 176h5l120 -176h-8l-118 101l-119 -101h-8z" />
    <glyph glyph-name="Ycircumflex" unicode="&#x176;" horiz-adv-x="652" 
d="M357 329l143 245q39 67 28 90.5t-86 27.5v5h231v-5q-60 -4 -88 -27t-72 -98l-147 -248v-248q0 -40 25 -51.5t101 -13.5v-6h-327v5q84 1 105 12.5t21 53.5v232l-172 299q-33 56 -55 72t-74 19v4h291v-5q-83 -1 -96.5 -20t20.5 -73zM229 765l128 176h5l120 -176h-8
l-118 101l-119 -101h-8z" />
    <glyph glyph-name="ycircumflex" unicode="&#x177;" horiz-adv-x="471" 
d="M246 6l-166 373q-18 41 -33.5 53.5t-58.5 15.5v5h222v-4q-53 -3 -65.5 -17.5t3.5 -45.5l131 -303l114 285q17 40 7.5 57t-57.5 24v4h147v-5q-40 -6 -53 -19t-35 -69l-157 -389q-38 -95 -71 -130t-73 -35q-26 0 -42.5 16.5t-16.5 38.5q0 20 11.5 34t32.5 14
q18 0 30.5 -13.5t12.5 -32.5q0 -24 -15 -43q61 4 121 159zM139 525l128 176h5l120 -176h-8l-118 101l-119 -101h-8z" />
    <glyph glyph-name="Ydieresis" unicode="&#x178;" horiz-adv-x="652" 
d="M357 329l143 245q39 67 28 90.5t-86 27.5v5h231v-5q-60 -4 -88 -27t-72 -98l-147 -248v-248q0 -40 25 -51.5t101 -13.5v-6h-327v5q84 1 105 12.5t21 53.5v232l-172 299q-33 56 -55 72t-74 19v4h291v-5q-83 -1 -96.5 -20t20.5 -73zM434 770q-20 0 -33.5 14t-13.5 34
q0 19 13 33t32 14q20 0 33.5 -14.5t13.5 -34.5q0 -19 -13 -32.5t-32 -13.5zM278 770q-20 0 -33.5 14t-13.5 34q0 19 13 33t32 14q20 0 33.5 -14.5t13.5 -34.5q0 -19 -13 -32.5t-32 -13.5z" />
    <glyph glyph-name="Zacute" unicode="&#x179;" horiz-adv-x="609" 
d="M38 0l-1 5l444 682h-239q-55 0 -87.5 -33.5t-84.5 -153.5l-5 1l19 196h485l1 -5l-444 -682h270q38 0 60.5 12.5t48.5 54.5t62 130l5 -1l-16 -206h-518zM289 765l26 55l20 43l15 33.5t11 23.5t9 17.5t7.5 10t9 5.5t11.5 1q14 0 24.5 -10t10.5 -24q0 -12 -8.5 -23
t-52.5 -54l-38 -38l-40 -40h-5z" />
    <glyph glyph-name="zacute" unicode="&#x17a;" horiz-adv-x="443" 
d="M31 0l-1 5l301 437h-136q-46 0 -70 -25t-65 -121l-7 1l18 156h344l1 -5l-300 -437h149q45 0 76.5 30t63.5 124l5 -1l-16 -164h-363zM214 525l26 55l20 43l15 33.5t11 23.5t9 17.5t7.5 10t9 5.5t11.5 1q14 0 24.5 -10t10.5 -24q0 -12 -8.5 -23t-52.5 -54l-38 -38l-40 -40
h-5z" />
    <glyph glyph-name="Zdotaccent" unicode="&#x17b;" horiz-adv-x="609" 
d="M38 0l-1 5l444 682h-239q-55 0 -87.5 -33.5t-84.5 -153.5l-5 1l19 196h485l1 -5l-444 -682h270q38 0 60.5 12.5t48.5 54.5t62 130l5 -1l-16 -206h-518zM315 770q-20 0 -34 15t-14 35t14 35t34 15t34 -15t14 -35t-14 -35t-34 -15z" />
    <glyph glyph-name="zdotaccent" unicode="&#x17c;" horiz-adv-x="443" 
d="M31 0l-1 5l301 437h-136q-46 0 -70 -25t-65 -121l-7 1l18 156h344l1 -5l-300 -437h149q45 0 76.5 30t63.5 124l5 -1l-16 -164h-363zM240 530q-20 0 -34 15t-14 35t14 35t34 15t34 -15t14 -35t-14 -35t-34 -15z" />
    <glyph glyph-name="Zcaron" unicode="&#x17d;" horiz-adv-x="609" 
d="M38 0l-1 5l444 682h-239q-55 0 -87.5 -33.5t-84.5 -153.5l-5 1l19 196h485l1 -5l-444 -682h270q38 0 60.5 12.5t48.5 54.5t62 130l5 -1l-16 -206h-518zM309 765l-120 176h8l118 -101l119 101h8l-128 -176h-5z" />
    <glyph glyph-name="zcaron" unicode="&#x17e;" horiz-adv-x="443" 
d="M31 0l-1 5l301 437h-136q-46 0 -70 -25t-65 -121l-7 1l18 156h344l1 -5l-300 -437h149q45 0 76.5 30t63.5 124l5 -1l-16 -164h-363zM234 525l-120 176h8l118 -101l119 101h8l-128 -176h-5z" />
    <glyph glyph-name="Aringacute" unicode="&#x1fa;" horiz-adv-x="690" 
d="M347 711q28 0 44 25.5t16 68.5q0 94 -60 94t-60 -94q0 -43 16 -68.5t44 -25.5zM183 274l-51 -131q-34 -85 -21.5 -110t94.5 -28v-5h-225v5q54 4 78.5 30t61.5 119l218 549q-40 4 -66.5 33.5t-26.5 68.5q0 42 29.5 72t72.5 30q42 0 72 -30t30 -72q0 -39 -26.5 -68.5
t-66.5 -33.5l223 -586q28 -74 47 -91.5t79 -21.5v-4h-289v5q80 2 96 21.5t-6 71.5l-66 176h-257zM436 285l-121 325h-2l-126 -325h249zM320 919l26 55l20 43l15 33.5t11 23.5t9 17.5t7.5 10t9 5.5t11.5 1q14 0 24.5 -10t10.5 -24q0 -12 -8.5 -23t-52.5 -54l-38 -38l-40 -40
h-5z" />
    <glyph glyph-name="aringacute" unicode="&#x1fb;" horiz-adv-x="470" 
d="M160 -6q-56 0 -87.5 31t-31.5 74q0 65 66 101q56 30 210 53v72q0 68 -25.5 95.5t-82.5 27.5q-72 0 -97 -39q43 -7 43 -46q0 -21 -12.5 -34t-31.5 -13q-21 0 -33 13.5t-12 33.5q0 42 47 69.5t111 27.5q76 0 118.5 -31t42.5 -96v-254q0 -45 20 -57t65 6l2 -3
q-40 -29 -81 -29q-73 0 -73 82h-1q-74 -84 -157 -84zM193 25q70 0 124 66v152q-124 -16 -164.5 -43t-40.5 -88q0 -87 81 -87zM235 530q-43 0 -72.5 30t-29.5 72t29.5 72t72.5 30q42 0 72 -30t30 -72t-29.5 -72t-72.5 -30zM235 538q28 0 44 25.5t16 68.5q0 94 -60 94t-60 -94
q0 -43 16 -68.5t44 -25.5zM208 770l26 55l20 43l15 33.5t11 23.5t9 17.5t7.5 10t9 5.5t11.5 1q14 0 24.5 -10t10.5 -24q0 -12 -8.5 -23t-52.5 -54l-38 -38l-40 -40h-5z" />
    <glyph glyph-name="AEacute" unicode="&#x1fc;" horiz-adv-x="987" 
d="M240 288l-92 -145q-50 -80 -50 -103q0 -19 20.5 -26t67.5 -9v-5h-225v5q56 4 86.5 29.5t91.5 119.5l291 452q17 26 17 44q0 38 -98 42v5h563l3 -194l-5 -1q-44 120 -69 152.5t-81 32.5h-206v-320h127q44 0 60.5 25.5t36.5 111.5h5v-284h-5q-20 86 -36.5 111.5t-60.5 25.5
h-127v-347h239q55 0 79.5 34t68.5 163l5 -1l-5 -206h-585v5q84 2 103.5 13.5t19.5 52.5v217h-239zM479 299v361h-2l-230 -361h232zM569 765l26 55l20 43l15 33.5t11 23.5t9 17.5t7.5 10t9 5.5t11.5 1q14 0 24.5 -10t10.5 -24q0 -12 -8.5 -23t-52.5 -54l-38 -38l-40 -40h-5z
" />
    <glyph glyph-name="aeacute" unicode="&#x1fd;" horiz-adv-x="755" 
d="M536 464q88 0 138 -59.5t45 -144.5h-324q-1 -12 -1 -35v-1q0 -98 43 -155t114 -57q89 0 162 102l7 -5q-78 -120 -187 -120q-64 0 -111.5 33.5t-70.5 93.5h-2q-62 -122 -189 -122q-56 0 -87.5 31t-31.5 74q0 65 66 101q53 29 217 53v72q0 67 -28.5 95t-86.5 28
q-72 0 -97 -39q43 -7 43 -46q0 -21 -12.5 -34t-31.5 -13q-21 0 -33 13.5t-12 33.5q0 42 47 69.5t111 27.5q122 0 151 -80q59 84 161 84zM534 455q-58 0 -94 -48.5t-44 -135.5h253q3 85 -24.5 134.5t-90.5 49.5zM200 25q38 0 72 19t52 53v146q-125 -16 -168.5 -43.5
t-43.5 -87.5q0 -44 24 -65.5t64 -21.5zM389 525l26 55l20 43l15 33.5t11 23.5t9 17.5t7.5 10t9 5.5t11.5 1q14 0 24.5 -10t10.5 -24q0 -12 -8.5 -23t-52.5 -54l-38 -38l-40 -40h-5z" />
    <glyph glyph-name="Oslashacute" unicode="&#x1fe;" horiz-adv-x="758" 
d="M378 -17q129 0 228.5 103.5t99.5 263.5q0 164 -103 269l92 115h-18l-84 -105q-91 85 -213 85q-129 0 -228.5 -103.5t-99.5 -263.5q0 -165 102 -269l-91 -115h18l83 105q91 -85 214 -85zM378 705q131 0 191 -107l-388 -486q-42 86 -42 237q0 356 239 356zM380 -8
q-131 0 -191 106l387 487q43 -88 43 -237q0 -356 -239 -356zM353 765l26 55l20 43l15 33.5t11 23.5t9 17.5t7.5 10t9 5.5t11.5 1q14 0 24.5 -10t10.5 -24q0 -12 -8.5 -23t-52.5 -54l-38 -38l-40 -40h-5z" />
    <glyph glyph-name="oslashacute" unicode="&#x1ff;" horiz-adv-x="515" 
d="M64 -29h-18l62 78q-72 69 -72 176q0 101 67.5 170t154.5 69q77 0 138 -51l55 69h18l-62 -79q72 -69 72 -175q0 -101 -67.5 -170t-154.5 -69q-79 0 -139 51zM262 -3q142 0 142 229q0 87 -25 143l-237 -300q39 -72 120 -72zM111 227q0 -87 24 -143l238 299q-40 73 -120 73
q-142 0 -142 -229zM231 525l26 55l20 43l15 33.5t11 23.5t9 17.5t7.5 10t9 5.5t11.5 1q14 0 24.5 -10t10.5 -24q0 -12 -8.5 -23t-52.5 -54l-38 -38l-40 -40h-5z" />
    <glyph glyph-name="Scommaaccent" unicode="&#x218;" horiz-adv-x="573" 
d="M57 -18v246h3q41 -141 93.5 -186.5t153.5 -45.5q78 0 117.5 44t39.5 118q0 63 -38 99t-138 64q-116 32 -165.5 75.5t-49.5 118.5q0 85 66 140.5t154 55.5q84 0 162 -35l35 41h4v-219h-3q-45 119 -89 161t-116 42q-70 0 -110 -40.5t-40 -109.5q0 -64 37.5 -95.5
t141.5 -62.5q111 -33 161.5 -77.5t50.5 -121.5q0 -82 -63.5 -145t-161.5 -63t-196 48l-45 -52h-4zM247 -253l-3 6q65 42 73 100l-4 2q-8 -9 -24 -9t-28 10.5t-12 28.5q0 19 12.5 32t32.5 13q22 0 36.5 -16t14.5 -41q0 -75 -98 -126z" />
    <glyph glyph-name="scommaaccent" unicode="&#x219;" horiz-adv-x="409" 
d="M46 -11v162h3q46 -95 76 -124t89 -29q47 0 75.5 26t28.5 69q0 42 -24 64.5t-99 44.5q-78 23 -111.5 49.5t-33.5 75.5q0 55 47.5 96t104.5 41q55 0 109 -28l29 28h5v-145h-3q-39 82 -66.5 109t-74.5 27q-46 0 -74 -24.5t-28 -63.5q0 -37 27.5 -58.5t99.5 -43.5
q75 -22 108 -53.5t33 -80.5q0 -61 -48 -101.5t-107 -40.5q-62 0 -126 35l-35 -35h-5zM157 -253l-3 6q65 42 73 100l-4 2q-8 -9 -24 -9t-28 10.5t-12 28.5q0 19 12.5 32t32.5 13q22 0 36.5 -16t14.5 -41q0 -75 -98 -126z" />
    <glyph glyph-name="schwa" unicode="&#x259;" 
d="M222 464q91 0 151 -63t60 -166q0 -98 -62.5 -172t-151.5 -74q-88 0 -138 59.5t-45 144.5h324q0 5 0.5 17t0.5 18v1q0 98 -43 155t-114 57q-89 0 -162 -102l-7 5q78 120 187 120zM221 -2q58 0 94 48t44 136h-253q-3 -85 24.5 -134.5t90.5 -49.5z" />
    <glyph glyph-name="circumflex" unicode="&#x2c6;" horiz-adv-x="299" 
d="M23 525l128 176h5l120 -176h-8l-118 101l-119 -101h-8z" />
    <glyph glyph-name="caron" unicode="&#x2c7;" horiz-adv-x="299" 
d="M143 525l-120 176h8l118 -101l119 101h8l-128 -176h-5z" />
    <glyph glyph-name="breve" unicode="&#x2d8;" horiz-adv-x="336" 
d="M167 530q-53 0 -87.5 39t-44.5 107h8q21 -54 50.5 -74t75.5 -20t74 19.5t50 74.5h8q-10 -68 -45.5 -107t-88.5 -39z" />
    <glyph glyph-name="dotaccent" unicode="&#x2d9;" horiz-adv-x="192" 
d="M96 530q-20 0 -34 15t-14 35t14 35t34 15t34 -15t14 -35t-14 -35t-34 -15z" />
    <glyph glyph-name="ring" unicode="&#x2da;" horiz-adv-x="258" 
d="M129 530q-43 0 -72.5 30t-29.5 72t29.5 72t72.5 30q42 0 72 -30t30 -72t-29.5 -72t-72.5 -30zM129 538q28 0 44 25.5t16 68.5q0 94 -60 94t-60 -94q0 -43 16 -68.5t44 -25.5z" />
    <glyph glyph-name="ogonek" unicode="&#x2db;" horiz-adv-x="269" 
d="M97 -243q-38 0 -64 20.5t-26 56.5q0 30 21 58.5t86 78.5l44 34h14l-40 -37q-38 -35 -53 -63.5t-15 -63.5q0 -31 17 -45.5t45 -14.5q29 0 66 17l3 -5q-50 -36 -98 -36z" />
    <glyph glyph-name="tilde" unicode="&#x2dc;" horiz-adv-x="331" 
d="M17 520q18 113 84 113q26 0 79.5 -25t73.5 -25q39 0 56 63h5q-18 -113 -84 -113q-26 0 -79.5 25t-73.5 25q-39 0 -56 -63h-5z" />
    <glyph glyph-name="hungarumlaut" unicode="&#x2dd;" horiz-adv-x="288" 
d="M134 525l28 55l19 38.5l15.5 30.5l11 23t9 17.5t7.5 11t8 8t8 3.5t10 1q14 0 24 -9t10 -23t-13.5 -29t-89.5 -87l-42 -40h-5zM1 525l28 55l19 38.5l15.5 30.5l11 23t9 17.5t7.5 11t8 8t8 3.5t10 1q14 0 24 -9t10 -23t-13.5 -29t-89.5 -87l-42 -40h-5z" />
    <glyph glyph-name="commaaccent" unicode="&#x326;" horiz-adv-x="217" 
d="M52 -253l-3 6q65 42 73 100l-4 2q-8 -9 -24 -9t-28 10.5t-12 28.5q0 19 12.5 32t32.5 13q22 0 36.5 -16t14.5 -41q0 -75 -98 -126z" />
    <glyph glyph-name="Wgrave" unicode="&#x1e80;" horiz-adv-x="999" 
d="M506 531l-16 49q-26 78 -45.5 95t-76.5 17v5h272v-5q-73 -1 -86.5 -18.5t6.5 -74.5l161 -501h2l144 451q16 50 20.5 75.5t-5.5 42t-31.5 20.5t-65.5 5v5h235v-5q-57 -2 -83 -30.5t-55 -117.5l-184 -565h-6l-179 532l-197 -532h-6l-190 601q-23 74 -43 92t-81 21v4h278v-5
q-70 -1 -84.5 -22.5t4.5 -70.5l149 -503h2zM532 765l-40 40l-31 31q-48 47 -57.5 59t-9.5 25q0 14 10.5 24t24.5 10q7 0 11 -1t9 -5.5t8 -10t8.5 -17.5l10.5 -23.5l15 -33.5l20 -43l26 -55h-5z" />
    <glyph glyph-name="wgrave" unicode="&#x1e81;" horiz-adv-x="714" 
d="M373 321l-21 58q-15 41 -29.5 54t-53.5 16v4h215v-4q-73 -4 -73 -40q0 -9 6 -26l110 -302h2l105 286q10 30 10 43q0 17 -13 26t-44 13v4h150v-5q-43 -6 -58.5 -20t-35.5 -69l-138 -375h-7l-120 324l-137 -324h-5l-154 395q-16 40 -31.5 53t-57.5 16v5h219v-4
q-70 -4 -70 -38q0 -12 6 -28l119 -304h2zM407 525l-40 40l-31 31q-48 47 -57.5 59t-9.5 25q0 14 10.5 24t24.5 10q7 0 11 -1t9 -5.5t8 -10t8.5 -17.5l10.5 -23.5l15 -33.5l20 -43l26 -55h-5z" />
    <glyph glyph-name="Wacute" unicode="&#x1e82;" horiz-adv-x="999" 
d="M506 531l-16 49q-26 78 -45.5 95t-76.5 17v5h272v-5q-73 -1 -86.5 -18.5t6.5 -74.5l161 -501h2l144 451q16 50 20.5 75.5t-5.5 42t-31.5 20.5t-65.5 5v5h235v-5q-57 -2 -83 -30.5t-55 -117.5l-184 -565h-6l-179 532l-197 -532h-6l-190 601q-23 74 -43 92t-81 21v4h278v-5
q-70 -1 -84.5 -22.5t4.5 -70.5l149 -503h2zM474 765l26 55l20 43l15 33.5t11 23.5t9 17.5t7.5 10t9 5.5t11.5 1q14 0 24.5 -10t10.5 -24q0 -12 -8.5 -23t-52.5 -54l-38 -38l-40 -40h-5z" />
    <glyph glyph-name="wacute" unicode="&#x1e83;" horiz-adv-x="714" 
d="M373 321l-21 58q-15 41 -29.5 54t-53.5 16v4h215v-4q-73 -4 -73 -40q0 -9 6 -26l110 -302h2l105 286q10 30 10 43q0 17 -13 26t-44 13v4h150v-5q-43 -6 -58.5 -20t-35.5 -69l-138 -375h-7l-120 324l-137 -324h-5l-154 395q-16 40 -31.5 53t-57.5 16v5h219v-4
q-70 -4 -70 -38q0 -12 6 -28l119 -304h2zM349 525l26 55l20 43l15 33.5t11 23.5t9 17.5t7.5 10t9 5.5t11.5 1q14 0 24.5 -10t10.5 -24q0 -12 -8.5 -23t-52.5 -54l-38 -38l-40 -40h-5z" />
    <glyph glyph-name="Wdieresis" unicode="&#x1e84;" horiz-adv-x="999" 
d="M506 531l-16 49q-26 78 -45.5 95t-76.5 17v5h272v-5q-73 -1 -86.5 -18.5t6.5 -74.5l161 -501h2l144 451q16 50 20.5 75.5t-5.5 42t-31.5 20.5t-65.5 5v5h235v-5q-57 -2 -83 -30.5t-55 -117.5l-184 -565h-6l-179 532l-197 -532h-6l-190 601q-23 74 -43 92t-81 21v4h278v-5
q-70 -1 -84.5 -22.5t4.5 -70.5l149 -503h2zM579 770q-20 0 -33.5 14t-13.5 34q0 19 13 33t32 14q20 0 33.5 -14.5t13.5 -34.5q0 -19 -13 -32.5t-32 -13.5zM423 770q-20 0 -33.5 14t-13.5 34q0 19 13 33t32 14q20 0 33.5 -14.5t13.5 -34.5q0 -19 -13 -32.5t-32 -13.5z" />
    <glyph glyph-name="wdieresis" unicode="&#x1e85;" horiz-adv-x="714" 
d="M373 321l-21 58q-15 41 -29.5 54t-53.5 16v4h215v-4q-73 -4 -73 -40q0 -9 6 -26l110 -302h2l105 286q10 30 10 43q0 17 -13 26t-44 13v4h150v-5q-43 -6 -58.5 -20t-35.5 -69l-138 -375h-7l-120 324l-137 -324h-5l-154 395q-16 40 -31.5 53t-57.5 16v5h219v-4
q-70 -4 -70 -38q0 -12 6 -28l119 -304h2zM454 530q-20 0 -33.5 14t-13.5 34q0 19 13 33t32 14q20 0 33.5 -14.5t13.5 -34.5q0 -19 -13 -32.5t-32 -13.5zM298 530q-20 0 -33.5 14t-13.5 34q0 19 13 33t32 14q20 0 33.5 -14.5t13.5 -34.5q0 -19 -13 -32.5t-32 -13.5z" />
    <glyph glyph-name="Ygrave" unicode="&#x1ef2;" horiz-adv-x="652" 
d="M357 329l143 245q39 67 28 90.5t-86 27.5v5h231v-5q-60 -4 -88 -27t-72 -98l-147 -248v-248q0 -40 25 -51.5t101 -13.5v-6h-327v5q84 1 105 12.5t21 53.5v232l-172 299q-33 56 -55 72t-74 19v4h291v-5q-83 -1 -96.5 -20t20.5 -73zM387 765l-40 40l-31 31q-48 47 -57.5 59
t-9.5 25q0 14 10.5 24t24.5 10q7 0 11 -1t9 -5.5t8 -10t8.5 -17.5l10.5 -23.5l15 -33.5l20 -43l26 -55h-5z" />
    <glyph glyph-name="ygrave" unicode="&#x1ef3;" horiz-adv-x="471" 
d="M246 6l-166 373q-18 41 -33.5 53.5t-58.5 15.5v5h222v-4q-53 -3 -65.5 -17.5t3.5 -45.5l131 -303l114 285q17 40 7.5 57t-57.5 24v4h147v-5q-40 -6 -53 -19t-35 -69l-157 -389q-38 -95 -71 -130t-73 -35q-26 0 -42.5 16.5t-16.5 38.5q0 20 11.5 34t32.5 14
q18 0 30.5 -13.5t12.5 -32.5q0 -24 -15 -43q61 4 121 159zM297 525l-40 40l-31 31q-48 47 -57.5 59t-9.5 25q0 14 10.5 24t24.5 10q7 0 11 -1t9 -5.5t8 -10t8.5 -17.5l10.5 -23.5l15 -33.5l20 -43l26 -55h-5z" />
    <glyph glyph-name="enspace" unicode="&#x2002;" horiz-adv-x="500" 
 />
    <glyph glyph-name="emspace" unicode="&#x2003;" horiz-adv-x="1000" 
 />
    <glyph glyph-name="threeperemspace" unicode="&#x2004;" horiz-adv-x="333" 
 />
    <glyph glyph-name="fourperemspace" unicode="&#x2005;" horiz-adv-x="250" 
 />
    <glyph glyph-name="thinspace" unicode="&#x2009;" horiz-adv-x="133" 
 />
    <glyph glyph-name="hairspace" unicode="&#x200a;" horiz-adv-x="75" 
 />
    <glyph glyph-name="endash" unicode="&#x2013;" horiz-adv-x="540" 
d="M55 257v12h430v-12h-430z" />
    <glyph glyph-name="emdash" unicode="&#x2014;" horiz-adv-x="790" 
d="M55 257v12h680v-12h-680z" />
    <glyph glyph-name="quoteleft" unicode="&#x2018;" horiz-adv-x="200" 
d="M106 486q-28 0 -44 17.5t-16 46.5q0 89 130 153l4 -7q-43 -24 -70.5 -58.5t-31.5 -65.5l4 -2q10 10 27 10q18 0 31 -12t13 -32q0 -21 -13.5 -35.5t-33.5 -14.5z" />
    <glyph glyph-name="quoteright" unicode="&#x2019;" horiz-adv-x="200" 
d="M24 487l-4 7q43 24 70.5 58.5t31.5 65.5l-4 2q-10 -10 -27 -10q-18 0 -31 12t-13 32q0 21 13.5 35.5t33.5 14.5q28 0 44 -17.5t16 -46.5q0 -89 -130 -153z" />
    <glyph glyph-name="quotesinglbase" unicode="&#x201a;" horiz-adv-x="200" 
d="M24 -131l-4 7q43 24 70.5 58.5t31.5 65.5l-4 2q-10 -10 -27 -10q-18 0 -31 12t-13 32q0 21 13.5 35.5t33.5 14.5q28 0 44 -17.5t16 -46.5q0 -89 -130 -153z" />
    <glyph glyph-name="quotedblleft" unicode="&#x201c;" horiz-adv-x="352" 
d="M258 486q-28 0 -44 17.5t-16 46.5q0 89 130 153l4 -7q-43 -24 -70.5 -58.5t-31.5 -65.5l4 -2q10 10 27 10q18 0 31 -12t13 -32q0 -21 -13.5 -35.5t-33.5 -14.5zM106 486q-28 0 -44 17.5t-16 46.5q0 89 130 153l4 -7q-43 -24 -70.5 -58.5t-31.5 -65.5l4 -2q10 10 27 10
q18 0 31 -12t13 -32q0 -21 -13.5 -35.5t-33.5 -14.5z" />
    <glyph glyph-name="quotedblright" unicode="&#x201d;" horiz-adv-x="352" 
d="M176 487l-4 7q43 24 70.5 58.5t31.5 65.5l-4 2q-10 -10 -27 -10q-18 0 -31 12t-13 32q0 21 13.5 35.5t33.5 14.5q28 0 44 -17.5t16 -46.5q0 -89 -130 -153zM24 487l-4 7q43 24 70.5 58.5t31.5 65.5l-4 2q-10 -10 -27 -10q-18 0 -31 12t-13 32q0 21 13.5 35.5t33.5 14.5
q28 0 44 -17.5t16 -46.5q0 -89 -130 -153z" />
    <glyph glyph-name="quotedblbase" unicode="&#x201e;" horiz-adv-x="352" 
d="M176 -131l-4 7q43 24 70.5 58.5t31.5 65.5l-4 2q-10 -10 -27 -10q-18 0 -31 12t-13 32q0 21 13.5 35.5t33.5 14.5q28 0 44 -17.5t16 -46.5q0 -89 -130 -153zM24 -131l-4 7q43 24 70.5 58.5t31.5 65.5l-4 2q-10 -10 -27 -10q-18 0 -31 12t-13 32q0 21 13.5 35.5t33.5 14.5
q28 0 44 -17.5t16 -46.5q0 -89 -130 -153z" />
    <glyph glyph-name="dagger" unicode="&#x2020;" horiz-adv-x="549" 
d="M272 -106q-6 126 -17.5 251.5t-20.5 165.5l22 49q13 31 13 48q0 24 -21 43t-56 19q-22 0 -61 -19t-57 -19q-14 0 -25.5 8t-11.5 23q0 43 76 43t154 -56l3 2l-16 118q-15 115 -15 134q0 17 9.5 29t26.5 12q16 0 25.5 -12t9.5 -29q0 -19 -15 -134l-16 -118l3 -2
q78 56 154 56t76 -43q0 -15 -11.5 -23t-25.5 -8q-19 0 -58 19t-60 19q-35 0 -56 -19t-21 -43q0 -17 13 -48l22 -49q-9 -40 -20.5 -165.5t-17.5 -251.5h-5z" />
    <glyph glyph-name="daggerdbl" unicode="&#x2021;" horiz-adv-x="549" 
d="M274 -109q-16 0 -25.5 11.5t-9.5 27.5q0 17 15 127l16 112l-3 2q-80 -55 -154 -55q-76 0 -76 43q0 15 11.5 23t25.5 8q18 0 57 -19t61 -19q36 0 56.5 18t20.5 44q0 14 -10 42l-25 62l25 62q10 24 10 42q0 26 -20.5 44t-56.5 18q-22 0 -61 -19t-57 -19q-14 0 -25.5 8
t-11.5 23q0 43 76 43q74 0 154 -55l3 2l-16 112q-15 110 -15 127q0 16 9.5 27.5t26.5 11.5q16 0 25.5 -11.5t9.5 -27.5q0 -17 -15 -127l-16 -112l3 -2q80 55 154 55q76 0 76 -43q0 -15 -11.5 -23t-25.5 -8q-19 0 -58 19t-60 19q-36 0 -56.5 -18t-20.5 -44q0 -14 10 -42
l25 -62l-25 -62q-10 -24 -10 -42q0 -26 20.5 -44t56.5 -18q21 0 60 19t58 19q14 0 25.5 -8t11.5 -23q0 -43 -76 -43q-74 0 -154 55l-3 -2l16 -112q15 -110 15 -127q0 -16 -9.5 -27.5t-26.5 -11.5z" />
    <glyph glyph-name="bullet" unicode="&#x2022;" horiz-adv-x="438" 
d="M219 218q-46 0 -78.5 32t-32.5 78t32.5 78.5t78.5 32.5t78.5 -32.5t32.5 -78.5t-32.5 -78t-78.5 -32z" />
    <glyph glyph-name="ellipsis" unicode="&#x2026;" horiz-adv-x="560" 
d="M460 -16q-21 0 -36 14.5t-15 34.5q0 22 15 36.5t36 14.5t36 -14.5t15 -34.5q0 -22 -15 -36.5t-36 -14.5zM280 -16q-21 0 -36 14.5t-15 34.5q0 22 15 36.5t36 14.5t36 -14.5t15 -34.5q0 -22 -15 -36.5t-36 -14.5zM100 -16q-21 0 -36 14.5t-15 34.5q0 22 15 36.5t36 14.5
t36 -14.5t15 -34.5q0 -22 -15 -36.5t-36 -14.5z" />
    <glyph glyph-name="guilsinglleft" unicode="&#x2039;" horiz-adv-x="300" 
d="M238 28l-185 181q-10 10 -10 15q0 4 10 14l185 181l5 -3l-146 -191l146 -194z" />
    <glyph glyph-name="guilsinglright" unicode="&#x203a;" horiz-adv-x="300" 
d="M62 29l-5 3l146 191l-146 194l5 3l185 -181q10 -10 10 -15q0 -4 -10 -14z" />
    <glyph glyph-name="fraction" unicode="&#x2044;" horiz-adv-x="589" 
d="M42 -31l247 358l241 350h17l-246 -358l-242 -350h-17z" />
    <glyph glyph-name="Euro" unicode="&#x20ac;" horiz-adv-x="671" 
d="M457 279h-256q13 -117 73.5 -183.5t153.5 -66.5q124 0 189 124l6 -3q-72 -167 -228 -167q-123 0 -195 84t-82 212h-77v12h76v28q0 33 4 60h-80v12h82q21 123 105.5 204.5t202.5 81.5q81 0 133.5 -38t52.5 -92q0 -24 -14 -41t-35 -17q-24 0 -39 13t-15 38q0 42 51 56
q-7 24 -45.5 48t-88.5 24q-93 0 -156.5 -69.5t-74.5 -207.5h257v-12h-258q-1 -13 -1 -40q0 -33 2 -48h257v-12z" />
    <glyph glyph-name="published" unicode="&#x2117;" horiz-adv-x="834" 
d="M417 -34q-162 0 -272.5 110t-110.5 273q0 161 110.5 271.5t272.5 110.5t272.5 -110.5t110.5 -271.5q0 -163 -110.5 -273t-272.5 -110zM417 -23q156 0 262.5 108.5t106.5 263.5t-106.5 263t-262.5 108t-262.5 -108t-106.5 -263t106.5 -263.5t262.5 -108.5zM267 157v5
q41 1 54.5 7t13.5 21v324q0 15 -13.5 21.5t-54.5 7.5v5h161q70 0 110.5 -30t40.5 -78q0 -50 -40.5 -83t-114.5 -33h-41v-134q0 -15 14.5 -21t61.5 -7v-5h-192zM383 333h42q58 0 80.5 24.5t22.5 80.5q0 101 -100 101h-45v-206z" />
    <glyph glyph-name="servicemark" unicode="&#x2120;" horiz-adv-x="549" 
d="M50 549h4q14 -41 32.5 -55.5t45.5 -14.5q52 0 52 45q0 17 -11.5 29t-47.5 22q-38 11 -54 24.5t-16 38.5q0 29 23 46.5t54 17.5q25 0 51 -11l11 13h4v-69h-4q-24 60 -64 60q-22 0 -35.5 -11.5t-13.5 -30.5q0 -17 12.5 -27t47.5 -21q36 -11 52 -25t16 -40q0 -29 -21 -48.5
t-57 -19.5q-28 0 -62 15l-16 -16h-3v78zM234 477v5q24 2 30.5 9.5t6.5 35.5v135q0 15 -8 22t-29 8v5h82l64 -167h3l62 167h78v-5q-23 -1 -30 -5.5t-7 -13.5v-173q0 -9 7 -13t30 -5v-5h-102v5q18 1 24 5t6 13v172h-6l-75 -198h-5l-78 198h-6v-145q0 -27 6 -34.5t29 -10.5v-5
h-82z" />
    <glyph glyph-name="trademark" unicode="&#x2122;" horiz-adv-x="582" 
d="M267 477v5q24 2 30.5 9.5t6.5 35.5v135q0 15 -8 22t-29 8v5h82l64 -167h3l62 167h78v-5q-23 -1 -30 -5.5t-7 -13.5v-173q0 -9 7 -13t30 -5v-5h-102v5q18 1 24 5t6 13v172h-6l-75 -198h-5l-78 198h-6v-145q0 -27 6 -34.5t29 -10.5v-5h-82zM89 477v5q38 0 38 18v191h-11
q-27 0 -38 -12.5t-27 -55.5h-5l3 74h191l3 -74h-5q-15 43 -26.5 55.5t-39.5 12.5h-10v-191q0 -18 38 -18v-5h-111z" />
    <glyph glyph-name="minus" unicode="&#x2212;" horiz-adv-x="536" 
d="M54 319v12h428v-12h-428z" />
    <glyph glyph-name="registered.alt" horiz-adv-x="834" 
d="M417 -34q-162 0 -272.5 110t-110.5 273q0 161 110.5 271.5t272.5 110.5t272.5 -110.5t110.5 -271.5q0 -163 -110.5 -273t-272.5 -110zM417 -23q156 0 262.5 108.5t106.5 263.5t-106.5 263t-262.5 108t-262.5 -108t-106.5 -263t106.5 -263.5t262.5 -108.5zM358 359h52
q56 0 77.5 20.5t21.5 71.5q0 47 -25 67.5t-80 20.5h-46v-180zM358 350v-160q0 -15 13 -21t53 -7v-5h-182v5q41 1 54.5 7t13.5 21v324q0 15 -13.5 21.5t-54.5 7.5v5h171q74 0 110.5 -27.5t36.5 -67.5q0 -81 -108 -98v-2q48 -5 71 -24.5t28 -57.5l6 -52q4 -38 15 -47.5
t52 -9.5v-5q-20 -2 -34 -2q-45 0 -63.5 15.5t-20.5 54.5l-4 47q-5 47 -23 62.5t-70 15.5h-51z" />
    <glyph glyph-name="percent.alt" horiz-adv-x="850" 
d="M377 500q0 -73 -51.5 -124.5t-113.5 -51.5q-66 0 -116.5 50t-50.5 124q0 73 52 124.5t113 51.5q66 0 116.5 -49.5t50.5 -124.5zM162 -10l258 345l246 335h25l-257 -344l-247 -336h-25zM208 666q-96 0 -96 -166q0 -168 102 -168q96 0 96 166q0 168 -102 168zM476 160
q0 73 52 124.5t113 51.5q66 0 116.5 -49.5t50.5 -124.5q0 -73 -51.5 -124.5t-113.5 -51.5q-66 0 -116.5 50t-50.5 124zM645 -6q96 0 96 166q0 168 -102 168q-96 0 -96 -166q0 -168 102 -168z" />
    <glyph glyph-name="NUL" horiz-adv-x="0" 
 />
    <glyph glyph-name="hfjslug" horiz-adv-x="694" 
d="M644 -200h-208l-8 14h-163l-8 -14h-207v303q14 0 23 9.5t9 22.5t-9.5 22.5t-22.5 9.5v554h100l30 79h334l29 -79h101v-921zM400 563v-172h15v78h38v14h-38v66h43v14h-58zM184 563v-172h15v79h47v-79h15v172h-15v-79h-47v79h-15zM460 394q10 -4 21 -4q31 0 31 36v137h-16
v-137q0 -22 -16 -22q-8 0 -20 5v-15zM371 465l-13 3q-4 -18 -8 -30h-1l-16 31q23 21 23 42q0 12 -7 21.5t-20 9.5q-12 0 -20 -9.5t-8 -21.5q0 -13 14 -39q-23 -18 -23 -47q0 -16 8 -26.5t21 -10.5q19 0 29 24h1l12 -24l12 6l-17 32q6 14 13 39zM523 323v-46h8v12l8 8l15 -20
h10l-20 26l18 20h-10l-20 -24h-1v24h-8zM488 292l10 -15h9l-12 17q10 4 10 14q0 15 -17 15h-20v-46h8v15h12zM426 276q10 0 17 7t7 17q0 9 -7 16.5t-17 7.5t-17 -7.5t-7 -16.5q0 -10 7 -17t17 -7zM370 301l-13 22h-9l18 -29v-17h8v17l18 29h-9zM193 323v-46h34v7h-26v13h23
v7h-23v12h26v7h-34zM132 323v-46h8v32l25 -32h7v46h-8v-32l-25 32h-7zM241 323l14 -47h8l11 34h1l11 -34h8l14 47h-8l-10 -35h-1l-11 35h-7l-11 -35h-1l-10 35h-8zM327 479q-12 22 -12 32q0 19 14 19q13 0 13 -19q0 -15 -15 -32zM342 423q-8 -21 -20 -21q-16 0 -16 25
q0 19 16 35zM487 299h-11v17h11q10 0 10 -8q0 -9 -10 -9zM426 283q-16 0 -16 17q0 6 4.5 11.5t11.5 5.5t11.5 -5.5t4.5 -11.5q0 -17 -16 -17z" />
    <glyph glyph-name="i.dot" horiz-adv-x="254" 
d="M125 558q-20 0 -34 15t-14 35t14 35t34 15t34 -15t14 -35t-14 -35t-34 -15zM16 0v5q46 1 63.5 8.5t17.5 31.5v357q0 24 -14 33t-67 13v5l149 6v-414q0 -24 15.5 -31t60.5 -9v-5h-225z" />
    <glyph glyph-name="caron.alt" horiz-adv-x="135" 
d="M39 535l-2 105q0 9 -0.5 33t-0.5 32q0 47 37 47q35 0 35 -33q0 -17 -16 -59l-48 -125h-5z" />
    </font>
</defs>
</svg>
