<?xml version="1.0" encoding="utf-8"?>
<!-- Generator: Adobe Illustrator 21.0.0, SVG Export Plug-In . SVG Version: 6.00 Build 0)  -->
<svg version="1.1" id="Layer_1" xmlns="http://www.w3.org/2000/svg" xmlns:xlink="http://www.w3.org/1999/xlink" x="0px" y="0px"
	 viewBox="0 0 32 32" style="enable-background:new 0 0 32 32;" xml:space="preserve">
<g>
	<path d="M6.7632,12.3145H6.3009V9.8621l-1.0102,2.4524H4.939L3.9237,9.8621v2.4524H3.4665V8.7967h0.4423l1.2061,2.8142
		l1.2061-2.8142h0.4423V12.3145z"/>
	<path d="M8.0499,8.7967h0.4724v3.5178H8.0499V8.7967z"/>
	<path d="M13.1155,11.2291c-0.0436,0.1642-0.1147,0.3174-0.2137,0.4597c-0.0988,0.1425-0.2194,0.2656-0.3617,0.3695
		c-0.1425,0.1039-0.3041,0.1859-0.485,0.2462c-0.1808,0.0603-0.3769,0.0904-0.5879,0.0904c-0.2881,0-0.5462-0.0503-0.774-0.1507
		c-0.2278-0.1006-0.4212-0.2345-0.5803-0.402c-0.1593-0.1675-0.2808-0.3626-0.3644-0.5855
		c-0.0838-0.2229-0.1256-0.4583-0.1256-0.7061c0-0.2378,0.0409-0.4675,0.1231-0.6885c0.082-0.2211,0.2002-0.4163,0.3542-0.5855
		c0.1542-0.1691,0.3409-0.3049,0.5605-0.4071c0.2192-0.102,0.4664-0.1532,0.7413-0.1532c0.2544,0,0.4805,0.0344,0.6783,0.1029
		c0.1977,0.0687,0.3677,0.1618,0.5102,0.2789c0.1423,0.1174,0.257,0.2556,0.3442,0.4147c0.0871,0.1591,0.1474,0.3309,0.181,0.5151
		h-0.4824c-0.027-0.1274-0.0722-0.2462-0.1358-0.3568c-0.0636-0.1106-0.1458-0.2061-0.2462-0.2865
		c-0.1006-0.0804-0.217-0.1431-0.3493-0.1883c-0.1325-0.0454-0.2808-0.0679-0.4448-0.0679c-0.2178,0-0.4114,0.0395-0.5805,0.118
		c-0.1691,0.0789-0.3114,0.1844-0.4272,0.3168c-0.1155,0.1323-0.2043,0.2838-0.2662,0.4548
		c-0.0622,0.1707-0.093,0.3484-0.093,0.5327c0,0.1943,0.0319,0.3777,0.0955,0.5503c0.0636,0.1726,0.1566,0.3241,0.2789,0.4548
		c0.1223,0.1307,0.2722,0.2345,0.4499,0.3116c0.1775,0.0771,0.3801,0.1155,0.6079,0.1155c0.1206,0,0.2388-0.0184,0.3544-0.0552
		c0.1155-0.0368,0.2219-0.0887,0.3192-0.1558c0.0971-0.0671,0.1816-0.1466,0.2538-0.2388c0.072-0.092,0.1264-0.1934,0.1632-0.3039
		H13.1155z"/>
	<path d="M16.3016,10.7716h-1.6384v1.5429H14.206V8.7967h0.4572v1.5629h1.6384V8.7967h0.4574v3.5178h-0.4574V10.7716z"/>
	<path d="M18.5025,9.2087v1.1509h1.5181v0.412h-1.5181v1.1308h1.5181v0.412h-1.9754V8.7967h1.9754v0.412H18.5025z"/>
	<path d="M22.8901,11.9025v0.412h-1.6085V8.7967h0.4576v3.1058H22.8901z"/>
	<path d="M25.5284,11.9025v0.412h-1.6085V8.7967h0.4576v3.1058H25.5284z"/>
	<path d="M27.0158,9.2087v1.1509h1.5177v0.412h-1.5177v1.1308h1.5177v0.412h-1.9754V8.7967h1.9754v0.412H27.0158z"/>
	<path d="M9.5723,16.1607v1.5981H9.1151V14.241h0.4572v1.5981l1.4776-1.5981h0.5779l-1.6081,1.7588l1.6081,1.759h-0.5779
		L9.5723,16.1607z"/>
	<path d="M13.04,14.653v1.1509h1.5177v0.412H13.04v1.1308h1.5177v0.412h-1.975V14.241h1.975v0.412H13.04z"/>
	<path d="M17.4271,17.3468v0.412H15.819V14.241h0.4572v3.1058H17.4271z"/>
	<path d="M20.0656,17.3468v0.412h-1.6085V14.241h0.4576v3.1058H20.0656z"/>
	<path d="M21.4574,17.7588h-0.5022l0.7034-1.3971l-1.3267-2.1208h0.5325l1.0302,1.6433l0.8294-1.6433h0.5026L21.4574,17.7588z"/>
	<path d="M9.1827,22.0825c0,0.2413,0.072,0.4331,0.2161,0.5754c0.144,0.1423,0.3368,0.2135,0.5779,0.2135
		c0.2045,0,0.372-0.0536,0.5026-0.1607c0.1307-0.1072,0.1959-0.2532,0.1959-0.4372c0-0.1072-0.02-0.1963-0.0603-0.2667
		c-0.0401-0.0703-0.0928-0.1296-0.1583-0.1783c-0.0652-0.0483-0.1374-0.0871-0.2159-0.1153
		c-0.0789-0.0286-0.1566-0.0544-0.2337-0.0781c-0.1577-0.0503-0.3065-0.1022-0.4472-0.1558
		c-0.1409-0.0536-0.264-0.1198-0.3695-0.1984c-0.1055-0.0789-0.1883-0.1767-0.2487-0.2941
		c-0.0603-0.1174-0.0906-0.2646-0.0906-0.4421c0-0.1407,0.0276-0.2683,0.083-0.382c0.0552-0.1141,0.1315-0.2127,0.2286-0.2965
		c0.0971-0.0838,0.2127-0.1485,0.3468-0.1934c0.1339-0.0454,0.2797-0.0679,0.4372-0.0679c0.1607,0,0.3082,0.0258,0.4423,0.0777
		c0.1339,0.0519,0.2495,0.1251,0.3466,0.2188c0.0971,0.0937,0.1742,0.2069,0.2313,0.339c0.0568,0.1325,0.0855,0.2789,0.0855,0.4397
		h-0.4574c-0.0033-0.2008-0.0611-0.3615-0.1734-0.4822c-0.1123-0.1206-0.2671-0.1812-0.4648-0.1812
		c-0.1943,0-0.3509,0.047-0.4699,0.1407c-0.119,0.0941-0.1783,0.2229-0.1783,0.3873c0,0.0969,0.0184,0.1783,0.0552,0.2437
		c0.0368,0.065,0.0855,0.1206,0.1458,0.1656c0.0603,0.0454,0.1299,0.0838,0.2086,0.1157c0.0785,0.0319,0.1599,0.0593,0.2438,0.0826
		c0.1339,0.0438,0.2703,0.0924,0.4096,0.146c0.1388,0.0536,0.2654,0.1206,0.3793,0.2008c0.1139,0.0806,0.2061,0.1787,0.2765,0.2941
		c0.0703,0.1157,0.1055,0.2589,0.1055,0.4298c0,0.171-0.0311,0.3223-0.093,0.4548s-0.1466,0.2437-0.2538,0.3341
		c-0.1072,0.0904-0.2329,0.1583-0.3769,0.2037c-0.1442,0.045-0.3,0.0679-0.4675,0.0679c-0.1707,0-0.33-0.0278-0.4773-0.083
		c-0.1476-0.0552-0.2757-0.1341-0.3844-0.2364c-0.109-0.1018-0.1953-0.2278-0.2589-0.3767
		c-0.0638-0.1493-0.0955-0.3174-0.0955-0.5051H9.1827z"/>
	<path d="M12.6957,20.0973h-0.9096v-0.4123h2.2815v0.4123h-0.9145v3.1058h-0.4574V20.0973z"/>
	<path d="M15.8066,23.2031h-0.5026l0.7036-1.3971l-1.3267-2.121h0.5327l1.0302,1.6437l0.8292-1.6437h0.5026L15.8066,23.2031z"/>
	<path d="M20.1033,22.7909v0.4123h-1.6085v-3.518h0.4576v3.1058H20.1033z"/>
	<path d="M21.5907,20.0973v1.1509h1.5177v0.4122h-1.5177v1.1304h1.5177v0.4123h-1.9754v-3.518h1.9754v0.4123H21.5907z"/>
</g>
</svg>
