<?xml version="1.0" encoding="utf-8"?>
<!-- Generator: Adobe Illustrator 19.0.0, SVG Export Plug-In . SVG Version: 6.00 Build 0)  -->
<svg version="1.1" id="Layer_1" xmlns="http://www.w3.org/2000/svg" xmlns:xlink="http://www.w3.org/1999/xlink" x="0px" y="0px"
	 viewBox="-491 496.045 16 9.909" width="100" height="50" style="enable-background:new -491 496.045 16 9.909;" xml:space="preserve">
<g>
	<path d="M-485.19,501.888c0.019-0.051,0.047-0.104,0.087-0.161c0.033-0.046,0.073-0.092,0.12-0.138
		c0.043-0.04,0.089-0.078,0.139-0.113c0.092-0.065,0.195-0.118,0.298-0.154c0.093-0.033,0.191-0.054,0.29-0.063
		c0.03-0.003,0.059-0.003,0.088-0.003c0.055,0,0.108,0.004,0.157,0.013c0.064,0.011,0.125,0.03,0.169,0.054
		c0.046,0.025,0.066,0.049,0.073,0.059c0.003,0.004,0.005,0.008,0.008,0.011c0.003,0.022,0,0.047-0.01,0.076
		c-0.01,0.032-0.028,0.066-0.054,0.105c-0.044,0.066-0.104,0.131-0.183,0.2c-0.149,0.127-0.33,0.235-0.523,0.311
		c-0.105,0.041-0.211,0.071-0.314,0.089c-0.061,0.01-0.11,0.013-0.158,0.01c-0.053-0.003-0.098-0.016-0.131-0.036
		c-0.034-0.021-0.059-0.054-0.075-0.097c-0.001-0.001-0.001-0.003-0.001-0.005C-485.218,502.002-485.211,501.948-485.19,501.888
		 M-480.956,501.444c0.016-0.013,0.033-0.027,0.051-0.037l0.061-0.036c0.041-0.023,0.079-0.041,0.116-0.056
		c0.072-0.029,0.143-0.045,0.207-0.048c0.055-0.002,0.107,0.008,0.152,0.027c0.02,0.008,0.04,0.018,0.057,0.03l-0.002,0.005
		c-0.034,0.057-0.068,0.111-0.101,0.162c-0.039,0.06-0.086,0.129-0.141,0.204c-0.052,0.072-0.111,0.15-0.179,0.229
		c-0.033,0.038-0.068,0.078-0.106,0.116c-0.036,0.038-0.077,0.073-0.119,0.106c-0.009,0.007-0.02,0.014-0.033,0.023l-0.034,0.023
		c-0.026,0.016-0.049,0.03-0.072,0.042c-0.053,0.029-0.102,0.052-0.145,0.068c-0.021,0.008-0.044,0.013-0.066,0.017
		c-0.008,0.001-0.015,0.002-0.022,0.002c-0.008,0-0.014-0.001-0.015-0.002c0,0-0.001,0-0.002,0l0,0
		c-0.001-0.001-0.002-0.003-0.003-0.004c-0.003-0.005-0.008-0.019-0.01-0.042c-0.002-0.039,0.003-0.09,0.016-0.147
		c0.012-0.05,0.029-0.103,0.05-0.159c0.017-0.046,0.039-0.094,0.068-0.152c0.025-0.05,0.052-0.097,0.08-0.141
		C-481.082,501.573-481.018,501.497-480.956,501.444 M-478.496,500.123c0.092-0.208,0.176-0.396,0.27-0.58
		c0.102-0.2,0.208-0.384,0.316-0.546c0.028-0.042,0.057-0.083,0.089-0.122c0.015-0.02,0.03-0.037,0.043-0.05
		c0.001,0.003,0.001,0.007,0.001,0.011c0,0.02-0.002,0.042-0.005,0.067c-0.01,0.083-0.035,0.177-0.073,0.288
		c-0.037,0.105-0.084,0.207-0.12,0.284c-0.043,0.09-0.093,0.183-0.148,0.274c-0.027,0.044-0.055,0.089-0.083,0.132l-0.089,0.132
		c-0.105,0.156-0.23,0.34-0.363,0.526c-0.013,0.019-0.026,0.037-0.04,0.055C-478.631,500.434-478.562,500.276-478.496,500.123
		 M-477.052,501.848c0.035-0.027,0.073-0.055,0.108-0.084c0.049-0.04,0.097-0.081,0.143-0.121l0.038-0.033
		c0.052-0.045,0.104-0.092,0.154-0.137l0.052-0.046c0.049-0.043,0.099-0.087,0.148-0.129c0.054-0.046,0.116-0.097,0.178-0.132
		c0.011-0.005,0.022-0.011,0.03-0.014c0.001,0.009,0.002,0.019,0.002,0.03c0.003,0.063-0.003,0.135-0.017,0.219
		c-0.016,0.085-0.033,0.154-0.053,0.217c-0.027,0.079-0.053,0.145-0.083,0.201c-0.017,0.032-0.036,0.062-0.056,0.088
		c-0.023,0.032-0.042,0.057-0.063,0.077c-0.049,0.048-0.1,0.083-0.154,0.104c-0.033,0.012-0.062,0.02-0.089,0.024
		c-0.016,0.002-0.032,0.004-0.048,0.005l-0.026,0.001h-0.026c-0.073-0.001-0.142-0.012-0.207-0.03
		c-0.038-0.011-0.069-0.023-0.097-0.035c-0.016-0.008-0.031-0.015-0.044-0.023c-0.007-0.004-0.014-0.008-0.019-0.012l-0.002-0.001
		l0,0c-0.001-0.001-0.002-0.003-0.002-0.003c-0.01-0.014-0.024-0.024-0.039-0.029c0.031-0.024,0.062-0.048,0.092-0.071
		C-477.105,501.888-477.079,501.868-477.052,501.848 M-475.011,501.618c-0.016-0.015-0.043-0.015-0.057,0.001
		c-0.001,0-0.028,0.029-0.077,0.075c-0.074,0.068-0.145,0.127-0.219,0.183c-0.116,0.088-0.225,0.16-0.336,0.222
		c-0.14,0.079-0.281,0.142-0.417,0.185c-0.079,0.024-0.154,0.043-0.223,0.054c-0.075,0.012-0.148,0.018-0.217,0.015
		c-0.07-0.002-0.137-0.012-0.198-0.029c-0.003-0.001-0.005-0.001-0.006-0.002h0.002c0.024,0.001,0.048,0,0.07-0.001
		c0.052-0.004,0.098-0.013,0.139-0.027c0.045-0.015,0.088-0.036,0.129-0.062c0.036-0.023,0.072-0.052,0.11-0.09
		c0.059-0.061,0.11-0.134,0.154-0.223c0.038-0.077,0.068-0.159,0.089-0.244c0.023-0.089,0.037-0.171,0.043-0.251
		c0.008-0.102,0.007-0.182-0.003-0.26c-0.003-0.02-0.008-0.044-0.015-0.072c-0.003-0.013-0.009-0.027-0.018-0.045
		c-0.005-0.01-0.012-0.021-0.024-0.032c-0.003-0.003-0.008-0.007-0.012-0.01c-0.006-0.004-0.017-0.01-0.024-0.012
		c-0.004-0.001-0.006-0.002-0.009-0.003l-0.007-0.002c-0.012-0.003-0.022-0.003-0.034-0.003c-0.028,0-0.051,0.007-0.068,0.013
		c-0.023,0.008-0.044,0.019-0.067,0.034c-0.039,0.025-0.072,0.053-0.102,0.079c-0.028,0.024-0.056,0.051-0.089,0.083
		c-0.047,0.047-0.094,0.095-0.14,0.141l-0.028,0.029c-0.06,0.06-0.115,0.114-0.168,0.165c-0.113,0.108-0.23,0.206-0.358,0.301
		c-0.114,0.087-0.241,0.172-0.388,0.258c-0.075,0.044-0.141,0.08-0.203,0.112c-0.066,0.034-0.134,0.064-0.202,0.089
		c-0.033,0.011-0.065,0.019-0.091,0.022c-0.005,0.001-0.01,0.001-0.014,0.001c0-0.001-0.001-0.002-0.001-0.003
		c-0.002-0.012-0.003-0.027-0.003-0.043c-0.001-0.03,0.001-0.064,0.005-0.104c0.017-0.151,0.058-0.311,0.093-0.451
		c0.019-0.073,0.041-0.149,0.064-0.226l0.009-0.031c0.02-0.064,0.04-0.13,0.062-0.191l0.001-0.003
		c0.003-0.008,0.006-0.017,0.008-0.028l0.002-0.003c0.002-0.011,0.005-0.022,0.007-0.04c0-0.005,0.002-0.011,0.002-0.021
		c0-0.004,0-0.013-0.003-0.024v-0.003c-0.001-0.006-0.003-0.012-0.008-0.022s-0.016-0.024-0.03-0.033
		c-0.018-0.012-0.036-0.013-0.044-0.014h-0.003c-0.011,0-0.017,0.001-0.023,0.003c-0.012,0.003-0.019,0.007-0.024,0.01
		c-0.009,0.006-0.014,0.01-0.019,0.014c-0.012,0.012-0.019,0.022-0.026,0.03l-0.003,0.003c-0.027,0.038-0.047,0.073-0.066,0.108
		c-0.019,0.028-0.035,0.057-0.051,0.085c-0.025,0.041-0.048,0.08-0.073,0.119c-0.037,0.058-0.082,0.126-0.132,0.192
		c-0.049,0.063-0.1,0.123-0.149,0.178c-0.105,0.114-0.221,0.217-0.346,0.307c-0.113,0.081-0.235,0.157-0.375,0.23v-0.024v-0.002
		c0-0.01,0-0.02,0.001-0.03c0.001-0.014,0.003-0.03,0.004-0.046c0.001-0.008,0.002-0.017,0.003-0.025
		c0.013-0.104,0.038-0.21,0.062-0.3c0.008-0.032,0.016-0.063,0.026-0.095c0.005-0.019,0.011-0.039,0.016-0.058
		c0.013-0.049,0.027-0.099,0.043-0.153c0.026-0.089,0.056-0.185,0.095-0.305c0.029-0.089,0.06-0.183,0.094-0.276
		c0.043-0.053,0.086-0.105,0.128-0.158c0.08-0.1,0.142-0.177,0.2-0.251l0.05-0.064c0.114-0.145,0.231-0.294,0.344-0.442
		c0.069-0.089,0.133-0.178,0.19-0.266c0.062-0.095,0.118-0.191,0.167-0.285c0.049-0.094,0.095-0.197,0.137-0.305
		c0.032-0.087,0.071-0.204,0.09-0.333c0.005-0.034,0.007-0.065,0.008-0.094c0-0.03-0.001-0.067-0.011-0.109
		c-0.004-0.016-0.01-0.04-0.026-0.067c-0.01-0.017-0.032-0.05-0.072-0.071c-0.03-0.016-0.06-0.019-0.08-0.019
		c-0.007,0-0.014,0-0.021,0.001c-0.013,0.002-0.026,0.004-0.039,0.009l-0.013,0.004c-0.002,0.001-0.005,0.002-0.008,0.004l0,0
		l-0.011,0.005c-0.006,0.004-0.012,0.007-0.019,0.011c-0.004,0.003-0.008,0.005-0.008,0.006l-0.006,0.004
		c-0.01,0.007-0.017,0.013-0.024,0.019c-0.013,0.011-0.024,0.022-0.038,0.037c-0.018,0.02-0.037,0.043-0.057,0.072
		c-0.033,0.045-0.06,0.09-0.09,0.144c-0.052,0.091-0.098,0.183-0.15,0.293c-0.035,0.074-0.07,0.15-0.104,0.224l-0.032,0.07
		c-0.024,0.053-0.049,0.106-0.073,0.159c-0.064,0.14-0.131,0.285-0.194,0.428c-0.078,0.176-0.159,0.364-0.255,0.591
		c-0.039,0.092-0.079,0.189-0.123,0.299c-0.022,0.052-0.043,0.105-0.065,0.157c-0.053,0.068-0.104,0.135-0.156,0.198
		c-0.054,0.068-0.128,0.157-0.203,0.244c-0.144,0.162-0.286,0.318-0.441,0.453c-0.096,0.082-0.171,0.141-0.246,0.192
		c-0.044,0.03-0.087,0.057-0.128,0.079c-0.028,0.015-0.054,0.029-0.078,0.039c0-0.036,0.005-0.081,0.013-0.131
		c0.019-0.108,0.05-0.217,0.074-0.3c0.032-0.111,0.062-0.209,0.094-0.303l0.05-0.151l0.051-0.147
		c0.024-0.051,0.006-0.112-0.043-0.14c-0.014-0.008-0.032-0.013-0.05-0.013c-0.038,0-0.073,0.021-0.092,0.057l-0.006,0.011
		c-0.019-0.016-0.038-0.03-0.06-0.043c-0.063-0.038-0.14-0.062-0.218-0.068c-0.089-0.005-0.188,0.008-0.279,0.041
		c-0.019,0.006-0.037,0.013-0.054,0.02l-0.019,0.008c-0.007,0.003-0.014,0.006-0.021,0.009c-0.016,0.007-0.033,0.015-0.05,0.024
		l-0.069,0.038c-0.024,0.013-0.049,0.029-0.076,0.051c-0.015,0.012-0.03,0.023-0.044,0.036c-0.034,0.022-0.073,0.047-0.114,0.077
		c-0.114,0.082-0.236,0.182-0.363,0.296c-0.065,0.059-0.131,0.121-0.211,0.196c-0.068,0.065-0.148,0.14-0.229,0.224
		c-0.008,0.008-0.016,0.015-0.023,0.023c0.003-0.02,0.008-0.041,0.012-0.063c0.042-0.219,0.099-0.465,0.178-0.774l0.026-0.1
		l0.017-0.061c0.001-0.005,0.003-0.012,0.005-0.019c0.001-0.008,0.003-0.016,0.004-0.028c0-0.004,0-0.008-0.001-0.012
		c0-0.006-0.001-0.013-0.003-0.019l-0.002-0.005c-0.003-0.01-0.007-0.018-0.018-0.03c-0.013-0.016-0.034-0.024-0.049-0.025
		c-0.011-0.001-0.023,0-0.032,0.003c-0.008,0.003-0.012,0.005-0.016,0.006c-0.004,0.003-0.008,0.005-0.011,0.006
		c-0.003,0.002-0.006,0.004-0.006,0.005c-0.008,0.006-0.012,0.011-0.017,0.016c-0.009,0.009-0.016,0.018-0.022,0.026
		c-0.011,0.015-0.021,0.03-0.034,0.049c-0.021,0.035-0.041,0.07-0.054,0.096c-0.068,0.118-0.155,0.229-0.245,0.342
		c-0.086,0.106-0.182,0.215-0.286,0.324c-0.103,0.107-0.213,0.202-0.326,0.279c-0.055,0.04-0.116,0.077-0.178,0.111
		c-0.033,0.018-0.065,0.033-0.09,0.044c-0.004,0.002-0.008,0.003-0.012,0.005c-0.003,0.001-0.008,0.003-0.01,0.004
		c-0.001-0.016,0-0.036,0.002-0.057c0.007-0.07,0.023-0.143,0.036-0.199c0.036-0.149,0.081-0.295,0.117-0.405
		c0.021-0.066,0.043-0.133,0.066-0.198c0.012-0.033,0.024-0.065,0.036-0.096l0.011-0.029l0,0c0,0,0-0.001,0.001-0.002v-0.001
		c0.002-0.004,0.003-0.009,0.005-0.014l0.001-0.003c0.004-0.017,0.003-0.026,0.003-0.035v-0.005
		c-0.002-0.016-0.006-0.028-0.011-0.04c-0.004-0.011-0.011-0.026-0.027-0.042c-0.006-0.006-0.017-0.016-0.031-0.023
		c-0.014-0.007-0.03-0.011-0.045-0.012c-0.025-0.002-0.045,0.003-0.067,0.015c-0.022,0.013-0.032,0.024-0.039,0.032l-0.003,0.004
		c-0.004,0.004-0.006,0.008-0.01,0.013c-0.003,0.004-0.003,0.005-0.005,0.006l-0.008,0.015c-0.067,0.117-0.136,0.237-0.202,0.356
		l-0.094,0.174l-0.091,0.171c-0.13,0.249-0.235,0.459-0.321,0.642c-0.014,0.028-0.028,0.055-0.04,0.082
		c0.002-0.004,0.003-0.008,0.004-0.013c0.091-0.275,0.181-0.536,0.26-0.752c0.045-0.123,0.081-0.217,0.113-0.295
		c0.016-0.043,0.033-0.081,0.048-0.119l0.001-0.002c0.005-0.012,0.01-0.022,0.014-0.032c0.003-0.006,0.006-0.012,0.009-0.018
		c0.007-0.016,0.013-0.031,0.022-0.046l0.023-0.047c0.003-0.007,0.007-0.015,0.01-0.027v-0.002c0.002-0.01,0.006-0.025,0.004-0.051
		c-0.002-0.018-0.007-0.034-0.015-0.049c-0.01-0.018-0.025-0.035-0.043-0.045c-0.027-0.016-0.047-0.018-0.059-0.019h-0.009
		c-0.019,0-0.031,0.002-0.04,0.004l-0.005,0.002c-0.011,0.003-0.019,0.005-0.027,0.008c-0.014,0.005-0.026,0.01-0.037,0.015
		c-0.017,0.009-0.03,0.015-0.041,0.02c-0.015-0.008-0.031-0.017-0.048-0.024c-0.086-0.039-0.197-0.059-0.319-0.059
		c-0.06,0-0.121,0.005-0.184,0.014c-0.106,0.017-0.211,0.047-0.315,0.09c-0.028,0.011-0.054,0.024-0.081,0.037
		c-0.025,0.013-0.052,0.027-0.079,0.043c-0.054,0.031-0.106,0.066-0.154,0.103c-0.107,0.083-0.198,0.178-0.269,0.281
		c-0.02,0.029-0.038,0.058-0.054,0.087c0.011-0.07,0.026-0.147,0.05-0.235c0.06-0.218,0.151-0.453,0.294-0.761
		c0.25-0.537,0.56-1.07,0.857-1.567c0.299-0.497,0.635-1.026,1.03-1.616c0.168-0.251,0.349-0.517,0.555-0.815l0.089-0.128
		c0.017-0.025,0.036-0.051,0.053-0.079c0.027-0.043,0.049-0.079,0.068-0.115c0.024-0.044,0.043-0.086,0.057-0.132
		c0.009-0.025,0.017-0.051,0.021-0.086v-0.003c0.001-0.017,0.003-0.038-0.003-0.069c-0.006-0.023-0.014-0.042-0.029-0.059
		c-0.015-0.021-0.041-0.039-0.066-0.046c-0.015-0.005-0.029-0.007-0.044-0.007c-0.004,0-0.008,0-0.013,0.001
		c-0.016,0.001-0.029,0.004-0.038,0.007c-0.019,0.006-0.035,0.013-0.048,0.02c-0.026,0.014-0.047,0.03-0.066,0.044
		c-0.035,0.027-0.068,0.057-0.102,0.091c-0.026,0.025-0.051,0.051-0.075,0.077l-0.7,0.735c-0.252,0.267-0.461,0.49-0.669,0.727
		c-0.437,0.5-0.879,0.966-1.314,1.383c-0.44,0.422-0.892,0.816-1.342,1.169c-0.428,0.336-0.867,0.643-1.303,0.913
		c-0.385,0.239-0.782,0.454-1.179,0.64c-0.33,0.153-0.651,0.283-0.958,0.385c-0.283,0.095-0.503,0.148-0.638,0.177
		c-0.059,0.013-0.117,0.024-0.17,0.032c-0.038,0.006-0.058,0.008-0.058,0.008c-0.022,0.002-0.038,0.023-0.036,0.045
		c0.002,0.021,0.019,0.037,0.04,0.037h0.004c0.001,0,0.022-0.002,0.062-0.008c0.056-0.008,0.115-0.019,0.175-0.032
		c0.137-0.027,0.361-0.081,0.649-0.174c0.31-0.101,0.636-0.229,0.97-0.382c0.394-0.181,0.796-0.394,1.195-0.634
		c0.443-0.266,0.888-0.57,1.325-0.903c0.459-0.351,0.918-0.741,1.367-1.161c0.444-0.415,0.894-0.878,1.34-1.376
		c0.208-0.232,0.419-0.451,0.673-0.714l0.653-0.667l-0.096,0.14c-0.204,0.3-0.385,0.568-0.552,0.821
		c-0.393,0.595-0.729,1.129-1.028,1.631c-0.159,0.267-0.311,0.538-0.454,0.804c-0.156,0.294-0.286,0.555-0.394,0.796
		c-0.096,0.217-0.217,0.504-0.294,0.799c-0.031,0.121-0.062,0.264-0.06,0.42c0.001,0.088,0.014,0.159,0.038,0.224
		c0.016,0.04,0.037,0.077,0.062,0.108c0.026,0.033,0.059,0.061,0.095,0.083c0.062,0.037,0.132,0.056,0.218,0.06
		c0.062,0.003,0.123-0.002,0.197-0.016c0.057-0.01,0.112-0.024,0.18-0.046c0.055-0.017,0.112-0.038,0.168-0.062
		c0.136-0.058,0.263-0.127,0.379-0.209c0.047-0.029,0.092-0.059,0.135-0.091c0.013-0.01,0.025-0.019,0.038-0.029
		c-0.066,0.201-0.136,0.426-0.209,0.669c-0.085,0.285-0.171,0.582-0.254,0.883c-0.166,0.596-0.321,1.204-0.425,1.667
		c-0.027,0.118-0.05,0.224-0.068,0.313c-0.021,0.102-0.037,0.188-0.048,0.243l-0.003,0.023c-0.011,0.057-0.018,0.103-0.023,0.135
		l-0.008,0.056c-0.004,0.022,0.011,0.043,0.033,0.047c0.002,0,0.005,0.001,0.007,0.001c0.02,0,0.037-0.014,0.04-0.034l0.009-0.056
		c0.006-0.032,0.015-0.076,0.026-0.132l0.005-0.022c0.012-0.055,0.03-0.139,0.054-0.24c0.02-0.089,0.047-0.193,0.076-0.309
		c0.119-0.458,0.29-1.058,0.473-1.647c0.006-0.02,0.012-0.04,0.019-0.06c0.038-0.095,0.078-0.192,0.122-0.293
		c0.059-0.129,0.151-0.325,0.265-0.54c0.116-0.213,0.236-0.419,0.361-0.612c0.017-0.027,0.036-0.056,0.055-0.086
		c-0.006,0.025-0.011,0.049-0.016,0.074c-0.014,0.067-0.029,0.148-0.034,0.235c-0.002,0.044-0.003,0.087,0.009,0.141
		c0.006,0.027,0.016,0.06,0.043,0.094c0.015,0.02,0.037,0.037,0.06,0.047c0.026,0.013,0.052,0.016,0.07,0.016
		c0.04,0,0.069-0.011,0.095-0.023l0.035-0.019c0.006-0.003,0.013-0.007,0.019-0.011c0.034-0.021,0.066-0.044,0.099-0.069
		c0.062-0.048,0.119-0.102,0.172-0.152c0.085-0.083,0.167-0.169,0.246-0.252c0.022-0.022,0.043-0.045,0.064-0.067
		c0.095-0.099,0.191-0.205,0.294-0.327c0.051-0.061,0.097-0.116,0.138-0.169l0.004-0.006c0.005-0.007,0.01-0.014,0.016-0.022
		c-0.071,0.233-0.124,0.423-0.168,0.601c-0.011,0.051-0.027,0.12-0.04,0.19c-0.005,0.029-0.01,0.063-0.015,0.1
		c-0.002,0.016-0.003,0.035-0.003,0.057c0,0.009,0,0.021,0.002,0.036c0.001,0.006,0.002,0.015,0.005,0.025
		c0.002,0.011,0.007,0.024,0.016,0.041c0.003,0.004,0.006,0.008,0.009,0.014c0.004,0.005,0.009,0.01,0.016,0.016
		c0.005,0.005,0.011,0.01,0.02,0.016c0.01,0.005,0.019,0.009,0.026,0.011c0.01,0.003,0.02,0.004,0.028,0.005
		c0.009,0.001,0.018,0,0.024-0.001c0.015-0.002,0.024-0.005,0.035-0.009c0.028-0.013,0.039-0.025,0.048-0.033l0.004-0.004
		c0.005-0.005,0.009-0.01,0.013-0.014l0.102-0.151c0.021-0.032,0.043-0.064,0.064-0.095c0.124-0.184,0.248-0.339,0.373-0.459
		c0.049-0.048,0.1-0.094,0.15-0.136c-0.049,0.081-0.09,0.166-0.124,0.252c-0.026,0.068-0.046,0.13-0.059,0.192
		c-0.013,0.062-0.025,0.135-0.018,0.22c0.004,0.036,0.011,0.084,0.04,0.135c0.015,0.026,0.034,0.049,0.056,0.067
		c0.023,0.019,0.05,0.033,0.079,0.042c0.023,0.006,0.048,0.009,0.072,0.009c0.022,0,0.044-0.003,0.07-0.008
		c0.041-0.009,0.077-0.024,0.106-0.038c0.067-0.033,0.124-0.074,0.166-0.106c0.024-0.017,0.048-0.036,0.073-0.058l0.034-0.03
		c0.013-0.011,0.025-0.022,0.035-0.031c0.077-0.074,0.154-0.155,0.236-0.248c0.06-0.071,0.114-0.137,0.163-0.2
		c-0.025,0.094-0.052,0.203-0.07,0.318c-0.008,0.054-0.016,0.114-0.011,0.184c0.001,0.015,0.003,0.034,0.008,0.057
		c0.005,0.021,0.012,0.044,0.028,0.07c0.01,0.015,0.022,0.029,0.035,0.04c0.016,0.013,0.034,0.023,0.053,0.028
		c0.015,0.004,0.03,0.006,0.044,0.006c0.02,0,0.038-0.004,0.049-0.007c0.006-0.001,0.011-0.003,0.016-0.005l0.034-0.015
		c0.014-0.007,0.029-0.014,0.041-0.022c0.025-0.014,0.052-0.03,0.076-0.047c0.042-0.031,0.085-0.066,0.13-0.107
		c0.076-0.069,0.151-0.145,0.231-0.232c0.034-0.036,0.068-0.074,0.102-0.111l0.006-0.008c0.022-0.023,0.044-0.047,0.065-0.071
		c0.014-0.016,0.029-0.032,0.043-0.048c0.067-0.074,0.137-0.154,0.212-0.241c0.057-0.065,0.108-0.125,0.158-0.183
		c-0.015,0.04-0.03,0.081-0.045,0.121c-0.019,0.055-0.035,0.106-0.052,0.154c-0.017,0.052-0.032,0.105-0.046,0.156l-0.001,0.002
		c-0.031,0.119-0.055,0.22-0.069,0.329c-0.004,0.026-0.005,0.056-0.004,0.092c0,0.038,0.004,0.072,0.012,0.105
		c0.005,0.015,0.01,0.031,0.018,0.049c0,0,0.007,0.013,0.008,0.015c0.011,0.016,0.034,0.047,0.07,0.063
		c0.019,0.008,0.039,0.013,0.06,0.013c0.01,0,0.02-0.001,0.031-0.003c0.025-0.005,0.044-0.014,0.058-0.021l0.009-0.005
		c0.073-0.047,0.138-0.092,0.199-0.137c0.058-0.043,0.12-0.092,0.188-0.149c0.064-0.052,0.124-0.108,0.18-0.159
		c0.06-0.056,0.117-0.116,0.169-0.171c0.053-0.056,0.106-0.118,0.158-0.183c0.034-0.043,0.066-0.083,0.094-0.123
		c-0.008,0.025-0.014,0.049-0.022,0.073c-0.024,0.08-0.044,0.16-0.062,0.237c-0.015,0.066-0.033,0.153-0.044,0.246
		c-0.004,0.035-0.009,0.082-0.007,0.134c0,0.029,0.003,0.053,0.008,0.077c0.006,0.029,0.014,0.061,0.039,0.097
		c0.007,0.009,0.014,0.018,0.023,0.026c0.005,0.005,0.01,0.01,0.017,0.014l0.007,0.004c0.001,0.001,0.003,0.002,0.009,0.006
		l0.011,0.005c0.005,0.003,0.011,0.005,0.018,0.007c0.008,0.003,0.018,0.006,0.027,0.007c0.015,0.003,0.03,0.004,0.045,0.004
		c0.018,0,0.033-0.002,0.046-0.004c0.05-0.007,0.091-0.023,0.135-0.042c0.081-0.035,0.153-0.083,0.216-0.126
		c0.06-0.041,0.122-0.086,0.194-0.143c0.053-0.041,0.105-0.083,0.156-0.124c0.008-0.006,0.016-0.013,0.025-0.019
		c0,0.002,0,0.003,0,0.005c0,0.004,0.001,0.007,0.002,0.01h-0.013l0.016,0.012c0.001,0.002,0.002,0.004,0.003,0.005l0.002,0.002
		c0.003,0.007,0.005,0.011,0.008,0.014c0.004,0.005,0.007,0.009,0.01,0.012c0.004,0.005,0.007,0.008,0.01,0.012
		c0.012,0.015,0.028,0.035,0.052,0.061c0.033,0.035,0.066,0.065,0.102,0.093c0.049,0.038,0.098,0.069,0.15,0.094
		c0.062,0.031,0.127,0.054,0.195,0.069c0.069,0.016,0.146,0.025,0.227,0.025h0.006c0.074,0,0.153-0.008,0.233-0.024
		c0.075-0.015,0.155-0.036,0.235-0.065c0.142-0.05,0.286-0.118,0.431-0.204c0.118-0.071,0.233-0.15,0.341-0.236
		c0.189-0.149,0.299-0.265,0.303-0.27C-474.995,501.66-474.995,501.634-475.011,501.618"/>
	<path d="M-481.117,500.81l0.014-0.011c0.007-0.006,0.019-0.015,0.038-0.028c0.049-0.034,0.098-0.06,0.147-0.08
		c0.033-0.013,0.068-0.023,0.103-0.029c0.035-0.006,0.075-0.007,0.112-0.002c0.038,0.005,0.077,0.016,0.116,0.034
		c0.037,0.018,0.075,0.041,0.111,0.069l0.031,0.023c0.007,0.006,0.016,0.011,0.025,0.016c0.004,0.002,0.007,0.005,0.011,0.007
		c0.011,0.007,0.021,0.012,0.03,0.017l0.008,0.005c0.011,0.006,0.023,0.011,0.034,0.015l0.007,0.003
		c0.053,0.021,0.11,0.033,0.165,0.034h0.008c0.047,0,0.096-0.009,0.146-0.027c0.042-0.014,0.08-0.035,0.121-0.062
		c0.029-0.02,0.058-0.043,0.086-0.071c0.024-0.024,0.044-0.046,0.057-0.064c0.029-0.037,0.042-0.061,0.042-0.062
		c0.007-0.012,0.005-0.026-0.005-0.036l-0.009-0.009h-0.024l-0.009,0.008c0,0-0.017,0.018-0.049,0.043
		c-0.048,0.038-0.095,0.068-0.143,0.092c-0.034,0.015-0.068,0.028-0.102,0.036c-0.038,0.008-0.076,0.011-0.112,0.008
		c-0.038-0.003-0.076-0.014-0.115-0.032c-0.019-0.009-0.04-0.021-0.054-0.029c-0.003-0.003-0.007-0.005-0.011-0.008
		c-0.005-0.003-0.01-0.006-0.016-0.011l-0.028-0.022c-0.048-0.038-0.096-0.068-0.144-0.088c-0.052-0.022-0.108-0.037-0.163-0.041
		c-0.05-0.004-0.103,0.001-0.156,0.014c-0.042,0.011-0.084,0.027-0.126,0.051c-0.032,0.017-0.063,0.037-0.094,0.062
		c-0.027,0.022-0.048,0.043-0.063,0.059c-0.033,0.034-0.049,0.058-0.049,0.059c-0.01,0.015-0.009,0.035,0.002,0.049
		C-481.161,500.821-481.134,500.824-481.117,500.81"/>
</g>
</svg>
