<?xml version="1.0" encoding="UTF-8" standalone="no"?>
<svg width="16px" height="16px" viewBox="0 0 16 16" version="1.1" xmlns="http://www.w3.org/2000/svg" xmlns:xlink="http://www.w3.org/1999/xlink">
    <!-- Generator: Sketch 3.7.2 (28276) - http://www.bohemiancoding.com/sketch -->
    <title>Royal Greenwich</title>
    <desc>Created with Sketch.</desc>
    <defs>
        <polygon id="path-1" points="0 6.79945 14 6.79945 14 -0.000175 0 -0.000175"></polygon>
    </defs>
    <g id="Page-1" stroke="none" stroke-width="1" fill="none" fill-rule="evenodd">
        <g id="Royal-Greenwich">
            <g transform="translate(1.000000, 4.500000)">
                <path d="M12.3983125,1.6435125 C12.2688125,1.2698875 12.0518125,1.2261375 11.9398125,1.2296375 C11.9564375,1.2068875 11.9730625,1.1780125 11.9791875,1.1482625 C11.9923125,1.0843875 11.9678125,1.0117625 11.9669375,1.0091375 C11.9643125,0.9995125 11.9564375,0.9925125 11.9459375,0.9925125 C11.9459375,0.9925125 11.9406875,0.9916375 11.9336875,0.9916375 C11.9048125,0.9916375 11.8496875,0.9951375 11.8111875,1.0178875 C11.7866875,1.0318875 11.7586875,1.0633875 11.7368125,1.0922625 C11.7289375,1.0450125 11.7079375,0.9820125 11.6563125,0.9242625 C11.5679375,0.8253875 11.4200625,0.7755125 11.2135625,0.7755125 C11.0184375,0.7763875 10.8723125,0.8245125 10.7778125,0.9207625 C10.7209375,0.9802625 10.6955625,1.0432625 10.6841875,1.0905125 C10.6675625,1.0677625 10.6456875,1.0450125 10.6194375,1.0318875 C10.5660625,1.0030125 10.4969375,1.0012625 10.4820625,1.0012625 C10.4724375,1.0012625 10.4636875,1.0073875 10.4601875,1.0161375 C10.4584375,1.0205125 10.4286875,1.0957625 10.4453125,1.1535125 C10.4514375,1.1788875 10.4698125,1.2086375 10.4855625,1.2340125 C10.3858125,1.2261375 10.1688125,1.2532625 10.0454375,1.6085125 C9.9754375,1.8097625 9.9736875,1.9742625 10.0384375,2.0967625 C10.0725625,2.1615125 10.1215625,2.2026375 10.1618125,2.2271375 C10.1346875,2.2350125 10.1075625,2.2481375 10.0856875,2.2665125 C10.0349375,2.3102625 10.0095625,2.3820125 10.0078125,2.3846375 C10.0043125,2.3933875 10.0078125,2.4047625 10.0148125,2.4117625 C10.0183125,2.4135125 10.0830625,2.4668875 10.1434375,2.4721375 C10.1705625,2.4738875 10.2090625,2.4668875 10.2388125,2.4607625 C10.2029375,2.5613875 10.1626875,2.7985125 10.4628125,2.9962625 C10.6176875,3.0986375 10.7576875,3.1511375 10.8758125,3.1511375 C10.9843125,3.1511375 11.0543125,3.1073875 11.0945625,3.0688875 C11.0963125,3.0951375 11.1006875,3.1231375 11.1120625,3.1467625 C11.1409375,3.2062625 11.2030625,3.2500125 11.2056875,3.2526375 C11.2100625,3.2552625 11.2144375,3.2570125 11.2196875,3.2570125 C11.2240625,3.2570125 11.2293125,3.2552625 11.2328125,3.2526375 C11.2363125,3.2508875 11.3019375,3.2062625 11.3264375,3.1528875 C11.3360625,3.1292625 11.3395625,3.0986375 11.3413125,3.0697625 C11.3841875,3.1108875 11.4585625,3.1590125 11.5696875,3.1590125 C11.6790625,3.1590125 11.7998125,3.1117625 11.9319375,3.0198875 C12.0999375,2.9026375 12.1961875,2.7757625 12.2189375,2.6418875 C12.2311875,2.5683875 12.2180625,2.5062625 12.2023125,2.4660125 C12.2250625,2.4730125 12.2513125,2.4782625 12.2766875,2.4782625 C12.2828125,2.4782625 12.2898125,2.4782625 12.2959375,2.4765125 C12.3615625,2.4686375 12.4236875,2.4231375 12.4263125,2.4213875 C12.4350625,2.4152625 12.4376875,2.4056375 12.4359375,2.3960125 C12.4350625,2.3925125 12.4131875,2.3155125 12.3685625,2.2761375 C12.3449375,2.2560125 12.3055625,2.2402625 12.2740625,2.2306375 C12.3536875,2.1597625 12.5138125,1.9742625 12.3983125,1.6435125 L12.3983125,1.6435125 Z M12.2084375,2.2175125 C12.1996875,2.2218875 12.1953125,2.2323875 12.1970625,2.2420125 C12.1979375,2.2516375 12.2058125,2.2595125 12.2145625,2.2612625 C12.2399375,2.2673875 12.3090625,2.2875125 12.3361875,2.3111375 C12.3589375,2.3303875 12.3746875,2.3671375 12.3834375,2.3916375 C12.3641875,2.4030125 12.3265625,2.4231375 12.2898125,2.4283875 C12.2364375,2.4345125 12.1646875,2.3986375 12.1638125,2.3986375 C12.1541875,2.3933875 12.1419375,2.3960125 12.1349375,2.4047625 C12.1270625,2.4135125 12.1261875,2.4248875 12.1331875,2.4336375 C12.1340625,2.4345125 12.1909375,2.5158875 12.1708125,2.6348875 C12.1498125,2.7547625 12.0596875,2.8702625 11.9039375,2.9796375 C11.7814375,3.0662625 11.6685625,3.1100125 11.5696875,3.1100125 C11.4086875,3.1100125 11.3386875,2.9927625 11.3360625,2.9892625 C11.3308125,2.9796375 11.3194375,2.9743875 11.3089375,2.9778875 C11.2975625,2.9813875 11.2905625,2.9918875 11.2914375,3.0032625 C11.2940625,3.0286375 11.2966875,3.0995125 11.2818125,3.1336375 C11.2704375,3.1607625 11.2398125,3.1870125 11.2205625,3.2027625 C11.2021875,3.1878875 11.1715625,3.1590125 11.1558125,3.1266375 C11.1374375,3.0872625 11.1426875,3.0207625 11.1461875,2.9980125 C11.1488125,2.9875125 11.1418125,2.9770125 11.1330625,2.9726375 C11.1304375,2.9700125 11.1269375,2.9700125 11.1234375,2.9700125 C11.1155625,2.9700125 11.1094375,2.9735125 11.1041875,2.9787625 C11.1033125,2.9796375 11.1015625,2.9822625 11.1006875,2.9840125 C11.0989375,2.9892625 11.0411875,3.1021375 10.8766875,3.1021375 C10.7681875,3.1021375 10.6378125,3.0531375 10.4899375,2.9560125 C10.1381875,2.7250125 10.2956875,2.4476375 10.3026875,2.4362625 C10.3079375,2.4275125 10.3070625,2.4170125 10.3000625,2.4091375 C10.2939375,2.4012625 10.2834375,2.3986375 10.2738125,2.4012625 C10.2729375,2.4021375 10.1933125,2.4292625 10.1460625,2.4248875 C10.1180625,2.4231375 10.0821875,2.4012625 10.0611875,2.3863875 C10.0699375,2.3653875 10.0900625,2.3286375 10.1180625,2.3041375 C10.1504375,2.2761375 10.2169375,2.2630125 10.2388125,2.2603875 C10.2510625,2.2595125 10.2598125,2.2498875 10.2606875,2.2385125 C10.2615625,2.2271375 10.2536875,2.2166375 10.2431875,2.2131375 C10.2423125,2.2122625 10.1390625,2.1842625 10.0804375,2.0740125 C10.0226875,1.9637625 10.0253125,1.8132625 10.0909375,1.6260125 C10.1950625,1.3258875 10.3665625,1.2830125 10.4601875,1.2830125 C10.5048125,1.2830125 10.5345625,1.2917625 10.5345625,1.2917625 C10.5459375,1.2961375 10.5573125,1.2917625 10.5634375,1.2830125 C10.5695625,1.2733875 10.5686875,1.2620125 10.5608125,1.2541375 C10.5450625,1.2357625 10.5004375,1.1788875 10.4916875,1.1421375 C10.4838125,1.1150125 10.4925625,1.0747625 10.4986875,1.0502625 C10.5231875,1.0520125 10.5643125,1.0572625 10.5975625,1.0747625 C10.6360625,1.0948875 10.6684375,1.1526375 10.6780625,1.1727625 C10.6833125,1.1823875 10.6946875,1.1885125 10.7060625,1.1858875 C10.7165625,1.1832625 10.7244375,1.1736375 10.7244375,1.1622625 C10.7244375,1.1605125 10.7218125,1.0493875 10.8136875,0.9557625 C10.8976875,0.8691375 11.0324375,0.8245125 11.2179375,0.8245125 C11.4060625,0.8245125 11.5408125,0.8691375 11.6195625,0.9566375 C11.7035625,1.0493875 11.6930625,1.1613875 11.6930625,1.1622625 C11.6913125,1.1727625 11.6983125,1.1841375 11.7088125,1.1876375 C11.7193125,1.1920125 11.7306875,1.1876375 11.7368125,1.1780125 C11.7595625,1.1412625 11.8068125,1.0773875 11.8356875,1.0598875 C11.8628125,1.0450125 11.9056875,1.0415125 11.9266875,1.0415125 C11.9319375,1.0633875 11.9389375,1.1053875 11.9319375,1.1412625 C11.9240625,1.1832625 11.8785625,1.2313875 11.8619375,1.2462625 C11.8531875,1.2532625 11.8514375,1.2655125 11.8566875,1.2751375 C11.8628125,1.2847625 11.8741875,1.2900125 11.8846875,1.2865125 C11.8864375,1.2865125 12.1918125,1.1937625 12.3528125,1.6601375 C12.4884375,2.0495125 12.2198125,2.2105125 12.2084375,2.2175125 L12.2084375,2.2175125 Z" id="Fill-1" fill="#000000"></path>
                <path d="M1.057,3.774575 C1.057,3.517325 0.868875,3.35895 0.566125,3.35895 L0.189875,3.35895 L0.189875,4.843825 L0.40425,4.843825 L0.40425,4.199825 L0.494375,4.199825 C0.60375,4.199825 0.693,4.23395 0.89075,4.539325 L1.087625,4.84295 L1.344,4.84295 C1.241625,4.702075 1.204875,4.6522 1.141,4.549825 C1.026375,4.364325 0.94325,4.227825 0.807625,4.1377 C0.96775,4.075575 1.057,3.94695 1.057,3.774575 M0.5425,4.0082 L0.40425,4.0082 L0.40425,3.5427 L0.5425,3.5427 C0.75075,3.5427 0.833875,3.6267 0.835625,3.7667 C0.83825,3.890075 0.772625,4.0082 0.5425,4.0082" id="Fill-3" fill="#000000"></path>
                <path d="M3.082625,4.1013875 C3.082625,3.6875125 2.772,3.3392625 2.2785,3.3392625 C1.79375,3.3392625 1.477,3.6892625 1.477,4.1013875 C1.477,4.5038875 1.785875,4.8635125 2.274125,4.8635125 C2.78075,4.8635125 3.082625,4.5021375 3.082625,4.1013875 M1.6975,4.1013875 C1.6975,3.7750125 1.945125,3.5352625 2.2785,3.5352625 C2.6145,3.5352625 2.862125,3.7750125 2.862125,4.1013875 C2.862125,4.4251375 2.6145,4.6675125 2.2785,4.6675125 C1.946,4.6675125 1.6975,4.4260125 1.6975,4.1013875" id="Fill-5" fill="#000000"></path>
                <polygon id="Fill-7" fill="#000000" points="3.72575 4.8442625 3.940125 4.8442625 3.940125 4.0602625 4.494875 3.3585125 4.23675 3.3585125 3.83075 3.8712625 3.429125 3.3585125 3.171 3.3585125 3.72575 4.0585125"></polygon>
                <path d="M5.0605625,3.351075 L4.4191875,4.843825 L4.6379375,4.843825 L4.8269375,4.406325 L5.4621875,4.406325 L5.6608125,4.843825 L5.8804375,4.843825 L5.2119375,3.351075 L5.0605625,3.351075 Z M4.9100625,4.2147 L5.1331875,3.676575 L5.3746875,4.2147 L4.9100625,4.2147 Z" id="Fill-9" fill="#000000"></path>
                <polygon id="Fill-11" fill="#000000" points="6.20725 3.35895 6.20725 4.8447 7.097125 4.8447 7.097125 4.6522 6.421625 4.6522 6.421625 3.35895"></polygon>
                <path d="M0.9935625,6.23945 L1.2805625,6.23945 L1.2805625,6.54395 C1.1773125,6.576325 1.0723125,6.602575 0.9568125,6.602575 C0.6006875,6.602575 0.3513125,6.3707 0.3513125,6.039075 C0.3513125,5.717075 0.6041875,5.4712 0.9279375,5.4712 C1.1081875,5.4712 1.2901875,5.5202 1.4651875,5.61645 L1.4651875,5.4012 C1.2306875,5.3032 1.1081875,5.2752 0.9323125,5.2752 C0.4773125,5.2752 0.1308125,5.608575 0.1308125,6.046075 C0.1308125,6.481825 0.4685625,6.79945 0.9261875,6.79945 C1.1344375,6.79945 1.2963125,6.76445 1.4958125,6.677825 L1.4958125,6.047825 L0.9935625,6.047825 L0.9935625,6.23945" id="Fill-13" fill="#000000"></path>
                <path d="M2.5935,6.074075 C2.753625,6.011075 2.842875,5.88245 2.842875,5.710075 C2.842875,5.452825 2.65475,5.29445 2.352875,5.29445 L1.97575,5.29445 L1.97575,6.779325 L2.190125,6.779325 L2.190125,6.135325 L2.28025,6.135325 C2.3905,6.135325 2.47975,6.16945 2.676625,6.474825 L2.874375,6.779325 L3.13075,6.779325 C3.0275,6.63845 2.99075,6.5877 2.926875,6.485325 C2.81225,6.3007 2.729125,6.163325 2.5935,6.074075 M2.328375,5.942825 L2.190125,5.942825 L2.190125,5.477325 L2.328375,5.477325 C2.536625,5.477325 2.61975,5.5622 2.622375,5.7022 C2.624125,5.825575 2.5585,5.942825 2.328375,5.942825" id="Fill-15" fill="#000000"></path>
                <polygon id="Fill-17" fill="#000000" points="3.4593125 5.2948875 3.4593125 6.7797625 4.3273125 6.7797625 4.3273125 6.5872625 3.6736875 6.5872625 3.6736875 6.1261375 4.2853125 6.1261375 4.2853125 5.9345125 3.6736875 5.9345125 3.6736875 5.4865125 4.3071875 5.4865125 4.3071875 5.2948875"></polygon>
                <polygon id="Fill-19" fill="#000000" points="4.71975 5.2948875 4.71975 6.7797625 5.58775 6.7797625 5.58775 6.5872625 4.934125 6.5872625 4.934125 6.1261375 5.546625 6.1261375 5.546625 5.9345125 4.934125 5.9345125 4.934125 5.4865125 5.567625 5.4865125 5.567625 5.2948875"></polygon>
                <polygon id="Fill-21" fill="#000000" points="7.1614375 5.2948875 7.1614375 6.4437625 6.1490625 5.2948875 5.9784375 5.2948875 5.9784375 6.7797625 6.1796875 6.7797625 6.1796875 5.6361375 7.1789375 6.7797625 7.3626875 6.7797625 7.3626875 5.2948875"></polygon>
                <polygon id="Fill-23" fill="#000000" points="9.7610625 5.2948875 9.3533125 6.3177625 8.9368125 5.2948875 8.7329375 5.2948875 8.3190625 6.3177625 7.9060625 5.2948875 7.6916875 5.2948875 8.2963125 6.7928875 8.3383125 6.7928875 8.8344375 5.5783875 9.3244375 6.7928875 9.3655625 6.7928875 9.9736875 5.2948875"></polygon>
                <mask id="mask-2" fill="white">
                    <use xlink:href="#path-1"></use>
                </mask>
                <g id="Clip-26"></g>
                <polygon id="Fill-25" fill="#000000" mask="url(#mask-2)" points="10.306625 6.7802 10.521875 6.7802 10.521875 5.295325 10.306625 5.295325"></polygon>
                <path d="M11.1794375,6.039075 C11.1794375,5.7127 11.4331875,5.4712 11.7761875,5.4712 C11.9494375,5.4712 12.1060625,5.51845 12.2906875,5.6252 L12.2906875,5.3977 C12.0868125,5.312825 11.9310625,5.2752 11.7779375,5.2752 C11.3019375,5.2752 10.9571875,5.606825 10.9571875,6.0592 C10.9571875,6.3707 11.2030625,6.79945 11.7648125,6.79945 C11.9984375,6.79945 12.1585625,6.7452 12.3055625,6.6682 L12.3055625,6.436325 C12.1366875,6.544825 11.9529375,6.604325 11.7840625,6.604325 C11.4244375,6.60345 11.1794375,6.37245 11.1794375,6.039075" id="Fill-27" fill="#000000" mask="url(#mask-2)"></path>
                <polygon id="Fill-28" fill="#000000" mask="url(#mask-2)" points="13.7851875 5.2948875 13.7851875 5.9415125 12.9486875 5.9415125 12.9486875 5.2948875 12.7334375 5.2948875 12.7334375 6.7797625 12.9486875 6.7797625 12.9486875 6.1331375 13.7851875 6.1331375 13.7851875 6.7797625 13.9995625 6.7797625 13.9995625 5.2948875"></polygon>
                <path d="M7.90125,3.932075 L7.74725,4.602325 C7.756875,4.618075 7.76825,4.632075 7.7805,4.646075 C7.79275,4.658325 7.8085,4.6697 7.826,4.6802 C7.84525,4.689825 7.867125,4.698575 7.893375,4.703825 C7.91875,4.70995 7.949375,4.712575 7.9835,4.712575 C8.029,4.712575 8.071,4.70295 8.112125,4.68195 C8.15325,4.661825 8.189125,4.633825 8.2215,4.598825 C8.25125,4.563825 8.2775,4.5227 8.29675,4.474575 C8.315125,4.427325 8.32475,4.3757 8.32475,4.324075 C8.32475,4.25495 8.308125,4.199825 8.27225,4.1587 C8.238125,4.11845 8.190875,4.09745 8.1305,4.09745 C8.105125,4.09745 8.078,4.103575 8.050875,4.115825 C8.022875,4.128075 7.993125,4.149075 7.956375,4.180575 L7.95375,4.180575 L8.043875,3.7877 L8.038625,3.77895 L7.818125,3.7912 L7.809375,3.827075 C7.8225,3.828825 7.835625,3.8297 7.847875,3.83145 C7.861,3.832325 7.8715,3.83495 7.879375,3.83845 C7.889,3.842825 7.895125,3.848075 7.900375,3.85595 C7.90475,3.863825 7.907375,3.8752 7.907375,3.8892 C7.907375,3.895325 7.9065,3.902325 7.905625,3.909325 C7.90475,3.91545 7.903,3.92245 7.90125,3.932075 M7.940625,4.240075 C7.949375,4.2322 7.959,4.22345 7.970375,4.21295 C7.98175,4.203325 7.993125,4.194575 8.0045,4.187575 C8.017625,4.1797 8.03075,4.173575 8.042125,4.168325 C8.054375,4.163075 8.068375,4.161325 8.0815,4.161325 C8.106,4.161325 8.12525,4.1657 8.141,4.173575 C8.15675,4.182325 8.168125,4.194575 8.17775,4.208575 C8.187375,4.22345 8.192625,4.24095 8.197875,4.262825 C8.2005,4.283825 8.20225,4.30395 8.20225,4.325825 C8.20225,4.369575 8.197875,4.411575 8.187375,4.45445 C8.176875,4.49645 8.16025,4.534075 8.138375,4.5682 C8.119125,4.598825 8.094625,4.623325 8.066625,4.642575 C8.0395,4.66095 8.00975,4.668825 7.979125,4.668825 C7.961625,4.668825 7.94675,4.667075 7.93275,4.6627 C7.919625,4.65745 7.9065,4.651325 7.895125,4.6417 C7.8855,4.633825 7.8785,4.62595 7.872375,4.616325 C7.86625,4.6067 7.86275,4.598825 7.861,4.590075 L7.940625,4.240075" id="Fill-29" fill="#000000" mask="url(#mask-2)"></path>
                <path d="M8.6139375,4.1285125 C8.5701875,4.1495125 8.5334375,4.1775125 8.5036875,4.2107625 C8.4739375,4.2457625 8.4511875,4.2860125 8.4336875,4.3315125 C8.4153125,4.3761375 8.4074375,4.4251375 8.4074375,4.4776375 C8.4074375,4.5485125 8.4275625,4.6062625 8.4686875,4.6482625 C8.5098125,4.6911375 8.5631875,4.7121375 8.6288125,4.7121375 C8.6856875,4.7121375 8.7355625,4.7016375 8.7784375,4.6788875 C8.8221875,4.6570125 8.8589375,4.6290125 8.8886875,4.5922625 C8.9193125,4.5572625 8.9411875,4.5161375 8.9578125,4.4697625 C8.9735625,4.4233875 8.9823125,4.3761375 8.9823125,4.3297625 C8.9823125,4.2606375 8.9621875,4.2046375 8.9219375,4.1617625 C8.8816875,4.1188875 8.8265625,4.0978875 8.7565625,4.0978875 C8.7049375,4.0970125 8.6585625,4.1075125 8.6139375,4.1285125 M8.8300625,4.1810125 C8.8501875,4.2090125 8.8606875,4.2510125 8.8606875,4.3070125 C8.8606875,4.3525125 8.8563125,4.3953875 8.8466875,4.4391375 C8.8379375,4.4820125 8.8248125,4.5196375 8.8073125,4.5528875 C8.7906875,4.5870125 8.7679375,4.6158875 8.7408125,4.6368875 C8.7136875,4.6587625 8.6821875,4.6692625 8.6471875,4.6692625 C8.6078125,4.6692625 8.5780625,4.6552625 8.5588125,4.6263875 C8.5395625,4.5975125 8.5290625,4.5546375 8.5290625,4.4977625 C8.5290625,4.4627625 8.5334375,4.4233875 8.5395625,4.3813875 C8.5483125,4.3393875 8.5596875,4.3008875 8.5754375,4.2667625 C8.5964375,4.2212625 8.6218125,4.1888875 8.6506875,4.1687625 C8.6795625,4.1486375 8.7110625,4.1381375 8.7434375,4.1381375 C8.7810625,4.1390125 8.8099375,4.1530125 8.8300625,4.1810125" id="Fill-30" fill="#000000" mask="url(#mask-2)"></path>
                <path d="M9.4478125,4.24445 C9.4478125,4.257575 9.4539375,4.269825 9.4635625,4.27945 C9.4740625,4.28995 9.4906875,4.296075 9.5116875,4.296075 C9.5274375,4.296075 9.5388125,4.292575 9.5484375,4.287325 C9.5571875,4.2812 9.5641875,4.273325 9.5711875,4.26195 C9.5773125,4.2532 9.5825625,4.2427 9.5843125,4.229575 C9.5878125,4.21645 9.5904375,4.2042 9.5904375,4.192825 C9.5904375,4.1727 9.5886875,4.15695 9.5843125,4.14645 C9.5790625,4.13595 9.5729375,4.126325 9.5641875,4.117575 C9.5563125,4.1097 9.5466875,4.105325 9.5344375,4.101825 C9.5221875,4.0992 9.5108125,4.096575 9.4976875,4.096575 C9.4705625,4.096575 9.4451875,4.105325 9.4206875,4.12195 C9.3961875,4.1377 9.3603125,4.166575 9.3139375,4.206825 L9.3104375,4.206825 C9.3104375,4.1727 9.3034375,4.147325 9.2903125,4.12895 C9.2771875,4.112325 9.2544375,4.103575 9.2220625,4.103575 C9.2045625,4.103575 9.1844375,4.107075 9.1599375,4.1132 C9.1363125,4.121075 9.1091875,4.1307 9.0776875,4.143825 L9.0680625,4.182325 C9.0768125,4.1797 9.0864375,4.177075 9.0995625,4.17445 C9.1135625,4.171825 9.1249375,4.170075 9.1336875,4.170075 C9.1564375,4.170075 9.1704375,4.173575 9.1791875,4.180575 C9.1861875,4.18845 9.1905625,4.203325 9.1905625,4.226075 C9.1905625,4.234825 9.1879375,4.248825 9.1835625,4.268075 C9.1800625,4.28645 9.1774375,4.30045 9.1756875,4.31095 L9.0881875,4.6942 L9.2001875,4.6942 L9.2955625,4.269825 C9.3183125,4.245325 9.3393125,4.2252 9.3585625,4.210325 C9.3786875,4.194575 9.3953125,4.1832 9.4110625,4.1762 C9.4259375,4.168325 9.4390625,4.16395 9.4504375,4.161325 C9.4618125,4.1587 9.4688125,4.15695 9.4749375,4.15695 C9.4670625,4.171825 9.4618125,4.1867 9.4548125,4.20245 C9.4504375,4.2182 9.4478125,4.2322 9.4478125,4.24445" id="Fill-31" fill="#000000" mask="url(#mask-2)"></path>
                <path d="M9.974125,4.0970125 C9.923375,4.0970125 9.87525,4.1075125 9.832375,4.1285125 C9.78775,4.1503875 9.751,4.1775125 9.722125,4.2116375 C9.692375,4.2466375 9.66875,4.2860125 9.65125,4.3315125 C9.63375,4.3770125 9.625,4.4260125 9.625,4.4785125 C9.625,4.5502625 9.646,4.6062625 9.687125,4.6491375 C9.72825,4.6911375 9.78075,4.7121375 9.84725,4.7121375 C9.904125,4.7121375 9.954,4.7016375 9.996875,4.6788875 C10.040625,4.6578875 10.0765,4.6281375 10.107125,4.5922625 C10.136875,4.5563875 10.1605,4.5161375 10.17625,4.4697625 C10.192,4.4225125 10.199875,4.3761375 10.199875,4.3297625 C10.199875,4.2606375 10.180625,4.2046375 10.1395,4.1617625 C10.100125,4.1188875 10.045,4.0970125 9.974125,4.0970125 M10.065125,4.4391375 C10.0555,4.4811375 10.042375,4.5196375 10.02575,4.5528875 C10.00825,4.5870125 9.986375,4.6150125 9.958375,4.6368875 C9.93125,4.6596375 9.89975,4.6692625 9.865625,4.6692625 C9.8245,4.6692625 9.795625,4.6561375 9.776375,4.6263875 C9.75625,4.5975125 9.746625,4.5546375 9.746625,4.4977625 C9.746625,4.4627625 9.751,4.4233875 9.758,4.3813875 C9.765875,4.3393875 9.77725,4.3008875 9.793875,4.2667625 C9.814875,4.2212625 9.839375,4.1888875 9.869125,4.1678875 C9.897125,4.1486375 9.9295,4.1381375 9.961875,4.1381375 C9.9995,4.1381375 10.0275,4.1521375 10.0485,4.1810125 C10.068625,4.2090125 10.07825,4.2510125 10.07825,4.3070125 C10.07825,4.3525125 10.073875,4.3962625 10.065125,4.4391375" id="Fill-32" fill="#000000" mask="url(#mask-2)"></path>
                <path d="M10.8451875,4.6368875 C10.8224375,4.6368875 10.8058125,4.6325125 10.7970625,4.6246375 C10.7874375,4.6167625 10.7821875,4.6010125 10.7821875,4.5791375 C10.7821875,4.5721375 10.7839375,4.5616375 10.7874375,4.5450125 C10.7909375,4.5283875 10.7935625,4.5117625 10.7979375,4.4960125 L10.8863125,4.1153875 L10.8784375,4.1057625 L10.7743125,4.1136375 L10.6710625,4.5590125 C10.6439375,4.5861375 10.6168125,4.6053875 10.5914375,4.6193875 C10.5634375,4.6325125 10.5380625,4.6395125 10.5118125,4.6395125 C10.4864375,4.6395125 10.4689375,4.6316375 10.4575625,4.6167625 C10.4461875,4.6010125 10.4400625,4.5800125 10.4400625,4.5528875 C10.4400625,4.5458875 10.4418125,4.5345125 10.4444375,4.5205125 C10.4470625,4.5056375 10.4496875,4.4907625 10.4540625,4.4741375 L10.5065625,4.2553875 C10.5100625,4.2431375 10.5118125,4.2308875 10.5135625,4.2186375 C10.5161875,4.2063875 10.5161875,4.1967625 10.5161875,4.1906375 C10.5161875,4.1626375 10.5083125,4.1416375 10.4943125,4.1267625 C10.4785625,4.1118875 10.4558125,4.1040125 10.4243125,4.1040125 C10.4103125,4.1040125 10.3901875,4.1083875 10.3665625,4.1153875 C10.3429375,4.1223875 10.3158125,4.1320125 10.2843125,4.1460125 L10.2764375,4.1845125 C10.2834375,4.1818875 10.2939375,4.1792625 10.3070625,4.1757625 C10.3201875,4.1722625 10.3315625,4.1713875 10.3403125,4.1713875 C10.3630625,4.1713875 10.3770625,4.1757625 10.3858125,4.1818875 C10.3928125,4.1897625 10.3963125,4.2046375 10.3963125,4.2265125 C10.3963125,4.2387625 10.3954375,4.2518875 10.3919375,4.2650125 C10.3893125,4.2781375 10.3858125,4.2930125 10.3823125,4.3113875 L10.3368125,4.4986375 C10.3298125,4.5240125 10.3271875,4.5432625 10.3254375,4.5563875 C10.3236875,4.5695125 10.3236875,4.5808875 10.3236875,4.5905125 C10.3236875,4.6255125 10.3333125,4.6543875 10.3543125,4.6762625 C10.3753125,4.6981375 10.4050625,4.7086375 10.4435625,4.7086375 C10.4680625,4.7086375 10.4881875,4.7060125 10.5039375,4.7033875 C10.5196875,4.6981375 10.5363125,4.6920125 10.5555625,4.6815125 C10.5721875,4.6727625 10.5888125,4.6640125 10.6045625,4.6508875 C10.6211875,4.6395125 10.6386875,4.6246375 10.6570625,4.6106375 L10.6605625,4.6106375 C10.6605625,4.6360125 10.6684375,4.6570125 10.6841875,4.6753875 C10.6999375,4.6937625 10.7235625,4.7033875 10.7559375,4.7033875 C10.7751875,4.7033875 10.7953125,4.6998875 10.8171875,4.6928875 C10.8390625,4.6867625 10.8670625,4.6771375 10.8994375,4.6640125 L10.9090625,4.6246375 C10.9003125,4.6281375 10.8906875,4.6307625 10.8758125,4.6333875 C10.8626875,4.6360125 10.8521875,4.6368875 10.8451875,4.6368875" id="Fill-33" fill="#000000" mask="url(#mask-2)"></path>
                <path d="M10.9781875,4.9291375 C10.9904375,4.9370125 11.0070625,4.9431375 11.0271875,4.9483875 C11.0481875,4.9545125 11.0753125,4.9562625 11.1085625,4.9562625 C11.1566875,4.9562625 11.2004375,4.9501375 11.2389375,4.9378875 C11.2774375,4.9256375 11.3124375,4.9055125 11.3439375,4.8757625 C11.3736875,4.8468875 11.4025625,4.8092625 11.4261875,4.7602625 C11.4489375,4.7112625 11.4690625,4.6517625 11.4839375,4.5808875 L11.5845625,4.1145125 L11.5766875,4.1057625 L11.4681875,4.1337625 C11.4524375,4.1232625 11.4314375,4.1145125 11.4060625,4.1075125 C11.3806875,4.0996375 11.3544375,4.0961375 11.3246875,4.0961375 C11.2791875,4.0961375 11.2354375,4.1075125 11.1934375,4.1285125 C11.1505625,4.1495125 11.1146875,4.1775125 11.0849375,4.2116375 C11.0534375,4.2475125 11.0280625,4.2886375 11.0105625,4.3350125 C10.9921875,4.3805125 10.9834375,4.4286375 10.9834375,4.4776375 C10.9834375,4.5485125 10.9991875,4.6045125 11.0298125,4.6447625 C11.0613125,4.6850125 11.1059375,4.7051375 11.1636875,4.7051375 C11.1855625,4.7051375 11.2065625,4.7016375 11.2258125,4.6955125 C11.2441875,4.6885125 11.2625625,4.6797625 11.2809375,4.6692625 C11.2966875,4.6605125 11.3115625,4.6508875 11.3264375,4.6395125 C11.3404375,4.6281375 11.3518125,4.6185125 11.3596875,4.6123875 L11.3631875,4.6132625 C11.3535625,4.6736375 11.3386875,4.7235125 11.3203125,4.7620125 C11.3019375,4.7996375 11.2826875,4.8302625 11.2608125,4.8538875 C11.2406875,4.8757625 11.2179375,4.8915125 11.1925625,4.9011375 C11.1671875,4.9107625 11.1444375,4.9160125 11.1225625,4.9160125 L11.1041875,4.9160125 C11.1015625,4.9090125 11.0971875,4.8985125 11.0910625,4.8845125 C11.0840625,4.8696375 11.0779375,4.8573875 11.0709375,4.8477625 C11.0639375,4.8381375 11.0560625,4.8285125 11.0455625,4.8206375 C11.0359375,4.8127625 11.0219375,4.8075125 11.0079375,4.8075125 C10.9895625,4.8075125 10.9746875,4.8136375 10.9641875,4.8258875 C10.9536875,4.8372625 10.9475625,4.8530125 10.9475625,4.8705125 C10.9475625,4.8801375 10.9493125,4.8897625 10.9545625,4.9002625 C10.9589375,4.9116375 10.9659375,4.9203875 10.9781875,4.9291375 M11.2975625,4.6167625 C11.2704375,4.6325125 11.2433125,4.6412625 11.2153125,4.6412625 C11.1934375,4.6412625 11.1750625,4.6368875 11.1619375,4.6290125 C11.1479375,4.6202625 11.1365625,4.6097625 11.1286875,4.5948875 C11.1208125,4.5800125 11.1146875,4.5633875 11.1111875,4.5432625 C11.1076875,4.5240125 11.1059375,4.5021375 11.1059375,4.4793875 C11.1059375,4.4365125 11.1120625,4.3945125 11.1251875,4.3516375 C11.1374375,4.3087625 11.1540625,4.2720125 11.1733125,4.2422625 C11.1960625,4.2107625 11.2196875,4.1853875 11.2476875,4.1670125 C11.2748125,4.1486375 11.3036875,4.1398875 11.3343125,4.1398875 C11.3553125,4.1398875 11.3719375,4.1433875 11.3859375,4.1477625 C11.3990625,4.1538875 11.4104375,4.1608875 11.4191875,4.1705125 C11.4279375,4.1810125 11.4340625,4.1923875 11.4375625,4.2028875 C11.4410625,4.2151375 11.4428125,4.2265125 11.4428125,4.2361375 L11.3754375,4.5563875 C11.3500625,4.5808875 11.3255625,4.6001375 11.2975625,4.6167625" id="Fill-34" fill="#000000" mask="url(#mask-2)"></path>
                <path d="M11.8505625,3.932075 L11.6729375,4.6942 L11.7840625,4.6942 L11.8855625,4.2602 C11.9118125,4.231325 11.9398125,4.2077 11.9686875,4.19195 C11.9984375,4.1762 12.0246875,4.16745 12.0509375,4.16745 C12.0754375,4.16745 12.0929375,4.175325 12.1060625,4.191075 C12.1191875,4.20595 12.1253125,4.22695 12.1253125,4.254075 C12.1253125,4.26195 12.1235625,4.273325 12.1218125,4.287325 C12.1191875,4.30045 12.1156875,4.3162 12.1113125,4.332825 L12.0526875,4.553325 C12.0491875,4.567325 12.0456875,4.579575 12.0448125,4.590075 C12.0430625,4.5997 12.0421875,4.6102 12.0421875,4.61895 C12.0421875,4.642575 12.0509375,4.663575 12.0666875,4.679325 C12.0815625,4.69595 12.1060625,4.7047 12.1384375,4.7047 C12.1585625,4.7047 12.1778125,4.7012 12.1988125,4.6942 C12.2180625,4.688075 12.2451875,4.67845 12.2810625,4.663575 L12.2906875,4.62595 C12.2828125,4.628575 12.2723125,4.6312 12.2583125,4.633825 C12.2451875,4.63645 12.2329375,4.6382 12.2250625,4.6382 C12.2031875,4.6382 12.1874375,4.633825 12.1769375,4.62595 C12.1673125,4.618075 12.1629375,4.602325 12.1629375,4.58045 C12.1629375,4.570825 12.1646875,4.558575 12.1681875,4.54195 C12.1716875,4.5262 12.1760625,4.511325 12.1778125,4.4982 L12.2285625,4.308325 C12.2329375,4.290825 12.2364375,4.273325 12.2381875,4.254075 C12.2399375,4.236575 12.2416875,4.22345 12.2416875,4.21645 C12.2416875,4.18145 12.2311875,4.152575 12.2101875,4.1307 C12.1874375,4.108825 12.1585625,4.09745 12.1209375,4.09745 C12.0798125,4.09745 12.0439375,4.1062 12.0115625,4.1237 C11.9800625,4.13945 11.9433125,4.164825 11.9030625,4.1972 L11.9004375,4.1972 L11.9966875,3.7877 L11.9888125,3.77895 L11.7674375,3.792075 L11.7586875,3.82795 C11.7718125,3.828825 11.7858125,3.8297 11.7989375,3.83145 C11.8120625,3.8332 11.8225625,3.835825 11.8304375,3.839325 C11.8391875,3.842825 11.8453125,3.84895 11.8505625,3.856825 C11.8558125,3.8647 11.8575625,3.8752 11.8575625,3.8892 C11.8575625,3.897075 11.8566875,3.9032 11.8558125,3.909325 C11.8549375,3.914575 11.8523125,3.92245 11.8505625,3.932075" id="Fill-35" fill="#000000" mask="url(#mask-2)"></path>
                <path d="M13.03225,4.679325 C13.075125,4.65745 13.11275,4.628575 13.143375,4.591825 C13.17225,4.5577 13.195875,4.516575 13.211625,4.469325 C13.227375,4.423825 13.23525,4.376575 13.23525,4.3302 C13.23525,4.261075 13.216,4.205075 13.174875,4.1622 C13.1355,4.11845 13.080375,4.09745 13.010375,4.09745 C12.957875,4.09745 12.910625,4.10795 12.86775,4.12895 C12.823125,4.150825 12.786375,4.17795 12.7575,4.212075 C12.72775,4.2462 12.704125,4.28645 12.686625,4.33195 C12.67,4.37745 12.660375,4.42645 12.660375,4.47895 C12.660375,4.549825 12.681375,4.6067 12.7225,4.6487 C12.763625,4.691575 12.817,4.712575 12.882625,4.712575 C12.9395,4.712575 12.989375,4.7012 13.03225,4.679325 M12.81175,4.626825 C12.791625,4.59795 12.782875,4.555075 12.782875,4.499075 C12.782875,4.4632 12.786375,4.4247 12.793375,4.3827 C12.80125,4.339825 12.812625,4.301325 12.82925,4.268075 C12.85025,4.222575 12.87475,4.189325 12.9045,4.1692 C12.933375,4.149075 12.964875,4.138575 12.99725,4.138575 C13.03575,4.138575 13.06375,4.152575 13.083875,4.18145 C13.103125,4.20945 13.11275,4.250575 13.11275,4.30745 C13.11275,4.35295 13.10925,4.395825 13.099625,4.439575 C13.090875,4.481575 13.076875,4.52095 13.061125,4.55245 C13.043625,4.58745 13.02175,4.61545 12.99375,4.637325 C12.966625,4.6592 12.935125,4.670575 12.900125,4.670575 C12.86075,4.670575 12.831875,4.6557 12.81175,4.626825" id="Fill-36" fill="#000000" mask="url(#mask-2)"></path>
                <path d="M13.6815,3.79995 C13.649125,3.81395 13.619375,3.8332 13.594,3.85945 C13.56775,3.884825 13.545,3.91545 13.524,3.9522 C13.503,3.98895 13.488125,4.03095 13.4785,4.07645 L13.46975,4.115825 L13.35425,4.115825 L13.342875,4.170075 L13.45925,4.170075 L13.349,4.681075 C13.33325,4.752825 13.314875,4.80795 13.292125,4.84645 C13.271125,4.88495 13.244875,4.905075 13.21425,4.9077 C13.209,4.899825 13.202875,4.8902 13.195875,4.878825 C13.18975,4.86745 13.18275,4.8587 13.1775,4.8517 C13.169625,4.84295 13.16175,4.836825 13.152125,4.8307 C13.1425,4.82545 13.132,4.822825 13.120625,4.822825 C13.1005,4.822825 13.085625,4.82895 13.075125,4.842075 C13.0655,4.8552 13.059375,4.8692 13.059375,4.8867 C13.059375,4.9077 13.068125,4.924325 13.08475,4.93745 C13.101375,4.950575 13.12675,4.9567 13.16175,4.9567 C13.225625,4.9567 13.286,4.929575 13.34725,4.873575 C13.40675,4.81845 13.447,4.7467 13.465375,4.6592 L13.5695,4.17095 L13.71825,4.17095 L13.731375,4.1167 L13.580875,4.1167 L13.593125,4.054575 C13.610625,3.9732 13.629,3.916325 13.650875,3.881325 C13.67275,3.8472 13.696375,3.828825 13.7235,3.82795 C13.731375,3.83845 13.736625,3.848075 13.741875,3.85595 C13.74625,3.8647 13.752375,3.874325 13.76025,3.88395 C13.769,3.8927 13.776,3.8997 13.78475,3.90495 C13.794375,3.911075 13.804875,3.912825 13.818,3.912825 C13.838125,3.912825 13.853875,3.9067 13.8635,3.893575 C13.87225,3.88045 13.8775,3.865575 13.8775,3.848075 C13.8775,3.82795 13.86875,3.8122 13.852125,3.7982 C13.8355,3.785075 13.810125,3.77895 13.775125,3.77895 C13.74625,3.778075 13.71475,3.785075 13.6815,3.79995" id="Fill-37" fill="#000000" mask="url(#mask-2)"></path>
                <path d="M3.7541875,2.6152 C6.0186875,2.348325 8.7075625,0.311325 11.1321875,0.218575 C13.7116875,0.12145 13.8464375,2.5102 13.8464375,2.5102 C13.8464375,2.5102 14.0126875,-0.049175 11.0105625,0.0007 C8.3234375,0.045325 5.3773125,2.5347 2.8109375,2.467325 C0.5604375,2.4087 0.0914375,1.562575 0.0004375,1.298325 C0.1106875,1.64045 0.7363125,2.97045 3.7541875,2.6152" id="Fill-38" fill="#000000" mask="url(#mask-2)"></path>
                <path d="M12.0579375,2.2000125 C12.1183125,2.1518875 12.2583125,2.0031375 12.1629375,1.7310125 C12.0614375,1.4361375 11.8855625,1.3923875 11.7893125,1.3923875 L11.7709375,1.3923875 C11.7875625,1.3731375 11.8076875,1.3451375 11.8138125,1.3162625 C11.8225625,1.2655125 11.8041875,1.2086375 11.8041875,1.2068875 L11.8006875,1.1981375 L11.7928125,1.1981375 C11.7928125,1.1981375 11.7893125,1.1972625 11.7831875,1.1972625 C11.7604375,1.1972625 11.7175625,1.1998875 11.6869375,1.2173875 C11.6650625,1.2296375 11.6440625,1.2637625 11.6291875,1.2917625 C11.6248125,1.2541375 11.6081875,1.2007625 11.5644375,1.1526375 C11.4953125,1.0747625 11.3763125,1.0353875 11.2135625,1.0353875 C11.0569375,1.0353875 10.9405625,1.0738875 10.8670625,1.1500125 C10.8145625,1.2033875 10.7961875,1.2620125 10.7891875,1.2996375 C10.7751875,1.2786375 10.7550625,1.2541375 10.7296875,1.2401375 C10.6876875,1.2182625 10.6334375,1.2165125 10.6211875,1.2165125 L10.6124375,1.2165125 L10.6106875,1.2243875 C10.6089375,1.2270125 10.5879375,1.2865125 10.5984375,1.3302625 C10.6045625,1.3556375 10.6238125,1.3845125 10.6404375,1.4063875 C10.6299375,1.4046375 10.6176875,1.4037625 10.6036875,1.4037625 C10.5196875,1.4037625 10.3656875,1.4431375 10.2764375,1.7030125 C10.2204375,1.8631375 10.2186875,1.9935125 10.2694375,2.0915125 C10.3026875,2.1571375 10.3525625,2.1921375 10.3858125,2.2096375 C10.3613125,2.2166375 10.3306875,2.2288875 10.3088125,2.2472625 C10.2694375,2.2796375 10.2449375,2.3233875 10.2440625,2.3251375 L10.2388125,2.3347625 L10.2466875,2.3408875 C10.2493125,2.3426375 10.3070625,2.3863875 10.3508125,2.3933875 C10.3779375,2.3968875 10.4129375,2.3890125 10.4374375,2.3837625 C10.4085625,2.4520125 10.3578125,2.6480125 10.6098125,2.8142625 C10.7349375,2.8965125 10.8460625,2.9376375 10.9396875,2.9376375 C11.0368125,2.9376375 11.0936875,2.8947625 11.1234375,2.8606375 C11.1234375,2.8851375 11.1260625,2.9157625 11.1374375,2.9385125 C11.1593125,2.9857625 11.2083125,3.0198875 11.2109375,3.0216375 L11.2179375,3.0260125 L11.2249375,3.0216375 C11.2266875,3.0198875 11.2783125,2.9857625 11.2966875,2.9437625 C11.3063125,2.9210125 11.3080625,2.8877625 11.3080625,2.8615125 C11.3395625,2.8947625 11.4008125,2.9437625 11.5005625,2.9437625 C11.5871875,2.9437625 11.6843125,2.9061375 11.7884375,2.8326375 C12.0736875,2.6340125 12.0378125,2.4362625 12.0098125,2.3627625 C12.0343125,2.3723875 12.0710625,2.3820125 12.1008125,2.3776375 C12.1515625,2.3715125 12.1988125,2.3496375 12.2005625,2.3487625 L12.2093125,2.3443875 L12.2075625,2.3347625 C12.2058125,2.3321375 12.1874375,2.2665125 12.1533125,2.2358875 C12.1323125,2.2157625 12.0876875,2.2061375 12.0579375,2.2000125 M10.9475625,1.2375125 C10.9615625,1.2313875 10.9834375,1.2296375 11.0149375,1.2296375 C11.0534375,1.2296375 11.0989375,1.2331375 11.1400625,1.2375125 C11.1706875,1.2392625 11.1969375,1.2410125 11.2135625,1.2410125 L11.2179375,1.2410125 C11.2284375,1.2410125 11.2459375,1.2392625 11.2669375,1.2375125 C11.3036875,1.2340125 11.3544375,1.2278875 11.3990625,1.2278875 C11.4515625,1.2278875 11.4839375,1.2357625 11.4988125,1.2488875 C11.5268125,1.2733875 11.5845625,1.3407625 11.5451875,1.4615125 C11.5119375,1.5612625 11.4384375,1.6522625 11.4375625,1.6540125 C11.4358125,1.6557625 11.4323125,1.6557625 11.4305625,1.6557625 C11.4296875,1.6548875 11.3115625,1.6032625 11.2179375,1.6032625 C11.1234375,1.6032625 10.9991875,1.6653875 10.9974375,1.6662625 C10.9956875,1.6671375 10.9948125,1.6671375 10.9948125,1.6671375 C10.9921875,1.6671375 10.9904375,1.6653875 10.9895625,1.6645125 C10.9843125,1.6592625 10.8784375,1.5236375 10.8688125,1.4238875 C10.8583125,1.3258875 10.8880625,1.2576375 10.9475625,1.2375125 M10.3691875,2.0302625 C10.3700625,1.9908875 10.4059375,1.9121375 10.4348125,1.8508875 C10.4479375,1.8202625 10.4610625,1.7940125 10.4654375,1.7791375 C10.4689375,1.7695125 10.4733125,1.7520125 10.4785625,1.7310125 C10.4978125,1.6557625 10.5275625,1.5420125 10.5686875,1.5201375 C10.5870625,1.5105125 10.6159375,1.4991375 10.6518125,1.4991375 C10.6973125,1.4991375 10.7419375,1.5157625 10.7856875,1.5490125 C10.8696875,1.6146375 10.9300625,1.7143875 10.9309375,1.7161375 C10.9326875,1.7178875 10.9326875,1.7213875 10.9300625,1.7231375 C10.9291875,1.7240125 10.8399375,1.8158875 10.8084375,1.9033875 C10.7760625,1.9926375 10.7918125,2.1300125 10.7918125,2.1317625 C10.7918125,2.1343875 10.7909375,2.1370125 10.7874375,2.1378875 C10.7865625,2.1378875 10.6728125,2.1746375 10.5783125,2.1746375 C10.5555625,2.1746375 10.5354375,2.1728875 10.5179375,2.1685125 C10.4216875,2.1440125 10.3674375,2.0932625 10.3691875,2.0302625 M11.1295625,2.7136375 C11.0875625,2.7818875 11.0368125,2.8195125 10.9860625,2.8195125 C10.9755625,2.8195125 10.9641875,2.8177625 10.9545625,2.8142625 C10.9160625,2.8028875 10.8521875,2.7451375 10.8005625,2.6996375 C10.7751875,2.6777625 10.7533125,2.6585125 10.7401875,2.6497625 C10.7314375,2.6436375 10.7165625,2.6348875 10.6990625,2.6235125 C10.6316875,2.5823875 10.5301875,2.5211375 10.5205625,2.4747625 C10.5135625,2.4397625 10.5083125,2.3496375 10.6124375,2.2778875 C10.6999375,2.2175125 10.8145625,2.1886375 10.8154375,2.1877625 C10.8180625,2.1877625 10.8215625,2.1886375 10.8224375,2.1912625 C10.8233125,2.1930125 10.8854375,2.3041375 10.9598125,2.3610125 C11.0368125,2.4178875 11.1724375,2.4423875 11.1741875,2.4423875 C11.1776875,2.4423875 11.1803125,2.4458875 11.1803125,2.4485125 C11.1803125,2.4555125 11.1838125,2.6270125 11.1295625,2.7136375 M11.2380625,2.2717625 C11.2380625,2.2717625 11.2406875,2.2953875 11.2363125,2.3067625 C11.2310625,2.3181375 11.2153125,2.3295125 11.2153125,2.3295125 C11.2153125,2.3295125 11.2004375,2.3190125 11.1943125,2.3050125 C11.1873125,2.2918875 11.1908125,2.2708875 11.1908125,2.2708875 C11.1908125,2.2708875 11.1549375,2.3461375 11.0341875,2.2665125 C10.9423125,2.2052625 10.9860625,2.1308875 10.9860625,2.1308875 C10.9860625,2.1308875 10.9641875,2.1387625 10.9519375,2.1370125 C10.9405625,2.1352625 10.9256875,2.1238875 10.9256875,2.1238875 C10.9256875,2.1238875 10.9309375,2.1063875 10.9423125,2.0967625 C10.9536875,2.0880125 10.9746875,2.0853875 10.9746875,2.0853875 C10.9746875,2.0853875 10.8898125,2.0626375 10.9335625,1.9348875 C10.9729375,1.8220125 11.0499375,1.8500125 11.0499375,1.8500125 C11.0499375,1.8500125 11.0350625,1.8316375 11.0315625,1.8202625 C11.0289375,1.8071375 11.0359375,1.7905125 11.0359375,1.7905125 C11.0359375,1.7905125 11.0534375,1.7896375 11.0665625,1.7975125 C11.0788125,1.8045125 11.0884375,1.8237625 11.0884375,1.8237625 C11.0884375,1.8237625 11.0858125,1.7353875 11.2135625,1.7353875 C11.3474375,1.7353875 11.3360625,1.8246375 11.3360625,1.8246375 C11.3360625,1.8246375 11.3518125,1.8001375 11.3631875,1.7940125 C11.3728125,1.7878875 11.3920625,1.7878875 11.3920625,1.7878875 C11.3920625,1.7878875 11.3973125,1.8053875 11.3946875,1.8193875 C11.3920625,1.8342625 11.3763125,1.8482625 11.3763125,1.8482625 C11.3763125,1.8482625 11.4559375,1.8220125 11.4970625,1.9436375 C11.5320625,2.0442625 11.4594375,2.0862625 11.4594375,2.0862625 C11.4594375,2.0862625 11.4830625,2.0915125 11.4909375,2.1002625 C11.5005625,2.1081375 11.5066875,2.1265125 11.5066875,2.1265125 C11.5066875,2.1265125 11.4918125,2.1370125 11.4778125,2.1387625 C11.4629375,2.1405125 11.4428125,2.1308875 11.4428125,2.1308875 C11.4428125,2.1308875 11.4918125,2.1973875 11.3859375,2.2717625 C11.2818125,2.3461375 11.2380625,2.2717625 11.2380625,2.2717625 M11.9144375,2.5010125 C11.8908125,2.5333875 11.8173125,2.5780125 11.7578125,2.6138875 C11.7289375,2.6305125 11.7044375,2.6445125 11.6921875,2.6550125 C11.6843125,2.6611375 11.6703125,2.6725125 11.6554375,2.6865125 C11.5976875,2.7363875 11.5119375,2.8116375 11.4646875,2.8116375 L11.4594375,2.8116375 C11.4235625,2.8081375 11.3360625,2.7862625 11.2966875,2.6663875 C11.2651875,2.5648875 11.2704375,2.4485125 11.2713125,2.4476375 C11.2713125,2.4441375 11.2730625,2.4423875 11.2756875,2.4415125 C11.2774375,2.4415125 11.4025625,2.4152625 11.4795625,2.3601375 C11.5556875,2.3050125 11.6213125,2.1825125 11.6213125,2.1816375 C11.6230625,2.1781375 11.6256875,2.1772625 11.6283125,2.1781375 C11.6361875,2.1798875 11.8024375,2.2288875 11.8680625,2.3032625 C11.9345625,2.3785125 11.9511875,2.4493875 11.9144375,2.5010125 M12.0509375,2.0687625 C12.0360625,2.0993875 11.9879375,2.1693875 11.8715625,2.1693875 L11.8575625,2.1693875 C11.7508125,2.1641375 11.6423125,2.1177625 11.6423125,2.1177625 C11.6388125,2.1160125 11.6379375,2.1142625 11.6379375,2.1107625 C11.6379375,2.1098875 11.6571875,1.9838875 11.6326875,1.8928875 C11.6073125,1.8018875 11.5136875,1.6995125 11.5136875,1.6977625 C11.5119375,1.6960125 11.5119375,1.6925125 11.5136875,1.6898875 C11.5171875,1.6846375 11.6213125,1.5463875 11.7158125,1.5105125 C11.8068125,1.4763875 11.8820625,1.4860125 11.9170625,1.5367625 C11.9398125,1.5700125 11.9546875,1.6540125 11.9678125,1.7222625 C11.9739375,1.7537625 11.9791875,1.7826375 11.9844375,1.7975125 C11.9879375,1.8080125 11.9940625,1.8255125 12.0010625,1.8438875 C12.0290625,1.9165125 12.0719375,2.0276375 12.0509375,2.0687625" id="Fill-39" fill="#000000" mask="url(#mask-2)"></path>
            </g>
        </g>
    </g>
</svg>